<svg width="341" height="60" viewBox="0 0 341 60" fill="none" xmlns="http://www.w3.org/2000/svg">
<rect width="341" height="60" rx="16" fill="#1A1A1A"/>
<rect x="0.25" y="0.25" width="340.5" height="59.5" rx="15.75" stroke="url(#paint0_linear_41_3203)" stroke-opacity="0.2" stroke-width="0.5"/>
<path d="M308.197 23.2929C308.588 22.9024 309.223 22.9024 309.615 23.2929L315.633 29.2929C316.024 29.6834 316.024 30.3164 315.633 30.707L309.615 36.707C309.223 37.0975 308.588 37.0975 308.197 36.707C307.805 36.3164 307.805 35.6834 308.197 35.2929L313.505 29.9999L308.197 24.707C307.805 24.3164 307.805 23.6834 308.197 23.2929Z" fill="#AAAAAA"/>
<path d="M51.4255 35V23.3636H55.5732C56.4785 23.3636 57.2285 23.5284 57.8232 23.858C58.4179 24.1875 58.863 24.6383 59.1584 25.2102C59.4539 25.7784 59.6016 26.4186 59.6016 27.1307C59.6016 27.8466 59.452 28.4905 59.1527 29.0625C58.8573 29.6307 58.4103 30.0814 57.8118 30.4148C57.2171 30.7443 56.469 30.9091 55.5675 30.9091H52.7152V29.4205H55.4084C55.9804 29.4205 56.4444 29.322 56.8005 29.125C57.1565 28.9242 57.4179 28.6515 57.5846 28.3068C57.7512 27.9621 57.8346 27.5701 57.8346 27.1307C57.8346 26.6913 57.7512 26.3011 57.5846 25.9602C57.4179 25.6193 57.1546 25.3523 56.7948 25.1591C56.4387 24.9659 55.969 24.8693 55.3857 24.8693H53.1812V35H51.4255ZM63.9851 35.1932C63.4321 35.1932 62.9321 35.0909 62.4851 34.8864C62.0382 34.678 61.684 34.3769 61.4226 33.983C61.1651 33.589 61.0363 33.1061 61.0363 32.5341C61.0363 32.0417 61.131 31.6364 61.3204 31.3182C61.5098 31 61.7654 30.7481 62.0874 30.5625C62.4094 30.3769 62.7692 30.2367 63.167 30.142C63.5647 30.0473 63.97 29.9754 64.3829 29.9261C64.9056 29.8655 65.3298 29.8163 65.6556 29.7784C65.9813 29.7367 66.2181 29.6705 66.3658 29.5795C66.5135 29.4886 66.5874 29.3409 66.5874 29.1364V29.0966C66.5874 28.6004 66.4473 28.2159 66.167 27.9432C65.8904 27.6705 65.4776 27.5341 64.9283 27.5341C64.3563 27.5341 63.9056 27.661 63.576 27.9148C63.2503 28.1648 63.0249 28.4432 62.8999 28.75L61.3033 28.3864C61.4927 27.8561 61.7692 27.428 62.1329 27.1023C62.5003 26.7727 62.9226 26.5341 63.3999 26.3864C63.8772 26.2348 64.3791 26.1591 64.9056 26.1591C65.2541 26.1591 65.6234 26.2008 66.0135 26.2841C66.4075 26.3636 66.7749 26.5114 67.1158 26.7273C67.4605 26.9432 67.7427 27.2519 67.9624 27.6534C68.1821 28.0511 68.292 28.5682 68.292 29.2045V35H66.6329V33.8068H66.5647C66.4548 34.0265 66.2901 34.2424 66.0704 34.4545C65.8507 34.6667 65.5685 34.8428 65.2238 34.983C64.8791 35.1231 64.4662 35.1932 63.9851 35.1932ZM64.3545 33.8295C64.8241 33.8295 65.2257 33.7367 65.559 33.5511C65.8961 33.3655 66.1518 33.1231 66.326 32.8239C66.5041 32.5208 66.5931 32.197 66.5931 31.8523V30.7273C66.5325 30.7879 66.4151 30.8447 66.2408 30.8977C66.0704 30.947 65.8753 30.9905 65.6556 31.0284C65.4359 31.0625 65.2219 31.0947 65.0135 31.125C64.8052 31.1515 64.631 31.1742 64.4908 31.1932C64.1613 31.2348 63.8601 31.3049 63.5874 31.4034C63.3185 31.5019 63.1026 31.6439 62.9397 31.8295C62.7806 32.0114 62.701 32.2538 62.701 32.5568C62.701 32.9773 62.8563 33.2955 63.167 33.5114C63.4776 33.7235 63.8734 33.8295 64.3545 33.8295ZM74.2309 35.1761C73.3862 35.1761 72.6589 34.9848 72.0491 34.6023C71.443 34.2159 70.9771 33.6837 70.6513 33.0057C70.3256 32.3277 70.1627 31.5511 70.1627 30.6761C70.1627 29.7898 70.3294 29.0076 70.6627 28.3295C70.996 27.6477 71.4657 27.1155 72.0718 26.733C72.6778 26.3504 73.3919 26.1591 74.2138 26.1591C74.8767 26.1591 75.4676 26.2822 75.9866 26.5284C76.5055 26.7708 76.9241 27.1117 77.2422 27.5511C77.5642 27.9905 77.7555 28.5038 77.8161 29.0909H76.1627C76.0718 28.6818 75.8634 28.3295 75.5377 28.0341C75.2157 27.7386 74.7839 27.5909 74.2422 27.5909C73.7688 27.5909 73.354 27.7159 72.9979 27.9659C72.6456 28.2121 72.371 28.5644 72.1741 29.0227C71.9771 29.4773 71.8786 30.0152 71.8786 30.6364C71.8786 31.2727 71.9752 31.822 72.1684 32.2841C72.3616 32.7462 72.6343 33.1042 72.9866 33.358C73.3426 33.6117 73.7612 33.7386 74.2422 33.7386C74.5642 33.7386 74.8559 33.6799 75.1172 33.5625C75.3824 33.4413 75.604 33.2689 75.782 33.0455C75.9638 32.822 76.0907 32.553 76.1627 32.2386H77.8161C77.7555 32.803 77.5718 33.3068 77.265 33.75C76.9581 34.1932 76.5472 34.5417 76.032 34.7955C75.5206 35.0492 74.9203 35.1761 74.2309 35.1761ZM83.309 35.1761C82.4643 35.1761 81.737 34.9848 81.1272 34.6023C80.5211 34.2159 80.0552 33.6837 79.7295 33.0057C79.4037 32.3277 79.2408 31.5511 79.2408 30.6761C79.2408 29.7898 79.4075 29.0076 79.7408 28.3295C80.0741 27.6477 80.5438 27.1155 81.1499 26.733C81.756 26.3504 82.47 26.1591 83.292 26.1591C83.9548 26.1591 84.5457 26.2822 85.0647 26.5284C85.5836 26.7708 86.0022 27.1117 86.3204 27.5511C86.6423 27.9905 86.8336 28.5038 86.8942 29.0909H85.2408C85.1499 28.6818 84.9416 28.3295 84.6158 28.0341C84.2938 27.7386 83.862 27.5909 83.3204 27.5909C82.8469 27.5909 82.4321 27.7159 82.076 27.9659C81.7238 28.2121 81.4491 28.5644 81.2522 29.0227C81.0552 29.4773 80.9567 30.0152 80.9567 30.6364C80.9567 31.2727 81.0533 31.822 81.2465 32.2841C81.4397 32.7462 81.7124 33.1042 82.0647 33.358C82.4207 33.6117 82.8393 33.7386 83.3204 33.7386C83.6423 33.7386 83.934 33.6799 84.1954 33.5625C84.4605 33.4413 84.6821 33.2689 84.8601 33.0455C85.042 32.822 85.1688 32.553 85.2408 32.2386H86.8942C86.8336 32.803 86.6499 33.3068 86.3431 33.75C86.0363 34.1932 85.6253 34.5417 85.1101 34.7955C84.5988 35.0492 83.9984 35.1761 83.309 35.1761ZM89.9894 29.2727H92.5235C93.5917 29.2727 94.4136 29.5379 94.9894 30.0682C95.5652 30.5985 95.853 31.2822 95.853 32.1193C95.853 32.6648 95.7242 33.1553 95.4667 33.5909C95.2091 34.0265 94.8322 34.3712 94.336 34.625C93.8398 34.875 93.2356 35 92.5235 35H88.711V26.2727H90.3758V33.5341H92.5235C93.0121 33.5341 93.4136 33.4072 93.728 33.1534C94.0424 32.8958 94.1996 32.5682 94.1996 32.1705C94.1996 31.75 94.0424 31.4072 93.728 31.142C93.4136 30.8731 93.0121 30.7386 92.5235 30.7386H89.9894V29.2727ZM97.0917 35V26.2727H98.7905V35H97.0917ZM100.383 35L100.377 33.5284H100.69C100.932 33.5284 101.135 33.4773 101.298 33.375C101.464 33.2689 101.601 33.0909 101.707 32.8409C101.813 32.5909 101.894 32.2462 101.951 31.8068C102.008 31.3636 102.05 30.8068 102.076 30.1364L102.229 26.2727H108.32V35H106.656V27.7386H103.803L103.667 30.7045C103.633 31.4242 103.559 32.053 103.445 32.5909C103.336 33.1288 103.175 33.5777 102.962 33.9375C102.75 34.2936 102.478 34.5606 102.144 34.7386C101.811 34.9129 101.406 35 100.928 35H100.383ZM110.586 35V26.2727H112.285V29.9318H113.103L115.984 26.2727H118.086L114.705 30.517L118.126 35H116.018L113.387 31.5114H112.285V35H110.586ZM121.11 32.6193L124.957 26.2727H126.786V35H125.121V28.6477L121.292 35H119.445V26.2727H121.11V32.6193Z" fill="#AAAAAA"/>
<path d="M29.0853 20.835C29.524 20.835 29.9546 20.9505 30.3349 21.1686L30.3357 21.1678L36.1862 24.5011L36.1895 24.5036L36.329 24.5898C36.6477 24.8022 36.9143 25.0853 37.1069 25.4175C37.3268 25.797 37.4427 26.2276 37.4431 26.6659V33.3341C37.4427 33.7725 37.3268 34.203 37.1069 34.5825C36.8868 34.9621 36.5702 35.2772 36.1895 35.4964L36.1862 35.4989L30.3357 38.8322L30.3349 38.8314C29.9546 39.0494 29.524 39.165 29.0853 39.165C28.6463 39.165 28.2153 39.0497 27.8349 38.8314V38.8322L21.9844 35.4989L21.9811 35.4964C21.6004 35.2772 21.2838 34.9621 21.0637 34.5825C20.8438 34.203 20.7279 33.7725 20.7275 33.3341V26.6659L20.7332 26.5015C20.7587 26.1204 20.8714 25.7494 21.0637 25.4175C21.2837 25.038 21.6004 24.7228 21.9811 24.5036L21.9844 24.5011L27.8349 21.1678V21.1686C28.2153 20.9503 28.6463 20.835 29.0853 20.835ZM29.0853 22.5016C28.9386 22.5016 28.7944 22.54 28.6674 22.6131L28.6641 22.6147L22.8161 25.9456L22.8169 25.9465C22.69 26.0195 22.5842 26.1251 22.5108 26.2516C22.4377 26.378 22.3992 26.5215 22.399 26.6675V33.3325L22.4064 33.4416C22.4208 33.5493 22.456 33.6537 22.5108 33.7484C22.5835 33.8738 22.6882 33.9781 22.8136 34.0511L28.6641 37.3844L28.6674 37.3869C28.7944 37.46 28.9386 37.4984 29.0853 37.4984C29.2319 37.4984 29.3762 37.46 29.5032 37.3869L29.5065 37.3844L35.3569 34.0511C35.4824 33.9781 35.5871 33.8738 35.6597 33.7484C35.7328 33.6222 35.7713 33.479 35.7716 33.3333V26.6675L35.7642 26.5584C35.7499 26.4507 35.7146 26.3464 35.6597 26.2516C35.5864 26.1251 35.4806 26.0195 35.3537 25.9465V25.9456L29.5065 22.6147L29.5032 22.6131C29.3761 22.54 29.232 22.5016 29.0853 22.5016Z" fill="#AAAAAA"/>
<path d="M35.9629 25.079C36.3624 24.8486 36.8736 24.9844 37.1048 25.3825C37.3359 25.7808 37.1997 26.2905 36.8004 26.521L29.5036 30.73C29.2448 30.8791 28.9257 30.8791 28.667 30.73L21.3702 26.521C20.9709 26.2905 20.8347 25.7808 21.0657 25.3825C21.297 24.9844 21.8081 24.8486 22.2076 25.079L29.0849 29.0455L35.9629 25.079Z" fill="#AAAAAA"/>
<path d="M28.2495 38.4001V30.0001C28.2495 29.5398 28.6237 29.1667 29.0853 29.1667C29.5469 29.1667 29.9211 29.5398 29.9211 30.0001V38.4001C29.921 38.8604 29.5469 39.2335 29.0853 39.2335C28.6237 39.2335 28.2495 38.8604 28.2495 38.4001Z" fill="#AAAAAA"/>
<defs>
<linearGradient id="paint0_linear_41_3203" x1="170.5" y1="0" x2="170.5" y2="60" gradientUnits="userSpaceOnUse">
<stop stop-color="#B3B3B3"/>
<stop offset="0.519231" stop-color="#B3B3B3" stop-opacity="0.5"/>
<stop offset="0.769231" stop-color="#B3B3B3" stop-opacity="0"/>
<stop offset="1" stop-color="#B3B3B3"/>
</linearGradient>
</defs>
</svg>
