<svg width="341" height="60" viewBox="0 0 341 60" fill="none" xmlns="http://www.w3.org/2000/svg">
<rect width="341" height="60" rx="16" fill="#1A1A1A"/>
<rect x="0.25" y="0.25" width="340.5" height="59.5" rx="15.75" stroke="url(#paint0_linear_41_3202)" stroke-opacity="0.2" stroke-width="0.5"/>
<path d="M308.197 23.2929C308.588 22.9024 309.223 22.9024 309.615 23.2929L315.633 29.2929C316.024 29.6834 316.024 30.3164 315.633 30.707L309.615 36.707C309.223 37.0975 308.588 37.0975 308.197 36.707C307.805 36.3164 307.805 35.6834 308.197 35.2929L313.505 29.9999L308.197 24.707C307.805 24.3164 307.805 23.6834 308.197 23.2929Z" fill="#AAAAAA"/>
<path d="M61.0902 27.1477H59.3175C59.2493 26.7689 59.1224 26.4356 58.9368 26.1477C58.7512 25.8598 58.524 25.6155 58.255 25.4148C57.9861 25.214 57.6849 25.0625 57.3516 24.9602C57.0221 24.858 56.6717 24.8068 56.3005 24.8068C55.63 24.8068 55.0296 24.9754 54.4993 25.3125C53.9728 25.6496 53.5562 26.1439 53.2493 26.7955C52.9463 27.447 52.7948 28.2424 52.7948 29.1818C52.7948 30.1288 52.9463 30.928 53.2493 31.5795C53.5562 32.2311 53.9747 32.7235 54.505 33.0568C55.0353 33.3902 55.6319 33.5568 56.2948 33.5568C56.6622 33.5568 57.0107 33.5076 57.3402 33.4091C57.6736 33.3068 57.9747 33.1572 58.2437 32.9602C58.5126 32.7633 58.7399 32.5227 58.9255 32.2386C59.1149 31.9508 59.2455 31.6212 59.3175 31.25L61.0902 31.2557C60.9955 31.8277 60.8118 32.3542 60.5391 32.8352C60.2702 33.3125 59.9236 33.7254 59.4993 34.0739C59.0789 34.4186 58.5978 34.6856 58.0562 34.875C57.5145 35.0644 56.9236 35.1591 56.2834 35.1591C55.2759 35.1591 54.3781 34.9205 53.5902 34.4432C52.8024 33.9621 52.1812 33.2746 51.7266 32.3807C51.2759 31.4867 51.0505 30.4205 51.0505 29.1818C51.0505 27.9394 51.2777 26.8731 51.7323 25.983C52.1868 25.089 52.808 24.4034 53.5959 23.9261C54.3838 23.4451 55.2796 23.2045 56.2834 23.2045C56.9009 23.2045 57.4766 23.2936 58.0107 23.4716C58.5486 23.6458 59.0315 23.9034 59.4596 24.2443C59.8876 24.5814 60.2418 24.9943 60.5221 25.483C60.8024 25.9678 60.9918 26.5227 61.0902 27.1477ZM66.7309 35.1761C65.9127 35.1761 65.1987 34.9886 64.5888 34.6136C63.979 34.2386 63.5055 33.714 63.1684 33.0398C62.8312 32.3655 62.6627 31.5777 62.6627 30.6761C62.6627 29.7708 62.8312 28.9792 63.1684 28.3011C63.5055 27.6231 63.979 27.0966 64.5888 26.7216C65.1987 26.3466 65.9127 26.1591 66.7309 26.1591C67.5491 26.1591 68.2631 26.3466 68.8729 26.7216C69.4828 27.0966 69.9562 27.6231 70.2934 28.3011C70.6305 28.9792 70.7991 29.7708 70.7991 30.6761C70.7991 31.5777 70.6305 32.3655 70.2934 33.0398C69.9562 33.714 69.4828 34.2386 68.8729 34.6136C68.2631 34.9886 67.5491 35.1761 66.7309 35.1761ZM66.7366 33.75C67.2669 33.75 67.7063 33.6098 68.0547 33.3295C68.4032 33.0492 68.6608 32.6761 68.8275 32.2102C68.9979 31.7443 69.0831 31.2311 69.0831 30.6705C69.0831 30.1136 68.9979 29.6023 68.8275 29.1364C68.6608 28.6667 68.4032 28.2898 68.0547 28.0057C67.7063 27.7216 67.2669 27.5795 66.7366 27.5795C66.2025 27.5795 65.7593 27.7216 65.407 28.0057C65.0585 28.2898 64.7991 28.6667 64.6286 29.1364C64.4619 29.6023 64.3786 30.1136 64.3786 30.6705C64.3786 31.2311 64.4619 31.7443 64.6286 32.2102C64.7991 32.6761 65.0585 33.0492 65.407 33.3295C65.7593 33.6098 66.2025 33.75 66.7366 33.75ZM72.1783 32.6932H73.917C73.9397 33.0492 74.1007 33.3239 74.3999 33.517C74.7029 33.7102 75.095 33.8068 75.576 33.8068C76.0647 33.8068 76.4813 33.7027 76.826 33.4943C77.1707 33.2822 77.3431 32.9545 77.3431 32.5114C77.3431 32.2462 77.2768 32.0152 77.1442 31.8182C77.0154 31.6174 76.8317 31.4621 76.5931 31.3523C76.3582 31.2424 76.0798 31.1875 75.7579 31.1875H74.3374V29.8523H75.7579C76.2389 29.8523 76.5988 29.7424 76.8374 29.5227C77.076 29.303 77.1954 29.0284 77.1954 28.6989C77.1954 28.3428 77.0666 28.0568 76.809 27.8409C76.5552 27.6212 76.201 27.5114 75.7465 27.5114C75.2844 27.5114 74.8999 27.6155 74.5931 27.8239C74.2863 28.0284 74.1253 28.2936 74.1101 28.6193H72.3942C72.4056 28.1307 72.5533 27.7027 72.8374 27.3352C73.1253 26.964 73.5116 26.6761 73.9965 26.4716C74.4851 26.2633 75.0401 26.1591 75.6613 26.1591C76.309 26.1591 76.8696 26.2633 77.3431 26.4716C77.8166 26.6799 78.1821 26.9678 78.4397 27.3352C78.701 27.7027 78.8317 28.125 78.8317 28.6023C78.8317 29.0833 78.6878 29.4773 78.3999 29.7841C78.1158 30.0871 77.7446 30.3049 77.2863 30.4375V30.5284C77.6234 30.5511 77.9226 30.6534 78.184 30.8352C78.4454 31.017 78.6499 31.2576 78.7976 31.5568C78.9454 31.8561 79.0192 32.1951 79.0192 32.5739C79.0192 33.108 78.8715 33.5701 78.576 33.9602C78.2844 34.3504 77.8791 34.6515 77.3601 34.8636C76.845 35.072 76.256 35.1761 75.5931 35.1761C74.9491 35.1761 74.3715 35.0758 73.8601 34.875C73.3526 34.6705 72.9491 34.3826 72.6499 34.0114C72.3545 33.6402 72.1973 33.2008 72.1783 32.6932ZM79.9212 37.517V33.5284H80.6314C80.8133 33.3617 80.9667 33.1629 81.0917 32.9318C81.2205 32.7008 81.3284 32.4261 81.4155 32.108C81.5064 31.7898 81.5822 31.4186 81.6428 30.9943C81.7034 30.5663 81.7564 30.0777 81.8019 29.5284L82.0746 26.2727H88.0064V33.5284H89.3473V37.517H87.6883V35H81.603V37.517H79.9212ZM82.4496 33.5284H86.3473V27.7273H83.5973L83.4155 29.5284C83.3284 30.4451 83.2186 31.2405 83.086 31.9148C82.9534 32.5852 82.7413 33.1231 82.4496 33.5284ZM93.5476 35.1932C92.9946 35.1932 92.4946 35.0909 92.0476 34.8864C91.6007 34.678 91.2465 34.3769 90.9851 33.983C90.7276 33.589 90.5988 33.1061 90.5988 32.5341C90.5988 32.0417 90.6935 31.6364 90.8829 31.3182C91.0723 31 91.3279 30.7481 91.6499 30.5625C91.9719 30.3769 92.3317 30.2367 92.7295 30.142C93.1272 30.0473 93.5325 29.9754 93.9454 29.9261C94.4681 29.8655 94.8923 29.8163 95.2181 29.7784C95.5438 29.7367 95.7806 29.6705 95.9283 29.5795C96.076 29.4886 96.1499 29.3409 96.1499 29.1364V29.0966C96.1499 28.6004 96.0098 28.2159 95.7295 27.9432C95.4529 27.6705 95.0401 27.5341 94.4908 27.5341C93.9188 27.5341 93.4681 27.661 93.1385 27.9148C92.8128 28.1648 92.5874 28.4432 92.4624 28.75L90.8658 28.3864C91.0552 27.8561 91.3317 27.428 91.6954 27.1023C92.0628 26.7727 92.4851 26.5341 92.9624 26.3864C93.4397 26.2348 93.9416 26.1591 94.4681 26.1591C94.8166 26.1591 95.1859 26.2008 95.576 26.2841C95.97 26.3636 96.3374 26.5114 96.6783 26.7273C97.023 26.9432 97.3052 27.2519 97.5249 27.6534C97.7446 28.0511 97.8545 28.5682 97.8545 29.2045V35H96.1954V33.8068H96.1272C96.0173 34.0265 95.8526 34.2424 95.6329 34.4545C95.4132 34.6667 95.131 34.8428 94.7863 34.983C94.4416 35.1231 94.0287 35.1932 93.5476 35.1932ZM93.917 33.8295C94.3866 33.8295 94.7882 33.7367 95.1215 33.5511C95.4586 33.3655 95.7143 33.1231 95.8885 32.8239C96.0666 32.5208 96.1556 32.197 96.1556 31.8523V30.7273C96.095 30.7879 95.9776 30.8447 95.8033 30.8977C95.6329 30.947 95.4378 30.9905 95.2181 31.0284C94.9984 31.0625 94.7844 31.0947 94.576 31.125C94.3677 31.1515 94.1935 31.1742 94.0533 31.1932C93.7238 31.2348 93.4226 31.3049 93.1499 31.4034C92.881 31.5019 92.6651 31.6439 92.5022 31.8295C92.3431 32.0114 92.2635 32.2538 92.2635 32.5568C92.2635 32.9773 92.4188 33.2955 92.7295 33.5114C93.0401 33.7235 93.4359 33.8295 93.917 33.8295ZM106.032 29.9034V31.375H101.305V29.9034H106.032ZM101.782 26.2727V35H100.117V26.2727H101.782ZM107.22 26.2727V35H105.56V26.2727H107.22ZM111.157 32.6193L115.004 26.2727H116.833V35H115.168V28.6477L111.339 35H109.492V26.2727H111.157V32.6193ZM122.879 35.1761C122.019 35.1761 121.278 34.9924 120.657 34.625C120.04 34.2538 119.562 33.733 119.225 33.0625C118.892 32.3883 118.725 31.5985 118.725 30.6932C118.725 29.7992 118.892 29.0114 119.225 28.3295C119.562 27.6477 120.032 27.1155 120.634 26.733C121.24 26.3504 121.949 26.1591 122.759 26.1591C123.252 26.1591 123.729 26.2405 124.191 26.4034C124.653 26.5663 125.068 26.822 125.435 27.1705C125.803 27.5189 126.093 27.9716 126.305 28.5284C126.517 29.0814 126.623 29.7538 126.623 30.5455V31.1477H119.685V29.875H124.958C124.958 29.428 124.867 29.0322 124.685 28.6875C124.504 28.339 124.248 28.0644 123.918 27.8636C123.593 27.6629 123.21 27.5625 122.771 27.5625C122.293 27.5625 121.877 27.6799 121.521 27.9148C121.168 28.1458 120.896 28.4489 120.702 28.8239C120.513 29.1951 120.418 29.5985 120.418 30.0341V31.0284C120.418 31.6117 120.521 32.108 120.725 32.517C120.934 32.9261 121.223 33.2386 121.595 33.4545C121.966 33.6667 122.399 33.7727 122.896 33.7727C123.218 33.7727 123.511 33.7273 123.776 33.6364C124.041 33.5417 124.271 33.4015 124.464 33.2159C124.657 33.0303 124.805 32.8011 124.907 32.5284L126.515 32.8182C126.386 33.2917 126.155 33.7064 125.822 34.0625C125.492 34.4148 125.077 34.6894 124.577 34.8864C124.081 35.0795 123.515 35.1761 122.879 35.1761ZM132.742 35V26.2727H139.862V35H138.197V27.7386H134.396V35H132.742ZM143.798 32.6193L147.644 26.2727H149.474V35H147.809V28.6477L143.979 35H142.133V26.2727H143.798V32.6193ZM151.758 35V26.2727H153.457V29.9318H154.275L157.156 26.2727H159.258L155.877 30.517L159.298 35H157.19L154.559 31.5114H153.457V35H151.758ZM167.623 26.2727V35H165.964V26.2727H167.623ZM166.901 30.3239V31.7898C166.64 31.8958 166.363 31.9905 166.072 32.0739C165.78 32.1534 165.473 32.2159 165.151 32.2614C164.829 32.3068 164.494 32.3295 164.146 32.3295C163.066 32.3295 162.208 32.0663 161.572 31.5398C160.935 31.0095 160.617 30.1989 160.617 29.108V26.2557H162.271V29.108C162.271 29.5208 162.346 29.8561 162.498 30.1136C162.649 30.3712 162.865 30.5606 163.146 30.6818C163.426 30.803 163.759 30.8636 164.146 30.8636C164.657 30.8636 165.129 30.8163 165.56 30.7216C165.996 30.6231 166.443 30.4905 166.901 30.3239Z" fill="#AAAAAA"/>
<path d="M29.0853 20.835C29.524 20.835 29.9546 20.9505 30.3349 21.1686L30.3357 21.1678L36.1862 24.5011L36.1895 24.5036L36.329 24.5898C36.6477 24.8022 36.9143 25.0853 37.1069 25.4175C37.3268 25.797 37.4427 26.2276 37.4431 26.6659V33.3341C37.4427 33.7725 37.3268 34.203 37.1069 34.5825C36.8868 34.9621 36.5702 35.2772 36.1895 35.4964L36.1862 35.4989L30.3357 38.8322L30.3349 38.8314C29.9546 39.0494 29.524 39.165 29.0853 39.165C28.6463 39.165 28.2153 39.0497 27.8349 38.8314V38.8322L21.9844 35.4989L21.9811 35.4964C21.6004 35.2772 21.2838 34.9621 21.0637 34.5825C20.8438 34.203 20.7279 33.7725 20.7275 33.3341V26.6659L20.7332 26.5015C20.7587 26.1204 20.8714 25.7494 21.0637 25.4175C21.2837 25.038 21.6004 24.7228 21.9811 24.5036L21.9844 24.5011L27.8349 21.1678V21.1686C28.2153 20.9503 28.6463 20.835 29.0853 20.835ZM29.0853 22.5016C28.9386 22.5016 28.7944 22.54 28.6674 22.6131L28.6641 22.6147L22.8161 25.9456L22.8169 25.9465C22.69 26.0195 22.5842 26.1251 22.5108 26.2516C22.4377 26.378 22.3992 26.5215 22.399 26.6675V33.3325L22.4064 33.4416C22.4208 33.5493 22.456 33.6537 22.5108 33.7484C22.5835 33.8738 22.6882 33.9781 22.8136 34.0511L28.6641 37.3844L28.6674 37.3869C28.7944 37.46 28.9386 37.4984 29.0853 37.4984C29.2319 37.4984 29.3762 37.46 29.5032 37.3869L29.5065 37.3844L35.3569 34.0511C35.4824 33.9781 35.5871 33.8738 35.6597 33.7484C35.7328 33.6222 35.7713 33.479 35.7716 33.3333V26.6675L35.7642 26.5584C35.7499 26.4507 35.7146 26.3464 35.6597 26.2516C35.5864 26.1251 35.4806 26.0195 35.3537 25.9465V25.9456L29.5065 22.6147L29.5032 22.6131C29.3761 22.54 29.232 22.5016 29.0853 22.5016Z" fill="#AAAAAA"/>
<path d="M35.9629 25.079C36.3624 24.8486 36.8736 24.9844 37.1048 25.3825C37.3359 25.7808 37.1997 26.2905 36.8004 26.521L29.5036 30.73C29.2448 30.8791 28.9257 30.8791 28.667 30.73L21.3702 26.521C20.9709 26.2905 20.8347 25.7808 21.0657 25.3825C21.297 24.9844 21.8081 24.8486 22.2076 25.079L29.0849 29.0455L35.9629 25.079Z" fill="#AAAAAA"/>
<path d="M28.2495 38.4001V30.0001C28.2495 29.5398 28.6237 29.1667 29.0853 29.1667C29.5469 29.1667 29.9211 29.5398 29.9211 30.0001V38.4001C29.921 38.8604 29.5469 39.2335 29.0853 39.2335C28.6237 39.2335 28.2495 38.8604 28.2495 38.4001Z" fill="#AAAAAA"/>
<defs>
<linearGradient id="paint0_linear_41_3202" x1="170.5" y1="0" x2="170.5" y2="60" gradientUnits="userSpaceOnUse">
<stop stop-color="#B3B3B3"/>
<stop offset="0.519231" stop-color="#B3B3B3" stop-opacity="0.5"/>
<stop offset="0.769231" stop-color="#B3B3B3" stop-opacity="0"/>
<stop offset="1" stop-color="#B3B3B3"/>
</linearGradient>
</defs>
</svg>
