<svg width="341" height="60" viewBox="0 0 341 60" fill="none" xmlns="http://www.w3.org/2000/svg">
<rect width="341" height="60" rx="16" fill="#1A1A1A"/>
<rect x="0.25" y="0.25" width="340.5" height="59.5" rx="15.75" stroke="url(#paint0_linear_41_3204)" stroke-opacity="0.2" stroke-width="0.5"/>
<path d="M308.197 23.2929C308.588 22.9024 309.223 22.9024 309.615 23.2929L315.633 29.2929C316.024 29.6834 316.024 30.3164 315.633 30.707L309.615 36.707C309.223 37.0975 308.588 37.0975 308.197 36.707C307.805 36.3164 307.805 35.6834 308.197 35.2929L313.505 29.9999L308.197 24.707C307.805 24.3164 307.805 23.6834 308.197 23.2929Z" fill="#AAAAAA"/>
<path d="M51.4255 35V23.3636H58.6812V24.875H53.1812V28.0568H55.7834C56.6471 28.0568 57.38 28.197 57.9823 28.4773C58.5884 28.7576 59.0505 29.1534 59.3687 29.6648C59.6906 30.1761 59.8516 30.7784 59.8516 31.4716C59.8516 32.1648 59.6906 32.7765 59.3687 33.3068C59.0505 33.8371 58.5884 34.2519 57.9823 34.5511C57.38 34.8504 56.6471 35 55.7834 35H51.4255ZM53.1812 33.5227H55.7834C56.2834 33.5227 56.7058 33.4242 57.0505 33.2273C57.399 33.0303 57.6622 32.7746 57.8402 32.4602C58.0221 32.1458 58.113 31.8087 58.113 31.4489C58.113 30.9261 57.9122 30.4773 57.5107 30.1023C57.1092 29.7235 56.5334 29.5341 55.7834 29.5341H53.1812V33.5227ZM64.3289 35.1932C63.7759 35.1932 63.2759 35.0909 62.8289 34.8864C62.3819 34.678 62.0277 34.3769 61.7664 33.983C61.5088 33.589 61.38 33.1061 61.38 32.5341C61.38 32.0417 61.4747 31.6364 61.6641 31.3182C61.8535 31 62.1092 30.7481 62.4312 30.5625C62.7531 30.3769 63.113 30.2367 63.5107 30.142C63.9084 30.0473 64.3137 29.9754 64.7266 29.9261C65.2493 29.8655 65.6736 29.8163 65.9993 29.7784C66.3251 29.7367 66.5618 29.6705 66.7096 29.5795C66.8573 29.4886 66.9312 29.3409 66.9312 29.1364V29.0966C66.9312 28.6004 66.791 28.2159 66.5107 27.9432C66.2342 27.6705 65.8213 27.5341 65.2721 27.5341C64.7001 27.5341 64.2493 27.661 63.9198 27.9148C63.594 28.1648 63.3687 28.4432 63.2437 28.75L61.6471 28.3864C61.8365 27.8561 62.113 27.428 62.4766 27.1023C62.844 26.7727 63.2664 26.5341 63.7437 26.3864C64.2209 26.2348 64.7228 26.1591 65.2493 26.1591C65.5978 26.1591 65.9671 26.2008 66.3573 26.2841C66.7512 26.3636 67.1187 26.5114 67.4596 26.7273C67.8043 26.9432 68.0865 27.2519 68.3062 27.6534C68.5259 28.0511 68.6357 28.5682 68.6357 29.2045V35H66.9766V33.8068H66.9084C66.7986 34.0265 66.6338 34.2424 66.4141 34.4545C66.1944 34.6667 65.9122 34.8428 65.5675 34.983C65.2228 35.1231 64.8099 35.1932 64.3289 35.1932ZM64.6982 33.8295C65.1679 33.8295 65.5694 33.7367 65.9027 33.5511C66.2399 33.3655 66.4955 33.1231 66.6698 32.8239C66.8478 32.5208 66.9368 32.197 66.9368 31.8523V30.7273C66.8762 30.7879 66.7588 30.8447 66.5846 30.8977C66.4141 30.947 66.219 30.9905 65.9993 31.0284C65.7796 31.0625 65.5656 31.0947 65.3573 31.125C65.149 31.1515 64.9747 31.1742 64.8346 31.1932C64.505 31.2348 64.2039 31.3049 63.9312 31.4034C63.6622 31.5019 63.4463 31.6439 63.2834 31.8295C63.1243 32.0114 63.0448 32.2538 63.0448 32.5568C63.0448 32.9773 63.2001 33.2955 63.5107 33.5114C63.8213 33.7235 64.2171 33.8295 64.6982 33.8295ZM70.3814 32.6932H72.1201C72.1428 33.0492 72.3038 33.3239 72.603 33.517C72.9061 33.7102 73.2981 33.8068 73.7792 33.8068C74.2678 33.8068 74.6845 33.7027 75.0292 33.4943C75.3739 33.2822 75.5462 32.9545 75.5462 32.5114C75.5462 32.2462 75.4799 32.0152 75.3473 31.8182C75.2186 31.6174 75.0348 31.4621 74.7962 31.3523C74.5614 31.2424 74.283 31.1875 73.961 31.1875H72.5405V29.8523H73.961C74.442 29.8523 74.8019 29.7424 75.0405 29.5227C75.2792 29.303 75.3985 29.0284 75.3985 28.6989C75.3985 28.3428 75.2697 28.0568 75.0121 27.8409C74.7583 27.6212 74.4042 27.5114 73.9496 27.5114C73.4875 27.5114 73.103 27.6155 72.7962 27.8239C72.4894 28.0284 72.3284 28.2936 72.3133 28.6193H70.5973C70.6087 28.1307 70.7564 27.7027 71.0405 27.3352C71.3284 26.964 71.7148 26.6761 72.1996 26.4716C72.6883 26.2633 73.2432 26.1591 73.8644 26.1591C74.5121 26.1591 75.0727 26.2633 75.5462 26.4716C76.0197 26.6799 76.3852 26.9678 76.6428 27.3352C76.9042 27.7027 77.0348 28.125 77.0348 28.6023C77.0348 29.0833 76.8909 29.4773 76.603 29.7841C76.3189 30.0871 75.9477 30.3049 75.4894 30.4375V30.5284C75.8265 30.5511 76.1258 30.6534 76.3871 30.8352C76.6485 31.017 76.853 31.2576 77.0008 31.5568C77.1485 31.8561 77.2223 32.1951 77.2223 32.5739C77.2223 33.108 77.0746 33.5701 76.7792 33.9602C76.4875 34.3504 76.0822 34.6515 75.5633 34.8636C75.0481 35.072 74.4591 35.1761 73.7962 35.1761C73.1523 35.1761 72.5746 35.0758 72.0633 34.875C71.5557 34.6705 71.1523 34.3826 70.853 34.0114C70.5576 33.6402 70.4004 33.2008 70.3814 32.6932ZM80.255 29.2727H82.7891C83.8573 29.2727 84.6793 29.5379 85.255 30.0682C85.8308 30.5985 86.1187 31.2822 86.1187 32.1193C86.1187 32.6648 85.9899 33.1553 85.7323 33.5909C85.4747 34.0265 85.0978 34.3712 84.6016 34.625C84.1054 34.875 83.5012 35 82.7891 35H78.9766V26.2727H80.6414V33.5341H82.7891C83.2777 33.5341 83.6793 33.4072 83.9937 33.1534C84.308 32.8958 84.4652 32.5682 84.4652 32.1705C84.4652 31.75 84.308 31.4072 83.9937 31.142C83.6793 30.8731 83.2777 30.7386 82.7891 30.7386H80.255V29.2727ZM87.3573 35V26.2727H89.0562V35H87.3573ZM94.7181 37.517V33.5284H95.4283C95.6101 33.3617 95.7635 33.1629 95.8885 32.9318C96.0173 32.7008 96.1253 32.4261 96.2124 32.108C96.3033 31.7898 96.3791 31.4186 96.4397 30.9943C96.5003 30.5663 96.5533 30.0777 96.5988 29.5284L96.8715 26.2727H102.803V33.5284H104.144V37.517H102.485V35H96.3999V37.517H94.7181ZM97.2465 33.5284H101.144V27.7273H98.3942L98.2124 29.5284C98.1253 30.4451 98.0154 31.2405 97.8829 31.9148C97.7503 32.5852 97.5382 33.1231 97.2465 33.5284ZM108.345 35.1932C107.791 35.1932 107.291 35.0909 106.845 34.8864C106.398 34.678 106.043 34.3769 105.782 33.983C105.524 33.589 105.396 33.1061 105.396 32.5341C105.396 32.0417 105.49 31.6364 105.68 31.3182C105.869 31 106.125 30.7481 106.447 30.5625C106.769 30.3769 107.129 30.2367 107.526 30.142C107.924 30.0473 108.329 29.9754 108.742 29.9261C109.265 29.8655 109.689 29.8163 110.015 29.7784C110.341 29.7367 110.577 29.6705 110.725 29.5795C110.873 29.4886 110.947 29.3409 110.947 29.1364V29.0966C110.947 28.6004 110.807 28.2159 110.526 27.9432C110.25 27.6705 109.837 27.5341 109.288 27.5341C108.716 27.5341 108.265 27.661 107.935 27.9148C107.61 28.1648 107.384 28.4432 107.259 28.75L105.663 28.3864C105.852 27.8561 106.129 27.428 106.492 27.1023C106.86 26.7727 107.282 26.5341 107.759 26.3864C108.237 26.2348 108.738 26.1591 109.265 26.1591C109.613 26.1591 109.983 26.2008 110.373 26.2841C110.767 26.3636 111.134 26.5114 111.475 26.7273C111.82 26.9432 112.102 27.2519 112.322 27.6534C112.541 28.0511 112.651 28.5682 112.651 29.2045V35H110.992V33.8068H110.924C110.814 34.0265 110.649 34.2424 110.43 34.4545C110.21 34.6667 109.928 34.8428 109.583 34.983C109.238 35.1231 108.826 35.1932 108.345 35.1932ZM108.714 33.8295C109.184 33.8295 109.585 33.7367 109.918 33.5511C110.255 33.3655 110.511 33.1231 110.685 32.8239C110.863 32.5208 110.952 32.197 110.952 31.8523V30.7273C110.892 30.7879 110.774 30.8447 110.6 30.8977C110.43 30.947 110.235 30.9905 110.015 31.0284C109.795 31.0625 109.581 31.0947 109.373 31.125C109.165 31.1515 108.99 31.1742 108.85 31.1932C108.521 31.2348 108.22 31.3049 107.947 31.4034C107.678 31.5019 107.462 31.6439 107.299 31.8295C107.14 32.0114 107.06 32.2538 107.06 32.5568C107.06 32.9773 107.216 33.2955 107.526 33.5114C107.837 33.7235 108.233 33.8295 108.714 33.8295ZM120.829 29.9034V31.375H116.102V29.9034H120.829ZM116.579 26.2727V35H114.914V26.2727H116.579ZM122.016 26.2727V35H120.357V26.2727H122.016ZM130.204 29.9034V31.375H125.477V29.9034H130.204ZM125.954 26.2727V35H124.289V26.2727H125.954ZM131.391 26.2727V35H129.732V26.2727H131.391ZM134.943 29.2727H137.477C138.545 29.2727 139.367 29.5379 139.943 30.0682C140.518 30.5985 140.806 31.2822 140.806 32.1193C140.806 32.6648 140.677 33.1553 140.42 33.5909C140.162 34.0265 139.785 34.3712 139.289 34.625C138.793 34.875 138.189 35 137.477 35H133.664V26.2727H135.329V33.5341H137.477C137.965 33.5341 138.367 33.4072 138.681 33.1534C138.996 32.8958 139.153 32.5682 139.153 32.1705C139.153 31.75 138.996 31.4072 138.681 31.142C138.367 30.8731 137.965 30.7386 137.477 30.7386H134.943V29.2727ZM142.045 35V26.2727H143.744V35H142.045ZM147.364 26.2727L149.291 29.6705L151.234 26.2727H153.092L150.37 30.6364L153.114 35H151.256L149.291 31.7386L147.33 35H145.467L148.183 30.6364L145.501 26.2727H147.364Z" fill="#AAAAAA"/>
<path d="M29.0853 20.835C29.524 20.835 29.9546 20.9505 30.3349 21.1686L30.3357 21.1678L36.1862 24.5011L36.1895 24.5036L36.329 24.5898C36.6477 24.8022 36.9143 25.0853 37.1069 25.4175C37.3268 25.797 37.4427 26.2276 37.4431 26.6659V33.3341C37.4427 33.7725 37.3268 34.203 37.1069 34.5825C36.8868 34.9621 36.5702 35.2772 36.1895 35.4964L36.1862 35.4989L30.3357 38.8322L30.3349 38.8314C29.9546 39.0494 29.524 39.165 29.0853 39.165C28.6463 39.165 28.2153 39.0497 27.8349 38.8314V38.8322L21.9844 35.4989L21.9811 35.4964C21.6004 35.2772 21.2838 34.9621 21.0637 34.5825C20.8438 34.203 20.7279 33.7725 20.7275 33.3341V26.6659L20.7332 26.5015C20.7587 26.1204 20.8714 25.7494 21.0637 25.4175C21.2837 25.038 21.6004 24.7228 21.9811 24.5036L21.9844 24.5011L27.8349 21.1678V21.1686C28.2153 20.9503 28.6463 20.835 29.0853 20.835ZM29.0853 22.5016C28.9386 22.5016 28.7944 22.54 28.6674 22.6131L28.6641 22.6147L22.8161 25.9456L22.8169 25.9465C22.69 26.0195 22.5842 26.1251 22.5108 26.2516C22.4377 26.378 22.3992 26.5215 22.399 26.6675V33.3325L22.4064 33.4416C22.4208 33.5493 22.456 33.6537 22.5108 33.7484C22.5835 33.8738 22.6882 33.9781 22.8136 34.0511L28.6641 37.3844L28.6674 37.3869C28.7944 37.46 28.9386 37.4984 29.0853 37.4984C29.2319 37.4984 29.3762 37.46 29.5032 37.3869L29.5065 37.3844L35.3569 34.0511C35.4824 33.9781 35.5871 33.8738 35.6597 33.7484C35.7328 33.6222 35.7713 33.479 35.7716 33.3333V26.6675L35.7642 26.5584C35.7499 26.4507 35.7146 26.3464 35.6597 26.2516C35.5864 26.1251 35.4806 26.0195 35.3537 25.9465V25.9456L29.5065 22.6147L29.5032 22.6131C29.3761 22.54 29.232 22.5016 29.0853 22.5016Z" fill="#AAAAAA"/>
<path d="M35.9629 25.079C36.3624 24.8486 36.8736 24.9844 37.1048 25.3825C37.3359 25.7808 37.1997 26.2905 36.8004 26.521L29.5036 30.73C29.2448 30.8791 28.9257 30.8791 28.667 30.73L21.3702 26.521C20.9709 26.2905 20.8347 25.7808 21.0657 25.3825C21.297 24.9844 21.8081 24.8486 22.2076 25.079L29.0849 29.0455L35.9629 25.079Z" fill="#AAAAAA"/>
<path d="M28.2495 38.4001V30.0001C28.2495 29.5398 28.6237 29.1667 29.0853 29.1667C29.5469 29.1667 29.9211 29.5398 29.9211 30.0001V38.4001C29.921 38.8604 29.5469 39.2335 29.0853 39.2335C28.6237 39.2335 28.2495 38.8604 28.2495 38.4001Z" fill="#AAAAAA"/>
<defs>
<linearGradient id="paint0_linear_41_3204" x1="170.5" y1="0" x2="170.5" y2="60" gradientUnits="userSpaceOnUse">
<stop stop-color="#B3B3B3"/>
<stop offset="0.519231" stop-color="#B3B3B3" stop-opacity="0.5"/>
<stop offset="0.769231" stop-color="#B3B3B3" stop-opacity="0"/>
<stop offset="1" stop-color="#B3B3B3"/>
</linearGradient>
</defs>
</svg>
