<svg width="341" height="60" viewBox="0 0 341 60" fill="none" xmlns="http://www.w3.org/2000/svg">
<rect width="341" height="60" rx="16" fill="#1A1A1A"/>
<rect x="0.25" y="0.25" width="340.5" height="59.5" rx="15.75" stroke="url(#paint0_linear_41_3201)" stroke-opacity="0.2" stroke-width="0.5"/>
<path d="M308.197 23.2929C308.588 22.9024 309.223 22.9024 309.615 23.2929L315.633 29.2929C316.024 29.6834 316.024 30.3164 315.633 30.707L309.615 36.707C309.223 37.0975 308.588 37.0975 308.197 36.707C307.805 36.3164 307.805 35.6834 308.197 35.2929L313.505 29.9999L308.197 24.707C307.805 24.3164 307.805 23.6834 308.197 23.2929Z" fill="#AAAAAA"/>
<path d="M61.0902 27.1477H59.3175C59.2493 26.7689 59.1224 26.4356 58.9368 26.1477C58.7512 25.8598 58.524 25.6155 58.255 25.4148C57.9861 25.214 57.6849 25.0625 57.3516 24.9602C57.0221 24.858 56.6717 24.8068 56.3005 24.8068C55.63 24.8068 55.0296 24.9754 54.4993 25.3125C53.9728 25.6496 53.5562 26.1439 53.2493 26.7955C52.9463 27.447 52.7948 28.2424 52.7948 29.1818C52.7948 30.1288 52.9463 30.928 53.2493 31.5795C53.5562 32.2311 53.9747 32.7235 54.505 33.0568C55.0353 33.3902 55.6319 33.5568 56.2948 33.5568C56.6622 33.5568 57.0107 33.5076 57.3402 33.4091C57.6736 33.3068 57.9747 33.1572 58.2437 32.9602C58.5126 32.7633 58.7399 32.5227 58.9255 32.2386C59.1149 31.9508 59.2455 31.6212 59.3175 31.25L61.0902 31.2557C60.9955 31.8277 60.8118 32.3542 60.5391 32.8352C60.2702 33.3125 59.9236 33.7254 59.4993 34.0739C59.0789 34.4186 58.5978 34.6856 58.0562 34.875C57.5145 35.0644 56.9236 35.1591 56.2834 35.1591C55.2759 35.1591 54.3781 34.9205 53.5902 34.4432C52.8024 33.9621 52.1812 33.2746 51.7266 32.3807C51.2759 31.4867 51.0505 30.4205 51.0505 29.1818C51.0505 27.9394 51.2777 26.8731 51.7323 25.983C52.1868 25.089 52.808 24.4034 53.5959 23.9261C54.3838 23.4451 55.2796 23.2045 56.2834 23.2045C56.9009 23.2045 57.4766 23.2936 58.0107 23.4716C58.5486 23.6458 59.0315 23.9034 59.4596 24.2443C59.8876 24.5814 60.2418 24.9943 60.5221 25.483C60.8024 25.9678 60.9918 26.5227 61.0902 27.1477ZM63.0547 35V26.2727H70.1741V35H68.5093V27.7386H64.7081V35H63.0547ZM74.1101 32.6193L77.9567 26.2727H79.7863V35H78.1215V28.6477L74.292 35H72.4454V26.2727H74.1101V32.6193ZM85.7465 35.1761C84.9018 35.1761 84.1745 34.9848 83.5647 34.6023C82.9586 34.2159 82.4927 33.6837 82.167 33.0057C81.8412 32.3277 81.6783 31.5511 81.6783 30.6761C81.6783 29.7898 81.845 29.0076 82.1783 28.3295C82.5116 27.6477 82.9813 27.1155 83.5874 26.733C84.1935 26.3504 84.9075 26.1591 85.7295 26.1591C86.3923 26.1591 86.9832 26.2822 87.5022 26.5284C88.0211 26.7708 88.4397 27.1117 88.7579 27.5511C89.0798 27.9905 89.2711 28.5038 89.3317 29.0909H87.6783C87.5874 28.6818 87.3791 28.3295 87.0533 28.0341C86.7313 27.7386 86.2995 27.5909 85.7579 27.5909C85.2844 27.5909 84.8696 27.7159 84.5135 27.9659C84.1613 28.2121 83.8866 28.5644 83.6897 29.0227C83.4927 29.4773 83.3942 30.0152 83.3942 30.6364C83.3942 31.2727 83.4908 31.822 83.684 32.2841C83.8772 32.7462 84.1499 33.1042 84.5022 33.358C84.8582 33.6117 85.2768 33.7386 85.7579 33.7386C86.0798 33.7386 86.3715 33.6799 86.6329 33.5625C86.898 33.4413 87.1196 33.2689 87.2976 33.0455C87.4795 32.822 87.6063 32.553 87.6783 32.2386H89.3317C89.2711 32.803 89.0874 33.3068 88.7806 33.75C88.4738 34.1932 88.0628 34.5417 87.5476 34.7955C87.0363 35.0492 86.4359 35.1761 85.7465 35.1761ZM94.8246 35.1761C94.0064 35.1761 93.2924 34.9886 92.6826 34.6136C92.0727 34.2386 91.5992 33.714 91.2621 33.0398C90.925 32.3655 90.7564 31.5777 90.7564 30.6761C90.7564 29.7708 90.925 28.9792 91.2621 28.3011C91.5992 27.6231 92.0727 27.0966 92.6826 26.7216C93.2924 26.3466 94.0064 26.1591 94.8246 26.1591C95.6428 26.1591 96.3568 26.3466 96.9667 26.7216C97.5765 27.0966 98.05 27.6231 98.3871 28.3011C98.7242 28.9792 98.8928 29.7708 98.8928 30.6761C98.8928 31.5777 98.7242 32.3655 98.3871 33.0398C98.05 33.714 97.5765 34.2386 96.9667 34.6136C96.3568 34.9886 95.6428 35.1761 94.8246 35.1761ZM94.8303 33.75C95.3606 33.75 95.8 33.6098 96.1485 33.3295C96.497 33.0492 96.7545 32.6761 96.9212 32.2102C97.0917 31.7443 97.1769 31.2311 97.1769 30.6705C97.1769 30.1136 97.0917 29.6023 96.9212 29.1364C96.7545 28.6667 96.497 28.2898 96.1485 28.0057C95.8 27.7216 95.3606 27.5795 94.8303 27.5795C94.2962 27.5795 93.853 27.7216 93.5008 28.0057C93.1523 28.2898 92.8928 28.6667 92.7223 29.1364C92.5557 29.6023 92.4723 30.1136 92.4723 30.6705C92.4723 31.2311 92.5557 31.7443 92.7223 32.2102C92.8928 32.6761 93.1523 33.0492 93.5008 33.3295C93.853 33.6098 94.2962 33.75 94.8303 33.75ZM100.789 35V26.2727H102.488V29.9318H103.306L106.187 26.2727H108.289L104.908 30.517L108.329 35H106.221L103.59 31.5114H102.488V35H100.789ZM116.423 35.1932C115.87 35.1932 115.37 35.0909 114.923 34.8864C114.476 34.678 114.121 34.3769 113.86 33.983C113.603 33.589 113.474 33.1061 113.474 32.5341C113.474 32.0417 113.568 31.6364 113.758 31.3182C113.947 31 114.203 30.7481 114.525 30.5625C114.847 30.3769 115.207 30.2367 115.604 30.142C116.002 30.0473 116.407 29.9754 116.82 29.9261C117.343 29.8655 117.767 29.8163 118.093 29.7784C118.419 29.7367 118.656 29.6705 118.803 29.5795C118.951 29.4886 119.025 29.3409 119.025 29.1364V29.0966C119.025 28.6004 118.885 28.2159 118.604 27.9432C118.328 27.6705 117.915 27.5341 117.366 27.5341C116.794 27.5341 116.343 27.661 116.014 27.9148C115.688 28.1648 115.462 28.4432 115.337 28.75L113.741 28.3864C113.93 27.8561 114.207 27.428 114.57 27.1023C114.938 26.7727 115.36 26.5341 115.837 26.3864C116.315 26.2348 116.817 26.1591 117.343 26.1591C117.692 26.1591 118.061 26.2008 118.451 26.2841C118.845 26.3636 119.212 26.5114 119.553 26.7273C119.898 26.9432 120.18 27.2519 120.4 27.6534C120.62 28.0511 120.729 28.5682 120.729 29.2045V35H119.07V33.8068H119.002C118.892 34.0265 118.728 34.2424 118.508 34.4545C118.288 34.6667 118.006 34.8428 117.661 34.983C117.317 35.1231 116.904 35.1932 116.423 35.1932ZM116.792 33.8295C117.262 33.8295 117.663 33.7367 117.996 33.5511C118.334 33.3655 118.589 33.1231 118.764 32.8239C118.942 32.5208 119.031 32.197 119.031 31.8523V30.7273C118.97 30.7879 118.853 30.8447 118.678 30.8977C118.508 30.947 118.313 30.9905 118.093 31.0284C117.873 31.0625 117.659 31.0947 117.451 31.125C117.243 31.1515 117.068 31.1742 116.928 31.1932C116.599 31.2348 116.298 31.3049 116.025 31.4034C115.756 31.5019 115.54 31.6439 115.377 31.8295C115.218 32.0114 115.139 32.2538 115.139 32.5568C115.139 32.9773 115.294 33.2955 115.604 33.5114C115.915 33.7235 116.311 33.8295 116.792 33.8295ZM122.14 37.517V33.5284H122.85C123.032 33.3617 123.185 33.1629 123.31 32.9318C123.439 32.7008 123.547 32.4261 123.634 32.108C123.725 31.7898 123.801 31.4186 123.862 30.9943C123.922 30.5663 123.975 30.0777 124.021 29.5284L124.293 26.2727H130.225V33.5284H131.566V37.517H129.907V35H123.822V37.517H122.14ZM124.668 33.5284H128.566V27.7273H125.816L125.634 29.5284C125.547 30.4451 125.437 31.2405 125.305 31.9148C125.172 32.5852 124.96 33.1231 124.668 33.5284ZM138.124 32.8977L140.943 26.2727H142.408L138.755 35H137.494L133.914 26.2727H135.363L138.124 32.8977ZM134.891 26.2727V35H133.227V26.2727H134.891ZM141.403 35V26.2727H143.056V35H141.403ZM146.985 32.6193L150.832 26.2727H152.661V35H150.996V28.6477L147.167 35H145.32V26.2727H146.985V32.6193ZM160.86 29.9034V31.375H156.133V29.9034H160.86ZM156.61 26.2727V35H154.945V26.2727H156.61ZM162.048 26.2727V35H160.389V26.2727H162.048ZM167.996 35.1761C167.178 35.1761 166.464 34.9886 165.854 34.6136C165.245 34.2386 164.771 33.714 164.434 33.0398C164.097 32.3655 163.928 31.5777 163.928 30.6761C163.928 29.7708 164.097 28.9792 164.434 28.3011C164.771 27.6231 165.245 27.0966 165.854 26.7216C166.464 26.3466 167.178 26.1591 167.996 26.1591C168.815 26.1591 169.529 26.3466 170.139 26.7216C170.748 27.0966 171.222 27.6231 171.559 28.3011C171.896 28.9792 172.065 29.7708 172.065 30.6761C172.065 31.5777 171.896 32.3655 171.559 33.0398C171.222 33.714 170.748 34.2386 170.139 34.6136C169.529 34.9886 168.815 35.1761 167.996 35.1761ZM168.002 33.75C168.532 33.75 168.972 33.6098 169.32 33.3295C169.669 33.0492 169.926 32.6761 170.093 32.2102C170.264 31.7443 170.349 31.2311 170.349 30.6705C170.349 30.1136 170.264 29.6023 170.093 29.1364C169.926 28.6667 169.669 28.2898 169.32 28.0057C168.972 27.7216 168.532 27.5795 168.002 27.5795C167.468 27.5795 167.025 27.7216 166.673 28.0057C166.324 28.2898 166.065 28.6667 165.894 29.1364C165.728 29.6023 165.644 30.1136 165.644 30.6705C165.644 31.2311 165.728 31.7443 165.894 32.2102C166.065 32.6761 166.324 33.0492 166.673 33.3295C167.025 33.6098 167.468 33.75 168.002 33.75ZM173.961 35V26.2727H177.58C178.565 26.2727 179.345 26.483 179.921 26.9034C180.497 27.3201 180.785 27.8864 180.785 28.6023C180.785 29.1136 180.622 29.5189 180.296 29.8182C179.97 30.1174 179.539 30.3182 179.001 30.4205C179.391 30.4659 179.749 30.5833 180.075 30.7727C180.4 30.9583 180.662 31.2083 180.859 31.5227C181.059 31.8371 181.16 32.2121 181.16 32.6477C181.16 33.1098 181.041 33.5189 180.802 33.875C180.563 34.2273 180.217 34.5038 179.762 34.7045C179.311 34.9015 178.768 35 178.131 35H173.961ZM175.558 33.5795H178.131C178.552 33.5795 178.881 33.4792 179.12 33.2784C179.359 33.0777 179.478 32.8049 179.478 32.4602C179.478 32.0549 179.359 31.7367 179.12 31.5057C178.881 31.2708 178.552 31.1534 178.131 31.1534H175.558V33.5795ZM175.558 29.9091H177.597C177.916 29.9091 178.188 29.8636 178.416 29.7727C178.647 29.6818 178.823 29.553 178.944 29.3864C179.069 29.2159 179.131 29.0152 179.131 28.7841C179.131 28.447 178.993 28.1837 178.717 27.9943C178.44 27.8049 178.061 27.7102 177.58 27.7102H175.558V29.9091Z" fill="#AAAAAA"/>
<path d="M29.0853 20.835C29.524 20.835 29.9546 20.9505 30.3349 21.1686L30.3357 21.1678L36.1862 24.5011L36.1895 24.5036L36.329 24.5898C36.6477 24.8022 36.9143 25.0853 37.1069 25.4175C37.3268 25.797 37.4427 26.2276 37.4431 26.6659V33.3341C37.4427 33.7725 37.3268 34.203 37.1069 34.5825C36.8868 34.9621 36.5702 35.2772 36.1895 35.4964L36.1862 35.4989L30.3357 38.8322L30.3349 38.8314C29.9546 39.0494 29.524 39.165 29.0853 39.165C28.6463 39.165 28.2153 39.0497 27.8349 38.8314V38.8322L21.9844 35.4989L21.9811 35.4964C21.6004 35.2772 21.2838 34.9621 21.0637 34.5825C20.8438 34.203 20.7279 33.7725 20.7275 33.3341V26.6659L20.7332 26.5015C20.7587 26.1204 20.8714 25.7494 21.0637 25.4175C21.2837 25.038 21.6004 24.7228 21.9811 24.5036L21.9844 24.5011L27.8349 21.1678V21.1686C28.2153 20.9503 28.6463 20.835 29.0853 20.835ZM29.0853 22.5016C28.9386 22.5016 28.7944 22.54 28.6674 22.6131L28.6641 22.6147L22.8161 25.9456L22.8169 25.9465C22.69 26.0195 22.5842 26.1251 22.5108 26.2516C22.4377 26.378 22.3992 26.5215 22.399 26.6675V33.3325L22.4064 33.4416C22.4208 33.5493 22.456 33.6537 22.5108 33.7484C22.5835 33.8738 22.6882 33.9781 22.8136 34.0511L28.6641 37.3844L28.6674 37.3869C28.7944 37.46 28.9386 37.4984 29.0853 37.4984C29.2319 37.4984 29.3762 37.46 29.5032 37.3869L29.5065 37.3844L35.3569 34.0511C35.4824 33.9781 35.5871 33.8738 35.6597 33.7484C35.7328 33.6222 35.7713 33.479 35.7716 33.3333V26.6675L35.7642 26.5584C35.7499 26.4507 35.7146 26.3464 35.6597 26.2516C35.5864 26.1251 35.4806 26.0195 35.3537 25.9465V25.9456L29.5065 22.6147L29.5032 22.6131C29.3761 22.54 29.232 22.5016 29.0853 22.5016Z" fill="#AAAAAA"/>
<path d="M35.9629 25.079C36.3624 24.8486 36.8736 24.9844 37.1048 25.3825C37.3359 25.7808 37.1997 26.2905 36.8004 26.521L29.5036 30.73C29.2448 30.8791 28.9257 30.8791 28.667 30.73L21.3702 26.521C20.9709 26.2905 20.8347 25.7808 21.0657 25.3825C21.297 24.9844 21.8081 24.8486 22.2076 25.079L29.0849 29.0455L35.9629 25.079Z" fill="#AAAAAA"/>
<path d="M28.2495 38.4001V30.0001C28.2495 29.5398 28.6237 29.1667 29.0853 29.1667C29.5469 29.1667 29.9211 29.5398 29.9211 30.0001V38.4001C29.921 38.8604 29.5469 39.2335 29.0853 39.2335C28.6237 39.2335 28.2495 38.8604 28.2495 38.4001Z" fill="#AAAAAA"/>
<defs>
<linearGradient id="paint0_linear_41_3201" x1="170.5" y1="0" x2="170.5" y2="60" gradientUnits="userSpaceOnUse">
<stop stop-color="#B3B3B3"/>
<stop offset="0.519231" stop-color="#B3B3B3" stop-opacity="0.5"/>
<stop offset="0.769231" stop-color="#B3B3B3" stop-opacity="0"/>
<stop offset="1" stop-color="#B3B3B3"/>
</linearGradient>
</defs>
</svg>
