<svg width="341" height="60" viewBox="0 0 341 60" fill="none" xmlns="http://www.w3.org/2000/svg">
<rect width="341" height="60" rx="16" fill="#1A1A1A"/>
<rect x="0.25" y="0.25" width="340.5" height="59.5" rx="15.75" stroke="url(#paint0_linear_41_3200)" stroke-opacity="0.2" stroke-width="0.5"/>
<path d="M308.197 23.2929C308.588 22.9024 309.223 22.9024 309.615 23.2929L315.633 29.2929C316.024 29.6834 316.024 30.3164 315.633 30.707L309.615 36.707C309.223 37.0975 308.588 37.0975 308.197 36.707C307.805 36.3164 307.805 35.6834 308.197 35.2929L313.505 29.9999L308.197 24.707C307.805 24.3164 307.805 23.6834 308.197 23.2929Z" fill="#AAAAAA"/>
<path d="M61.0902 27.1477H59.3175C59.2493 26.7689 59.1224 26.4356 58.9368 26.1477C58.7512 25.8598 58.524 25.6155 58.255 25.4148C57.9861 25.214 57.6849 25.0625 57.3516 24.9602C57.0221 24.858 56.6717 24.8068 56.3005 24.8068C55.63 24.8068 55.0296 24.9754 54.4993 25.3125C53.9728 25.6496 53.5562 26.1439 53.2493 26.7955C52.9463 27.447 52.7948 28.2424 52.7948 29.1818C52.7948 30.1288 52.9463 30.928 53.2493 31.5795C53.5562 32.2311 53.9747 32.7235 54.505 33.0568C55.0353 33.3902 55.6319 33.5568 56.2948 33.5568C56.6622 33.5568 57.0107 33.5076 57.3402 33.4091C57.6736 33.3068 57.9747 33.1572 58.2437 32.9602C58.5126 32.7633 58.7399 32.5227 58.9255 32.2386C59.1149 31.9508 59.2455 31.6212 59.3175 31.25L61.0902 31.2557C60.9955 31.8277 60.8118 32.3542 60.5391 32.8352C60.2702 33.3125 59.9236 33.7254 59.4993 34.0739C59.0789 34.4186 58.5978 34.6856 58.0562 34.875C57.5145 35.0644 56.9236 35.1591 56.2834 35.1591C55.2759 35.1591 54.3781 34.9205 53.5902 34.4432C52.8024 33.9621 52.1812 33.2746 51.7266 32.3807C51.2759 31.4867 51.0505 30.4205 51.0505 29.1818C51.0505 27.9394 51.2777 26.8731 51.7323 25.983C52.1868 25.089 52.808 24.4034 53.5959 23.9261C54.3838 23.4451 55.2796 23.2045 56.2834 23.2045C56.9009 23.2045 57.4766 23.2936 58.0107 23.4716C58.5486 23.6458 59.0315 23.9034 59.4596 24.2443C59.8876 24.5814 60.2418 24.9943 60.5221 25.483C60.8024 25.9678 60.9918 26.5227 61.0902 27.1477ZM63.0547 35V26.2727H70.1741V35H68.5093V27.7386H64.7081V35H63.0547ZM74.1101 32.6193L77.9567 26.2727H79.7863V35H78.1215V28.6477L74.292 35H72.4454V26.2727H74.1101V32.6193ZM85.7465 35.1761C84.9018 35.1761 84.1745 34.9848 83.5647 34.6023C82.9586 34.2159 82.4927 33.6837 82.167 33.0057C81.8412 32.3277 81.6783 31.5511 81.6783 30.6761C81.6783 29.7898 81.845 29.0076 82.1783 28.3295C82.5116 27.6477 82.9813 27.1155 83.5874 26.733C84.1935 26.3504 84.9075 26.1591 85.7295 26.1591C86.3923 26.1591 86.9832 26.2822 87.5022 26.5284C88.0211 26.7708 88.4397 27.1117 88.7579 27.5511C89.0798 27.9905 89.2711 28.5038 89.3317 29.0909H87.6783C87.5874 28.6818 87.3791 28.3295 87.0533 28.0341C86.7313 27.7386 86.2995 27.5909 85.7579 27.5909C85.2844 27.5909 84.8696 27.7159 84.5135 27.9659C84.1613 28.2121 83.8866 28.5644 83.6897 29.0227C83.4927 29.4773 83.3942 30.0152 83.3942 30.6364C83.3942 31.2727 83.4908 31.822 83.684 32.2841C83.8772 32.7462 84.1499 33.1042 84.5022 33.358C84.8582 33.6117 85.2768 33.7386 85.7579 33.7386C86.0798 33.7386 86.3715 33.6799 86.6329 33.5625C86.898 33.4413 87.1196 33.2689 87.2976 33.0455C87.4795 32.822 87.6063 32.553 87.6783 32.2386H89.3317C89.2711 32.803 89.0874 33.3068 88.7806 33.75C88.4738 34.1932 88.0628 34.5417 87.5476 34.7955C87.0363 35.0492 86.4359 35.1761 85.7465 35.1761ZM94.8246 35.1761C94.0064 35.1761 93.2924 34.9886 92.6826 34.6136C92.0727 34.2386 91.5992 33.714 91.2621 33.0398C90.925 32.3655 90.7564 31.5777 90.7564 30.6761C90.7564 29.7708 90.925 28.9792 91.2621 28.3011C91.5992 27.6231 92.0727 27.0966 92.6826 26.7216C93.2924 26.3466 94.0064 26.1591 94.8246 26.1591C95.6428 26.1591 96.3568 26.3466 96.9667 26.7216C97.5765 27.0966 98.05 27.6231 98.3871 28.3011C98.7242 28.9792 98.8928 29.7708 98.8928 30.6761C98.8928 31.5777 98.7242 32.3655 98.3871 33.0398C98.05 33.714 97.5765 34.2386 96.9667 34.6136C96.3568 34.9886 95.6428 35.1761 94.8246 35.1761ZM94.8303 33.75C95.3606 33.75 95.8 33.6098 96.1485 33.3295C96.497 33.0492 96.7545 32.6761 96.9212 32.2102C97.0917 31.7443 97.1769 31.2311 97.1769 30.6705C97.1769 30.1136 97.0917 29.6023 96.9212 29.1364C96.7545 28.6667 96.497 28.2898 96.1485 28.0057C95.8 27.7216 95.3606 27.5795 94.8303 27.5795C94.2962 27.5795 93.853 27.7216 93.5008 28.0057C93.1523 28.2898 92.8928 28.6667 92.7223 29.1364C92.5557 29.6023 92.4723 30.1136 92.4723 30.6705C92.4723 31.2311 92.5557 31.7443 92.7223 32.2102C92.8928 32.6761 93.1523 33.0492 93.5008 33.3295C93.853 33.6098 94.2962 33.75 94.8303 33.75ZM100.789 35V26.2727H102.488V29.9318H103.306L106.187 26.2727H108.289L104.908 30.517L108.329 35H106.221L103.59 31.5114H102.488V35H100.789ZM113.394 27.7386V26.2727H120.758V27.7386H117.911V35H116.252V27.7386H113.394ZM123.629 38.2727C123.375 38.2727 123.144 38.2519 122.935 38.2102C122.727 38.1723 122.572 38.1307 122.47 38.0852L122.879 36.6932C123.189 36.7765 123.466 36.8125 123.708 36.8011C123.951 36.7898 124.165 36.6989 124.35 36.5284C124.54 36.358 124.706 36.0795 124.85 35.6932L125.06 35.1136L121.867 26.2727H123.685L125.896 33.0455H125.987L128.197 26.2727H130.021L126.424 36.1648C126.257 36.6193 126.045 37.0038 125.788 37.3182C125.53 37.6364 125.223 37.875 124.867 38.0341C124.511 38.1932 124.098 38.2727 123.629 38.2727ZM131.617 38.2727V26.2727H133.276V27.6875H133.418C133.517 27.5057 133.659 27.2955 133.845 27.0568C134.03 26.8182 134.288 26.6098 134.617 26.4318C134.947 26.25 135.382 26.1591 135.924 26.1591C136.629 26.1591 137.257 26.3371 137.81 26.6932C138.363 27.0492 138.797 27.5625 139.112 28.233C139.43 28.9034 139.589 29.7102 139.589 30.6534C139.589 31.5966 139.432 32.4053 139.117 33.0795C138.803 33.75 138.371 34.267 137.822 34.6307C137.273 34.9905 136.646 35.1705 135.941 35.1705C135.411 35.1705 134.977 35.0814 134.64 34.9034C134.307 34.7254 134.045 34.517 133.856 34.2784C133.666 34.0398 133.521 33.8277 133.418 33.642H133.316V38.2727H131.617ZM133.282 30.6364C133.282 31.25 133.371 31.7879 133.549 32.25C133.727 32.7121 133.985 33.0739 134.322 33.3352C134.659 33.5928 135.072 33.7216 135.56 33.7216C136.068 33.7216 136.492 33.5871 136.833 33.3182C137.174 33.0455 137.432 32.6761 137.606 32.2102C137.784 31.7443 137.873 31.2197 137.873 30.6364C137.873 30.0606 137.786 29.5436 137.612 29.0852C137.441 28.6269 137.184 28.2652 136.839 28C136.498 27.7348 136.072 27.6023 135.56 27.6023C135.068 27.6023 134.651 27.7292 134.31 27.983C133.973 28.2367 133.718 28.5909 133.543 29.0455C133.369 29.5 133.282 30.0303 133.282 30.6364ZM147.407 29.9034V31.375H142.68V29.9034H147.407ZM143.157 26.2727V35H141.492V26.2727H143.157ZM148.595 26.2727V35H146.935V26.2727H148.595ZM152.532 32.6193L156.379 26.2727H158.208V35H156.543V28.6477L152.714 35H150.867V26.2727H152.532V32.6193ZM160.492 38.2727V26.2727H162.151V27.6875H162.293C162.392 27.5057 162.534 27.2955 162.72 27.0568C162.905 26.8182 163.163 26.6098 163.492 26.4318C163.822 26.25 164.257 26.1591 164.799 26.1591C165.504 26.1591 166.132 26.3371 166.685 26.6932C167.238 27.0492 167.672 27.5625 167.987 28.233C168.305 28.9034 168.464 29.7102 168.464 30.6534C168.464 31.5966 168.307 32.4053 167.992 33.0795C167.678 33.75 167.246 34.267 166.697 34.6307C166.148 34.9905 165.521 35.1705 164.816 35.1705C164.286 35.1705 163.852 35.0814 163.515 34.9034C163.182 34.7254 162.92 34.517 162.731 34.2784C162.541 34.0398 162.396 33.8277 162.293 33.642H162.191V38.2727H160.492ZM162.157 30.6364C162.157 31.25 162.246 31.7879 162.424 32.25C162.602 32.7121 162.86 33.0739 163.197 33.3352C163.534 33.5928 163.947 33.7216 164.435 33.7216C164.943 33.7216 165.367 33.5871 165.708 33.3182C166.049 33.0455 166.307 32.6761 166.481 32.2102C166.659 31.7443 166.748 31.2197 166.748 30.6364C166.748 30.0606 166.661 29.5436 166.487 29.0852C166.316 28.6269 166.059 28.2652 165.714 28C165.373 27.7348 164.947 27.6023 164.435 27.6023C163.943 27.6023 163.526 27.7292 163.185 27.983C162.848 28.2367 162.593 28.5909 162.418 29.0455C162.244 29.5 162.157 30.0303 162.157 30.6364ZM174.043 35.1761C173.225 35.1761 172.511 34.9886 171.901 34.6136C171.291 34.2386 170.818 33.714 170.481 33.0398C170.144 32.3655 169.975 31.5777 169.975 30.6761C169.975 29.7708 170.144 28.9792 170.481 28.3011C170.818 27.6231 171.291 27.0966 171.901 26.7216C172.511 26.3466 173.225 26.1591 174.043 26.1591C174.862 26.1591 175.576 26.3466 176.185 26.7216C176.795 27.0966 177.269 27.6231 177.606 28.3011C177.943 28.9792 178.112 29.7708 178.112 30.6761C178.112 31.5777 177.943 32.3655 177.606 33.0398C177.269 33.714 176.795 34.2386 176.185 34.6136C175.576 34.9886 174.862 35.1761 174.043 35.1761ZM174.049 33.75C174.579 33.75 175.019 33.6098 175.367 33.3295C175.716 33.0492 175.973 32.6761 176.14 32.2102C176.31 31.7443 176.396 31.2311 176.396 30.6705C176.396 30.1136 176.31 29.6023 176.14 29.1364C175.973 28.6667 175.716 28.2898 175.367 28.0057C175.019 27.7216 174.579 27.5795 174.049 27.5795C173.515 27.5795 173.072 27.7216 172.72 28.0057C172.371 28.2898 172.112 28.6667 171.941 29.1364C171.774 29.6023 171.691 30.1136 171.691 30.6705C171.691 31.2311 171.774 31.7443 171.941 32.2102C172.112 32.6761 172.371 33.0492 172.72 33.3295C173.072 33.6098 173.515 33.75 174.049 33.75ZM180.008 35V26.2727H183.627C184.612 26.2727 185.392 26.483 185.968 26.9034C186.544 27.3201 186.832 27.8864 186.832 28.6023C186.832 29.1136 186.669 29.5189 186.343 29.8182C186.017 30.1174 185.586 30.3182 185.048 30.4205C185.438 30.4659 185.796 30.5833 186.121 30.7727C186.447 30.9583 186.709 31.2083 186.906 31.5227C187.106 31.8371 187.207 32.2121 187.207 32.6477C187.207 33.1098 187.087 33.5189 186.849 33.875C186.61 34.2273 186.264 34.5038 185.809 34.7045C185.358 34.9015 184.815 35 184.178 35H180.008ZM181.604 33.5795H184.178C184.599 33.5795 184.928 33.4792 185.167 33.2784C185.406 33.0777 185.525 32.8049 185.525 32.4602C185.525 32.0549 185.406 31.7367 185.167 31.5057C184.928 31.2708 184.599 31.1534 184.178 31.1534H181.604V33.5795ZM181.604 29.9091H183.644C183.962 29.9091 184.235 29.8636 184.462 29.7727C184.693 29.6818 184.87 29.553 184.991 29.3864C185.116 29.2159 185.178 29.0152 185.178 28.7841C185.178 28.447 185.04 28.1837 184.764 27.9943C184.487 27.8049 184.108 27.7102 183.627 27.7102H181.604V29.9091ZM194.97 32.6193L198.816 26.2727H200.646V35H198.981V28.6477L195.151 35H193.305V26.2727H194.97V32.6193ZM212.062 32.8977L214.88 26.2727H216.346L212.693 35H211.431L207.852 26.2727H209.3L212.062 32.8977ZM208.829 26.2727V35H207.164V26.2727H208.829ZM215.34 35V26.2727H216.994V35H215.34ZM221.798 35.1932C221.245 35.1932 220.745 35.0909 220.298 34.8864C219.851 34.678 219.496 34.3769 219.235 33.983C218.978 33.589 218.849 33.1061 218.849 32.5341C218.849 32.0417 218.943 31.6364 219.133 31.3182C219.322 31 219.578 30.7481 219.9 30.5625C220.222 30.3769 220.582 30.2367 220.979 30.142C221.377 30.0473 221.782 29.9754 222.195 29.9261C222.718 29.8655 223.142 29.8163 223.468 29.7784C223.794 29.7367 224.031 29.6705 224.178 29.5795C224.326 29.4886 224.4 29.3409 224.4 29.1364V29.0966C224.4 28.6004 224.26 28.2159 223.979 27.9432C223.703 27.6705 223.29 27.5341 222.741 27.5341C222.169 27.5341 221.718 27.661 221.389 27.9148C221.063 28.1648 220.837 28.4432 220.712 28.75L219.116 28.3864C219.305 27.8561 219.582 27.428 219.945 27.1023C220.313 26.7727 220.735 26.5341 221.212 26.3864C221.69 26.2348 222.192 26.1591 222.718 26.1591C223.067 26.1591 223.436 26.2008 223.826 26.2841C224.22 26.3636 224.587 26.5114 224.928 26.7273C225.273 26.9432 225.555 27.2519 225.775 27.6534C225.995 28.0511 226.104 28.5682 226.104 29.2045V35H224.445V33.8068H224.377C224.267 34.0265 224.103 34.2424 223.883 34.4545C223.663 34.6667 223.381 34.8428 223.036 34.983C222.692 35.1231 222.279 35.1932 221.798 35.1932ZM222.167 33.8295C222.637 33.8295 223.038 33.7367 223.371 33.5511C223.709 33.3655 223.964 33.1231 224.139 32.8239C224.317 32.5208 224.406 32.197 224.406 31.8523V30.7273C224.345 30.7879 224.228 30.8447 224.053 30.8977C223.883 30.947 223.688 30.9905 223.468 31.0284C223.248 31.0625 223.034 31.0947 222.826 31.125C222.618 31.1515 222.443 31.1742 222.303 31.1932C221.974 31.2348 221.673 31.3049 221.4 31.4034C221.131 31.5019 220.915 31.6439 220.752 31.8295C220.593 32.0114 220.514 32.2538 220.514 32.5568C220.514 32.9773 220.669 33.2955 220.979 33.5114C221.29 33.7235 221.686 33.8295 222.167 33.8295ZM227.285 27.7386V26.2727H234.648V27.7386H231.802V35H230.143V27.7386H227.285ZM243.045 26.2727V35H241.386V26.2727H243.045ZM242.323 30.3239V31.7898C242.062 31.8958 241.785 31.9905 241.494 32.0739C241.202 32.1534 240.895 32.2159 240.573 32.2614C240.251 32.3068 239.916 32.3295 239.568 32.3295C238.488 32.3295 237.63 32.0663 236.994 31.5398C236.357 31.0095 236.039 30.1989 236.039 29.108V26.2557H237.693V29.108C237.693 29.5208 237.768 29.8561 237.92 30.1136C238.071 30.3712 238.287 30.5606 238.568 30.6818C238.848 30.803 239.181 30.8636 239.568 30.8636C240.079 30.8636 240.55 30.8163 240.982 30.7216C241.418 30.6231 241.865 30.4905 242.323 30.3239ZM249.066 35.1761C248.206 35.1761 247.466 34.9924 246.845 34.625C246.227 34.2538 245.75 33.733 245.413 33.0625C245.079 32.3883 244.913 31.5985 244.913 30.6932C244.913 29.7992 245.079 29.0114 245.413 28.3295C245.75 27.6477 246.22 27.1155 246.822 26.733C247.428 26.3504 248.136 26.1591 248.947 26.1591C249.439 26.1591 249.916 26.2405 250.379 26.4034C250.841 26.5663 251.255 26.822 251.623 27.1705C251.99 27.5189 252.28 27.9716 252.492 28.5284C252.704 29.0814 252.81 29.7538 252.81 30.5455V31.1477H245.873V29.875H251.146C251.146 29.428 251.055 29.0322 250.873 28.6875C250.691 28.339 250.435 28.0644 250.106 27.8636C249.78 27.6629 249.398 27.5625 248.958 27.5625C248.481 27.5625 248.064 27.6799 247.708 27.9148C247.356 28.1458 247.083 28.4489 246.89 28.8239C246.701 29.1951 246.606 29.5985 246.606 30.0341V31.0284C246.606 31.6117 246.708 32.108 246.913 32.517C247.121 32.9261 247.411 33.2386 247.782 33.4545C248.153 33.6667 248.587 33.7727 249.083 33.7727C249.405 33.7727 249.699 33.7273 249.964 33.6364C250.229 33.5417 250.458 33.4015 250.651 33.2159C250.845 33.0303 250.992 32.8011 251.095 32.5284L252.702 32.8182C252.574 33.2917 252.343 33.7064 252.009 34.0625C251.68 34.4148 251.265 34.6894 250.765 34.8864C250.269 35.0795 249.702 35.1761 249.066 35.1761ZM256.36 32.6193L260.207 26.2727H262.036V35H260.371V28.6477L256.542 35H254.695V26.2727H256.36V32.6193ZM259.479 23.3182H260.877C260.877 23.9583 260.65 24.4792 260.195 24.8807C259.745 25.2784 259.135 25.4773 258.366 25.4773C257.601 25.4773 256.993 25.2784 256.542 24.8807C256.091 24.4792 255.866 23.9583 255.866 23.3182H257.258C257.258 23.6023 257.341 23.8542 257.508 24.0739C257.675 24.2898 257.961 24.3977 258.366 24.3977C258.764 24.3977 259.048 24.2898 259.218 24.0739C259.392 23.858 259.479 23.6061 259.479 23.3182Z" fill="#AAAAAA"/>
<path d="M29.0853 20.835C29.524 20.835 29.9546 20.9505 30.3349 21.1686L30.3357 21.1678L36.1862 24.5011L36.1895 24.5036L36.329 24.5898C36.6477 24.8022 36.9143 25.0853 37.1069 25.4175C37.3268 25.797 37.4427 26.2276 37.4431 26.6659V33.3341C37.4427 33.7725 37.3268 34.203 37.1069 34.5825C36.8868 34.9621 36.5702 35.2772 36.1895 35.4964L36.1862 35.4989L30.3357 38.8322L30.3349 38.8314C29.9546 39.0494 29.524 39.165 29.0853 39.165C28.6463 39.165 28.2153 39.0497 27.8349 38.8314V38.8322L21.9844 35.4989L21.9811 35.4964C21.6004 35.2772 21.2838 34.9621 21.0637 34.5825C20.8438 34.203 20.7279 33.7725 20.7275 33.3341V26.6659L20.7332 26.5015C20.7587 26.1204 20.8714 25.7494 21.0637 25.4175C21.2837 25.038 21.6004 24.7228 21.9811 24.5036L21.9844 24.5011L27.8349 21.1678V21.1686C28.2153 20.9503 28.6463 20.835 29.0853 20.835ZM29.0853 22.5016C28.9386 22.5016 28.7944 22.54 28.6674 22.6131L28.6641 22.6147L22.8161 25.9456L22.8169 25.9465C22.69 26.0195 22.5842 26.1251 22.5108 26.2516C22.4377 26.378 22.3992 26.5215 22.399 26.6675V33.3325L22.4064 33.4416C22.4208 33.5493 22.456 33.6537 22.5108 33.7484C22.5835 33.8738 22.6882 33.9781 22.8136 34.0511L28.6641 37.3844L28.6674 37.3869C28.7944 37.46 28.9386 37.4984 29.0853 37.4984C29.2319 37.4984 29.3762 37.46 29.5032 37.3869L29.5065 37.3844L35.3569 34.0511C35.4824 33.9781 35.5871 33.8738 35.6597 33.7484C35.7328 33.6222 35.7713 33.479 35.7716 33.3333V26.6675L35.7642 26.5584C35.7499 26.4507 35.7146 26.3464 35.6597 26.2516C35.5864 26.1251 35.4806 26.0195 35.3537 25.9465V25.9456L29.5065 22.6147L29.5032 22.6131C29.3761 22.54 29.232 22.5016 29.0853 22.5016Z" fill="#AAAAAA"/>
<path d="M35.9629 25.079C36.3624 24.8486 36.8736 24.9844 37.1048 25.3825C37.3359 25.7808 37.1997 26.2905 36.8004 26.521L29.5036 30.73C29.2448 30.8791 28.9257 30.8791 28.667 30.73L21.3702 26.521C20.9709 26.2905 20.8347 25.7808 21.0657 25.3825C21.297 24.9844 21.8081 24.8486 22.2076 25.079L29.0849 29.0455L35.9629 25.079Z" fill="#AAAAAA"/>
<path d="M28.2495 38.4001V30.0001C28.2495 29.5398 28.6237 29.1667 29.0853 29.1667C29.5469 29.1667 29.9211 29.5398 29.9211 30.0001V38.4001C29.921 38.8604 29.5469 39.2335 29.0853 39.2335C28.6237 39.2335 28.2495 38.8604 28.2495 38.4001Z" fill="#AAAAAA"/>
<defs>
<linearGradient id="paint0_linear_41_3200" x1="170.5" y1="0" x2="170.5" y2="60" gradientUnits="userSpaceOnUse">
<stop stop-color="#B3B3B3"/>
<stop offset="0.519231" stop-color="#B3B3B3" stop-opacity="0.5"/>
<stop offset="0.769231" stop-color="#B3B3B3" stop-opacity="0"/>
<stop offset="1" stop-color="#B3B3B3"/>
</linearGradient>
</defs>
</svg>
