<svg width="341" height="332" viewBox="0 0 341 332" fill="none" xmlns="http://www.w3.org/2000/svg">
<rect width="341" height="60" rx="16" fill="#1A1A1A"/>
<rect x="0.25" y="0.25" width="340.5" height="59.5" rx="15.75" stroke="url(#paint0_linear_47_6130)" stroke-opacity="0.2" stroke-width="0.5"/>
<path d="M308.197 23.2929C308.588 22.9024 309.223 22.9024 309.615 23.2929L315.633 29.2929C316.024 29.6834 316.024 30.3164 315.633 30.707L309.615 36.707C309.223 37.0975 308.588 37.0975 308.197 36.707C307.805 36.3164 307.805 35.6834 308.197 35.2929L313.505 29.9999L308.197 24.707C307.805 24.3164 307.805 23.6834 308.197 23.2929Z" fill="#AAAAAA"/>
<path d="M61.0902 27.1477H59.3175C59.2493 26.7689 59.1224 26.4356 58.9368 26.1477C58.7512 25.8598 58.524 25.6155 58.255 25.4148C57.9861 25.214 57.6849 25.0625 57.3516 24.9602C57.0221 24.858 56.6717 24.8068 56.3005 24.8068C55.63 24.8068 55.0296 24.9754 54.4993 25.3125C53.9728 25.6496 53.5562 26.1439 53.2493 26.7955C52.9463 27.447 52.7948 28.2424 52.7948 29.1818C52.7948 30.1288 52.9463 30.928 53.2493 31.5795C53.5562 32.2311 53.9747 32.7235 54.505 33.0568C55.0353 33.3902 55.6319 33.5568 56.2948 33.5568C56.6622 33.5568 57.0107 33.5076 57.3402 33.4091C57.6736 33.3068 57.9747 33.1572 58.2437 32.9602C58.5126 32.7633 58.7399 32.5227 58.9255 32.2386C59.1149 31.9508 59.2455 31.6212 59.3175 31.25L61.0902 31.2557C60.9955 31.8277 60.8118 32.3542 60.5391 32.8352C60.2702 33.3125 59.9236 33.7254 59.4993 34.0739C59.0789 34.4186 58.5978 34.6856 58.0562 34.875C57.5145 35.0644 56.9236 35.1591 56.2834 35.1591C55.2759 35.1591 54.3781 34.9205 53.5902 34.4432C52.8024 33.9621 52.1812 33.2746 51.7266 32.3807C51.2759 31.4867 51.0505 30.4205 51.0505 29.1818C51.0505 27.9394 51.2777 26.8731 51.7323 25.983C52.1868 25.089 52.808 24.4034 53.5959 23.9261C54.3838 23.4451 55.2796 23.2045 56.2834 23.2045C56.9009 23.2045 57.4766 23.2936 58.0107 23.4716C58.5486 23.6458 59.0315 23.9034 59.4596 24.2443C59.8876 24.5814 60.2418 24.9943 60.5221 25.483C60.8024 25.9678 60.9918 26.5227 61.0902 27.1477ZM63.0547 35V26.2727H70.1741V35H68.5093V27.7386H64.7081V35H63.0547ZM74.1101 32.6193L77.9567 26.2727H79.7863V35H78.1215V28.6477L74.292 35H72.4454V26.2727H74.1101V32.6193ZM85.7465 35.1761C84.9018 35.1761 84.1745 34.9848 83.5647 34.6023C82.9586 34.2159 82.4927 33.6837 82.167 33.0057C81.8412 32.3277 81.6783 31.5511 81.6783 30.6761C81.6783 29.7898 81.845 29.0076 82.1783 28.3295C82.5116 27.6477 82.9813 27.1155 83.5874 26.733C84.1935 26.3504 84.9075 26.1591 85.7295 26.1591C86.3923 26.1591 86.9832 26.2822 87.5022 26.5284C88.0211 26.7708 88.4397 27.1117 88.7579 27.5511C89.0798 27.9905 89.2711 28.5038 89.3317 29.0909H87.6783C87.5874 28.6818 87.3791 28.3295 87.0533 28.0341C86.7313 27.7386 86.2995 27.5909 85.7579 27.5909C85.2844 27.5909 84.8696 27.7159 84.5135 27.9659C84.1613 28.2121 83.8866 28.5644 83.6897 29.0227C83.4927 29.4773 83.3942 30.0152 83.3942 30.6364C83.3942 31.2727 83.4908 31.822 83.684 32.2841C83.8772 32.7462 84.1499 33.1042 84.5022 33.358C84.8582 33.6117 85.2768 33.7386 85.7579 33.7386C86.0798 33.7386 86.3715 33.6799 86.6329 33.5625C86.898 33.4413 87.1196 33.2689 87.2976 33.0455C87.4795 32.822 87.6063 32.553 87.6783 32.2386H89.3317C89.2711 32.803 89.0874 33.3068 88.7806 33.75C88.4738 34.1932 88.0628 34.5417 87.5476 34.7955C87.0363 35.0492 86.4359 35.1761 85.7465 35.1761ZM94.8246 35.1761C94.0064 35.1761 93.2924 34.9886 92.6826 34.6136C92.0727 34.2386 91.5992 33.714 91.2621 33.0398C90.925 32.3655 90.7564 31.5777 90.7564 30.6761C90.7564 29.7708 90.925 28.9792 91.2621 28.3011C91.5992 27.6231 92.0727 27.0966 92.6826 26.7216C93.2924 26.3466 94.0064 26.1591 94.8246 26.1591C95.6428 26.1591 96.3568 26.3466 96.9667 26.7216C97.5765 27.0966 98.05 27.6231 98.3871 28.3011C98.7242 28.9792 98.8928 29.7708 98.8928 30.6761C98.8928 31.5777 98.7242 32.3655 98.3871 33.0398C98.05 33.714 97.5765 34.2386 96.9667 34.6136C96.3568 34.9886 95.6428 35.1761 94.8246 35.1761ZM94.8303 33.75C95.3606 33.75 95.8 33.6098 96.1485 33.3295C96.497 33.0492 96.7545 32.6761 96.9212 32.2102C97.0917 31.7443 97.1769 31.2311 97.1769 30.6705C97.1769 30.1136 97.0917 29.6023 96.9212 29.1364C96.7545 28.6667 96.497 28.2898 96.1485 28.0057C95.8 27.7216 95.3606 27.5795 94.8303 27.5795C94.2962 27.5795 93.853 27.7216 93.5008 28.0057C93.1523 28.2898 92.8928 28.6667 92.7223 29.1364C92.5557 29.6023 92.4723 30.1136 92.4723 30.6705C92.4723 31.2311 92.5557 31.7443 92.7223 32.2102C92.8928 32.6761 93.1523 33.0492 93.5008 33.3295C93.853 33.6098 94.2962 33.75 94.8303 33.75ZM100.789 35V26.2727H102.488V29.9318H103.306L106.187 26.2727H108.289L104.908 30.517L108.329 35H106.221L103.59 31.5114H102.488V35H100.789ZM113.394 27.7386V26.2727H120.758V27.7386H117.911V35H116.252V27.7386H113.394ZM123.629 38.2727C123.375 38.2727 123.144 38.2519 122.935 38.2102C122.727 38.1723 122.572 38.1307 122.47 38.0852L122.879 36.6932C123.189 36.7765 123.466 36.8125 123.708 36.8011C123.951 36.7898 124.165 36.6989 124.35 36.5284C124.54 36.358 124.706 36.0795 124.85 35.6932L125.06 35.1136L121.867 26.2727H123.685L125.896 33.0455H125.987L128.197 26.2727H130.021L126.424 36.1648C126.257 36.6193 126.045 37.0038 125.788 37.3182C125.53 37.6364 125.223 37.875 124.867 38.0341C124.511 38.1932 124.098 38.2727 123.629 38.2727ZM131.617 38.2727V26.2727H133.276V27.6875H133.418C133.517 27.5057 133.659 27.2955 133.845 27.0568C134.03 26.8182 134.288 26.6098 134.617 26.4318C134.947 26.25 135.382 26.1591 135.924 26.1591C136.629 26.1591 137.257 26.3371 137.81 26.6932C138.363 27.0492 138.797 27.5625 139.112 28.233C139.43 28.9034 139.589 29.7102 139.589 30.6534C139.589 31.5966 139.432 32.4053 139.117 33.0795C138.803 33.75 138.371 34.267 137.822 34.6307C137.273 34.9905 136.646 35.1705 135.941 35.1705C135.411 35.1705 134.977 35.0814 134.64 34.9034C134.307 34.7254 134.045 34.517 133.856 34.2784C133.666 34.0398 133.521 33.8277 133.418 33.642H133.316V38.2727H131.617ZM133.282 30.6364C133.282 31.25 133.371 31.7879 133.549 32.25C133.727 32.7121 133.985 33.0739 134.322 33.3352C134.659 33.5928 135.072 33.7216 135.56 33.7216C136.068 33.7216 136.492 33.5871 136.833 33.3182C137.174 33.0455 137.432 32.6761 137.606 32.2102C137.784 31.7443 137.873 31.2197 137.873 30.6364C137.873 30.0606 137.786 29.5436 137.612 29.0852C137.441 28.6269 137.184 28.2652 136.839 28C136.498 27.7348 136.072 27.6023 135.56 27.6023C135.068 27.6023 134.651 27.7292 134.31 27.983C133.973 28.2367 133.718 28.5909 133.543 29.0455C133.369 29.5 133.282 30.0303 133.282 30.6364ZM147.407 29.9034V31.375H142.68V29.9034H147.407ZM143.157 26.2727V35H141.492V26.2727H143.157ZM148.595 26.2727V35H146.935V26.2727H148.595ZM152.532 32.6193L156.379 26.2727H158.208V35H156.543V28.6477L152.714 35H150.867V26.2727H152.532V32.6193ZM160.492 38.2727V26.2727H162.151V27.6875H162.293C162.392 27.5057 162.534 27.2955 162.72 27.0568C162.905 26.8182 163.163 26.6098 163.492 26.4318C163.822 26.25 164.257 26.1591 164.799 26.1591C165.504 26.1591 166.132 26.3371 166.685 26.6932C167.238 27.0492 167.672 27.5625 167.987 28.233C168.305 28.9034 168.464 29.7102 168.464 30.6534C168.464 31.5966 168.307 32.4053 167.992 33.0795C167.678 33.75 167.246 34.267 166.697 34.6307C166.148 34.9905 165.521 35.1705 164.816 35.1705C164.286 35.1705 163.852 35.0814 163.515 34.9034C163.182 34.7254 162.92 34.517 162.731 34.2784C162.541 34.0398 162.396 33.8277 162.293 33.642H162.191V38.2727H160.492ZM162.157 30.6364C162.157 31.25 162.246 31.7879 162.424 32.25C162.602 32.7121 162.86 33.0739 163.197 33.3352C163.534 33.5928 163.947 33.7216 164.435 33.7216C164.943 33.7216 165.367 33.5871 165.708 33.3182C166.049 33.0455 166.307 32.6761 166.481 32.2102C166.659 31.7443 166.748 31.2197 166.748 30.6364C166.748 30.0606 166.661 29.5436 166.487 29.0852C166.316 28.6269 166.059 28.2652 165.714 28C165.373 27.7348 164.947 27.6023 164.435 27.6023C163.943 27.6023 163.526 27.7292 163.185 27.983C162.848 28.2367 162.593 28.5909 162.418 29.0455C162.244 29.5 162.157 30.0303 162.157 30.6364ZM174.043 35.1761C173.225 35.1761 172.511 34.9886 171.901 34.6136C171.291 34.2386 170.818 33.714 170.481 33.0398C170.144 32.3655 169.975 31.5777 169.975 30.6761C169.975 29.7708 170.144 28.9792 170.481 28.3011C170.818 27.6231 171.291 27.0966 171.901 26.7216C172.511 26.3466 173.225 26.1591 174.043 26.1591C174.862 26.1591 175.576 26.3466 176.185 26.7216C176.795 27.0966 177.269 27.6231 177.606 28.3011C177.943 28.9792 178.112 29.7708 178.112 30.6761C178.112 31.5777 177.943 32.3655 177.606 33.0398C177.269 33.714 176.795 34.2386 176.185 34.6136C175.576 34.9886 174.862 35.1761 174.043 35.1761ZM174.049 33.75C174.579 33.75 175.019 33.6098 175.367 33.3295C175.716 33.0492 175.973 32.6761 176.14 32.2102C176.31 31.7443 176.396 31.2311 176.396 30.6705C176.396 30.1136 176.31 29.6023 176.14 29.1364C175.973 28.6667 175.716 28.2898 175.367 28.0057C175.019 27.7216 174.579 27.5795 174.049 27.5795C173.515 27.5795 173.072 27.7216 172.72 28.0057C172.371 28.2898 172.112 28.6667 171.941 29.1364C171.774 29.6023 171.691 30.1136 171.691 30.6705C171.691 31.2311 171.774 31.7443 171.941 32.2102C172.112 32.6761 172.371 33.0492 172.72 33.3295C173.072 33.6098 173.515 33.75 174.049 33.75ZM180.008 35V26.2727H183.627C184.612 26.2727 185.392 26.483 185.968 26.9034C186.544 27.3201 186.832 27.8864 186.832 28.6023C186.832 29.1136 186.669 29.5189 186.343 29.8182C186.017 30.1174 185.586 30.3182 185.048 30.4205C185.438 30.4659 185.796 30.5833 186.121 30.7727C186.447 30.9583 186.709 31.2083 186.906 31.5227C187.106 31.8371 187.207 32.2121 187.207 32.6477C187.207 33.1098 187.087 33.5189 186.849 33.875C186.61 34.2273 186.264 34.5038 185.809 34.7045C185.358 34.9015 184.815 35 184.178 35H180.008ZM181.604 33.5795H184.178C184.599 33.5795 184.928 33.4792 185.167 33.2784C185.406 33.0777 185.525 32.8049 185.525 32.4602C185.525 32.0549 185.406 31.7367 185.167 31.5057C184.928 31.2708 184.599 31.1534 184.178 31.1534H181.604V33.5795ZM181.604 29.9091H183.644C183.962 29.9091 184.235 29.8636 184.462 29.7727C184.693 29.6818 184.87 29.553 184.991 29.3864C185.116 29.2159 185.178 29.0152 185.178 28.7841C185.178 28.447 185.04 28.1837 184.764 27.9943C184.487 27.8049 184.108 27.7102 183.627 27.7102H181.604V29.9091ZM194.97 32.6193L198.816 26.2727H200.646V35H198.981V28.6477L195.151 35H193.305V26.2727H194.97V32.6193ZM212.062 32.8977L214.88 26.2727H216.346L212.693 35H211.431L207.852 26.2727H209.3L212.062 32.8977ZM208.829 26.2727V35H207.164V26.2727H208.829ZM215.34 35V26.2727H216.994V35H215.34ZM221.798 35.1932C221.245 35.1932 220.745 35.0909 220.298 34.8864C219.851 34.678 219.496 34.3769 219.235 33.983C218.978 33.589 218.849 33.1061 218.849 32.5341C218.849 32.0417 218.943 31.6364 219.133 31.3182C219.322 31 219.578 30.7481 219.9 30.5625C220.222 30.3769 220.582 30.2367 220.979 30.142C221.377 30.0473 221.782 29.9754 222.195 29.9261C222.718 29.8655 223.142 29.8163 223.468 29.7784C223.794 29.7367 224.031 29.6705 224.178 29.5795C224.326 29.4886 224.4 29.3409 224.4 29.1364V29.0966C224.4 28.6004 224.26 28.2159 223.979 27.9432C223.703 27.6705 223.29 27.5341 222.741 27.5341C222.169 27.5341 221.718 27.661 221.389 27.9148C221.063 28.1648 220.837 28.4432 220.712 28.75L219.116 28.3864C219.305 27.8561 219.582 27.428 219.945 27.1023C220.313 26.7727 220.735 26.5341 221.212 26.3864C221.69 26.2348 222.192 26.1591 222.718 26.1591C223.067 26.1591 223.436 26.2008 223.826 26.2841C224.22 26.3636 224.587 26.5114 224.928 26.7273C225.273 26.9432 225.555 27.2519 225.775 27.6534C225.995 28.0511 226.104 28.5682 226.104 29.2045V35H224.445V33.8068H224.377C224.267 34.0265 224.103 34.2424 223.883 34.4545C223.663 34.6667 223.381 34.8428 223.036 34.983C222.692 35.1231 222.279 35.1932 221.798 35.1932ZM222.167 33.8295C222.637 33.8295 223.038 33.7367 223.371 33.5511C223.709 33.3655 223.964 33.1231 224.139 32.8239C224.317 32.5208 224.406 32.197 224.406 31.8523V30.7273C224.345 30.7879 224.228 30.8447 224.053 30.8977C223.883 30.947 223.688 30.9905 223.468 31.0284C223.248 31.0625 223.034 31.0947 222.826 31.125C222.618 31.1515 222.443 31.1742 222.303 31.1932C221.974 31.2348 221.673 31.3049 221.4 31.4034C221.131 31.5019 220.915 31.6439 220.752 31.8295C220.593 32.0114 220.514 32.2538 220.514 32.5568C220.514 32.9773 220.669 33.2955 220.979 33.5114C221.29 33.7235 221.686 33.8295 222.167 33.8295ZM227.285 27.7386V26.2727H234.648V27.7386H231.802V35H230.143V27.7386H227.285ZM243.045 26.2727V35H241.386V26.2727H243.045ZM242.323 30.3239V31.7898C242.062 31.8958 241.785 31.9905 241.494 32.0739C241.202 32.1534 240.895 32.2159 240.573 32.2614C240.251 32.3068 239.916 32.3295 239.568 32.3295C238.488 32.3295 237.63 32.0663 236.994 31.5398C236.357 31.0095 236.039 30.1989 236.039 29.108V26.2557H237.693V29.108C237.693 29.5208 237.768 29.8561 237.92 30.1136C238.071 30.3712 238.287 30.5606 238.568 30.6818C238.848 30.803 239.181 30.8636 239.568 30.8636C240.079 30.8636 240.55 30.8163 240.982 30.7216C241.418 30.6231 241.865 30.4905 242.323 30.3239ZM249.066 35.1761C248.206 35.1761 247.466 34.9924 246.845 34.625C246.227 34.2538 245.75 33.733 245.413 33.0625C245.079 32.3883 244.913 31.5985 244.913 30.6932C244.913 29.7992 245.079 29.0114 245.413 28.3295C245.75 27.6477 246.22 27.1155 246.822 26.733C247.428 26.3504 248.136 26.1591 248.947 26.1591C249.439 26.1591 249.916 26.2405 250.379 26.4034C250.841 26.5663 251.255 26.822 251.623 27.1705C251.99 27.5189 252.28 27.9716 252.492 28.5284C252.704 29.0814 252.81 29.7538 252.81 30.5455V31.1477H245.873V29.875H251.146C251.146 29.428 251.055 29.0322 250.873 28.6875C250.691 28.339 250.435 28.0644 250.106 27.8636C249.78 27.6629 249.398 27.5625 248.958 27.5625C248.481 27.5625 248.064 27.6799 247.708 27.9148C247.356 28.1458 247.083 28.4489 246.89 28.8239C246.701 29.1951 246.606 29.5985 246.606 30.0341V31.0284C246.606 31.6117 246.708 32.108 246.913 32.517C247.121 32.9261 247.411 33.2386 247.782 33.4545C248.153 33.6667 248.587 33.7727 249.083 33.7727C249.405 33.7727 249.699 33.7273 249.964 33.6364C250.229 33.5417 250.458 33.4015 250.651 33.2159C250.845 33.0303 250.992 32.8011 251.095 32.5284L252.702 32.8182C252.574 33.2917 252.343 33.7064 252.009 34.0625C251.68 34.4148 251.265 34.6894 250.765 34.8864C250.269 35.0795 249.702 35.1761 249.066 35.1761ZM256.36 32.6193L260.207 26.2727H262.036V35H260.371V28.6477L256.542 35H254.695V26.2727H256.36V32.6193ZM259.479 23.3182H260.877C260.877 23.9583 260.65 24.4792 260.195 24.8807C259.745 25.2784 259.135 25.4773 258.366 25.4773C257.601 25.4773 256.993 25.2784 256.542 24.8807C256.091 24.4792 255.866 23.9583 255.866 23.3182H257.258C257.258 23.6023 257.341 23.8542 257.508 24.0739C257.675 24.2898 257.961 24.3977 258.366 24.3977C258.764 24.3977 259.048 24.2898 259.218 24.0739C259.392 23.858 259.479 23.6061 259.479 23.3182Z" fill="#AAAAAA"/>
<path d="M29.0853 20.835C29.524 20.835 29.9546 20.9505 30.3349 21.1686L30.3357 21.1678L36.1862 24.5011L36.1895 24.5036L36.329 24.5898C36.6477 24.8022 36.9143 25.0853 37.1069 25.4175C37.3268 25.797 37.4427 26.2276 37.4431 26.6659V33.3341C37.4427 33.7725 37.3268 34.203 37.1069 34.5825C36.8868 34.9621 36.5702 35.2772 36.1895 35.4964L36.1862 35.4989L30.3357 38.8322L30.3349 38.8314C29.9546 39.0494 29.524 39.165 29.0853 39.165C28.6463 39.165 28.2153 39.0497 27.8349 38.8314V38.8322L21.9844 35.4989L21.9811 35.4964C21.6004 35.2772 21.2838 34.9621 21.0637 34.5825C20.8438 34.203 20.7279 33.7725 20.7275 33.3341V26.6659L20.7332 26.5015C20.7587 26.1204 20.8714 25.7494 21.0637 25.4175C21.2837 25.038 21.6004 24.7228 21.9811 24.5036L21.9844 24.5011L27.8349 21.1678V21.1686C28.2153 20.9503 28.6463 20.835 29.0853 20.835ZM29.0853 22.5016C28.9386 22.5016 28.7944 22.54 28.6674 22.6131L28.6641 22.6147L22.8161 25.9456L22.8169 25.9465C22.69 26.0195 22.5842 26.1251 22.5108 26.2516C22.4377 26.378 22.3992 26.5215 22.399 26.6675V33.3325L22.4064 33.4416C22.4208 33.5493 22.456 33.6537 22.5108 33.7484C22.5835 33.8738 22.6882 33.9781 22.8136 34.0511L28.6641 37.3844L28.6674 37.3869C28.7944 37.46 28.9386 37.4984 29.0853 37.4984C29.2319 37.4984 29.3762 37.46 29.5032 37.3869L29.5065 37.3844L35.3569 34.0511C35.4824 33.9781 35.5871 33.8738 35.6597 33.7484C35.7328 33.6222 35.7713 33.479 35.7716 33.3333V26.6675L35.7642 26.5584C35.7499 26.4507 35.7146 26.3464 35.6597 26.2516C35.5864 26.1251 35.4806 26.0195 35.3537 25.9465V25.9456L29.5065 22.6147L29.5032 22.6131C29.3761 22.54 29.232 22.5016 29.0853 22.5016Z" fill="#AAAAAA"/>
<path d="M35.9629 25.079C36.3624 24.8486 36.8736 24.9844 37.1048 25.3825C37.3359 25.7808 37.1997 26.2905 36.8004 26.521L29.5036 30.73C29.2448 30.8791 28.9257 30.8791 28.667 30.73L21.3702 26.521C20.9709 26.2905 20.8347 25.7808 21.0657 25.3825C21.297 24.9844 21.8081 24.8486 22.2076 25.079L29.0849 29.0455L35.9629 25.079Z" fill="#AAAAAA"/>
<path d="M28.2495 38.4001V30.0001C28.2495 29.5398 28.6237 29.1667 29.0853 29.1667C29.5469 29.1667 29.9211 29.5398 29.9211 30.0001V38.4001C29.921 38.8604 29.5469 39.2335 29.0853 39.2335C28.6237 39.2335 28.2495 38.8604 28.2495 38.4001Z" fill="#AAAAAA"/>
<rect y="68" width="341" height="60" rx="16" fill="#1A1A1A"/>
<rect x="0.25" y="68.25" width="340.5" height="59.5" rx="15.75" stroke="url(#paint1_linear_47_6130)" stroke-opacity="0.2" stroke-width="0.5"/>
<path d="M308.197 91.2929C308.588 90.9024 309.223 90.9024 309.615 91.2929L315.633 97.2929C316.024 97.6834 316.024 98.3164 315.633 98.707L309.615 104.707C309.223 105.097 308.588 105.097 308.197 104.707C307.805 104.316 307.805 103.683 308.197 103.293L313.505 97.9999L308.197 92.707C307.805 92.3164 307.805 91.6834 308.197 91.2929Z" fill="#AAAAAA"/>
<path d="M61.0902 95.1477H59.3175C59.2493 94.7689 59.1224 94.4356 58.9368 94.1477C58.7512 93.8598 58.524 93.6155 58.255 93.4148C57.9861 93.214 57.6849 93.0625 57.3516 92.9602C57.0221 92.858 56.6717 92.8068 56.3005 92.8068C55.63 92.8068 55.0296 92.9754 54.4993 93.3125C53.9728 93.6496 53.5562 94.1439 53.2493 94.7955C52.9463 95.447 52.7948 96.2424 52.7948 97.1818C52.7948 98.1288 52.9463 98.928 53.2493 99.5795C53.5562 100.231 53.9747 100.723 54.505 101.057C55.0353 101.39 55.6319 101.557 56.2948 101.557C56.6622 101.557 57.0107 101.508 57.3402 101.409C57.6736 101.307 57.9747 101.157 58.2437 100.96C58.5126 100.763 58.7399 100.523 58.9255 100.239C59.1149 99.9508 59.2455 99.6212 59.3175 99.25L61.0902 99.2557C60.9955 99.8277 60.8118 100.354 60.5391 100.835C60.2702 101.312 59.9236 101.725 59.4993 102.074C59.0789 102.419 58.5978 102.686 58.0562 102.875C57.5145 103.064 56.9236 103.159 56.2834 103.159C55.2759 103.159 54.3781 102.92 53.5902 102.443C52.8024 101.962 52.1812 101.275 51.7266 100.381C51.2759 99.4867 51.0505 98.4205 51.0505 97.1818C51.0505 95.9394 51.2777 94.8731 51.7323 93.983C52.1868 93.089 52.808 92.4034 53.5959 91.9261C54.3838 91.4451 55.2796 91.2045 56.2834 91.2045C56.9009 91.2045 57.4766 91.2936 58.0107 91.4716C58.5486 91.6458 59.0315 91.9034 59.4596 92.2443C59.8876 92.5814 60.2418 92.9943 60.5221 93.483C60.8024 93.9678 60.9918 94.5227 61.0902 95.1477ZM63.0547 103V94.2727H70.1741V103H68.5093V95.7386H64.7081V103H63.0547ZM74.1101 100.619L77.9567 94.2727H79.7863V103H78.1215V96.6477L74.292 103H72.4454V94.2727H74.1101V100.619ZM85.7465 103.176C84.9018 103.176 84.1745 102.985 83.5647 102.602C82.9586 102.216 82.4927 101.684 82.167 101.006C81.8412 100.328 81.6783 99.5511 81.6783 98.6761C81.6783 97.7898 81.845 97.0076 82.1783 96.3295C82.5116 95.6477 82.9813 95.1155 83.5874 94.733C84.1935 94.3504 84.9075 94.1591 85.7295 94.1591C86.3923 94.1591 86.9832 94.2822 87.5022 94.5284C88.0211 94.7708 88.4397 95.1117 88.7579 95.5511C89.0798 95.9905 89.2711 96.5038 89.3317 97.0909H87.6783C87.5874 96.6818 87.3791 96.3295 87.0533 96.0341C86.7313 95.7386 86.2995 95.5909 85.7579 95.5909C85.2844 95.5909 84.8696 95.7159 84.5135 95.9659C84.1613 96.2121 83.8866 96.5644 83.6897 97.0227C83.4927 97.4773 83.3942 98.0152 83.3942 98.6364C83.3942 99.2727 83.4908 99.822 83.684 100.284C83.8772 100.746 84.1499 101.104 84.5022 101.358C84.8582 101.612 85.2768 101.739 85.7579 101.739C86.0798 101.739 86.3715 101.68 86.6329 101.562C86.898 101.441 87.1196 101.269 87.2976 101.045C87.4795 100.822 87.6063 100.553 87.6783 100.239H89.3317C89.2711 100.803 89.0874 101.307 88.7806 101.75C88.4738 102.193 88.0628 102.542 87.5476 102.795C87.0363 103.049 86.4359 103.176 85.7465 103.176ZM94.8246 103.176C94.0064 103.176 93.2924 102.989 92.6826 102.614C92.0727 102.239 91.5992 101.714 91.2621 101.04C90.925 100.366 90.7564 99.5777 90.7564 98.6761C90.7564 97.7708 90.925 96.9792 91.2621 96.3011C91.5992 95.6231 92.0727 95.0966 92.6826 94.7216C93.2924 94.3466 94.0064 94.1591 94.8246 94.1591C95.6428 94.1591 96.3568 94.3466 96.9667 94.7216C97.5765 95.0966 98.05 95.6231 98.3871 96.3011C98.7242 96.9792 98.8928 97.7708 98.8928 98.6761C98.8928 99.5777 98.7242 100.366 98.3871 101.04C98.05 101.714 97.5765 102.239 96.9667 102.614C96.3568 102.989 95.6428 103.176 94.8246 103.176ZM94.8303 101.75C95.3606 101.75 95.8 101.61 96.1485 101.33C96.497 101.049 96.7545 100.676 96.9212 100.21C97.0917 99.7443 97.1769 99.2311 97.1769 98.6705C97.1769 98.1136 97.0917 97.6023 96.9212 97.1364C96.7545 96.6667 96.497 96.2898 96.1485 96.0057C95.8 95.7216 95.3606 95.5795 94.8303 95.5795C94.2962 95.5795 93.853 95.7216 93.5008 96.0057C93.1523 96.2898 92.8928 96.6667 92.7223 97.1364C92.5557 97.6023 92.4723 98.1136 92.4723 98.6705C92.4723 99.2311 92.5557 99.7443 92.7223 100.21C92.8928 100.676 93.1523 101.049 93.5008 101.33C93.853 101.61 94.2962 101.75 94.8303 101.75ZM100.789 103V94.2727H102.488V97.9318H103.306L106.187 94.2727H108.289L104.908 98.517L108.329 103H106.221L103.59 99.5114H102.488V103H100.789ZM116.423 103.193C115.87 103.193 115.37 103.091 114.923 102.886C114.476 102.678 114.121 102.377 113.86 101.983C113.603 101.589 113.474 101.106 113.474 100.534C113.474 100.042 113.568 99.6364 113.758 99.3182C113.947 99 114.203 98.7481 114.525 98.5625C114.847 98.3769 115.207 98.2367 115.604 98.142C116.002 98.0473 116.407 97.9754 116.82 97.9261C117.343 97.8655 117.767 97.8163 118.093 97.7784C118.419 97.7367 118.656 97.6705 118.803 97.5795C118.951 97.4886 119.025 97.3409 119.025 97.1364V97.0966C119.025 96.6004 118.885 96.2159 118.604 95.9432C118.328 95.6705 117.915 95.5341 117.366 95.5341C116.794 95.5341 116.343 95.661 116.014 95.9148C115.688 96.1648 115.462 96.4432 115.337 96.75L113.741 96.3864C113.93 95.8561 114.207 95.428 114.57 95.1023C114.938 94.7727 115.36 94.5341 115.837 94.3864C116.315 94.2348 116.817 94.1591 117.343 94.1591C117.692 94.1591 118.061 94.2008 118.451 94.2841C118.845 94.3636 119.212 94.5114 119.553 94.7273C119.898 94.9432 120.18 95.2519 120.4 95.6534C120.62 96.0511 120.729 96.5682 120.729 97.2045V103H119.07V101.807H119.002C118.892 102.027 118.728 102.242 118.508 102.455C118.288 102.667 118.006 102.843 117.661 102.983C117.317 103.123 116.904 103.193 116.423 103.193ZM116.792 101.83C117.262 101.83 117.663 101.737 117.996 101.551C118.334 101.366 118.589 101.123 118.764 100.824C118.942 100.521 119.031 100.197 119.031 99.8523V98.7273C118.97 98.7879 118.853 98.8447 118.678 98.8977C118.508 98.947 118.313 98.9905 118.093 99.0284C117.873 99.0625 117.659 99.0947 117.451 99.125C117.243 99.1515 117.068 99.1742 116.928 99.1932C116.599 99.2348 116.298 99.3049 116.025 99.4034C115.756 99.5019 115.54 99.6439 115.377 99.8295C115.218 100.011 115.139 100.254 115.139 100.557C115.139 100.977 115.294 101.295 115.604 101.511C115.915 101.723 116.311 101.83 116.792 101.83ZM122.14 105.517V101.528H122.85C123.032 101.362 123.185 101.163 123.31 100.932C123.439 100.701 123.547 100.426 123.634 100.108C123.725 99.7898 123.801 99.4186 123.862 98.9943C123.922 98.5663 123.975 98.0777 124.021 97.5284L124.293 94.2727H130.225V101.528H131.566V105.517H129.907V103H123.822V105.517H122.14ZM124.668 101.528H128.566V95.7273H125.816L125.634 97.5284C125.547 98.4451 125.437 99.2405 125.305 99.9148C125.172 100.585 124.96 101.123 124.668 101.528ZM138.124 100.898L140.943 94.2727H142.408L138.755 103H137.494L133.914 94.2727H135.363L138.124 100.898ZM134.891 94.2727V103H133.227V94.2727H134.891ZM141.403 103V94.2727H143.056V103H141.403ZM146.985 100.619L150.832 94.2727H152.661V103H150.996V96.6477L147.167 103H145.32V94.2727H146.985V100.619ZM160.86 97.9034V99.375H156.133V97.9034H160.86ZM156.61 94.2727V103H154.945V94.2727H156.61ZM162.048 94.2727V103H160.389V94.2727H162.048ZM167.996 103.176C167.178 103.176 166.464 102.989 165.854 102.614C165.245 102.239 164.771 101.714 164.434 101.04C164.097 100.366 163.928 99.5777 163.928 98.6761C163.928 97.7708 164.097 96.9792 164.434 96.3011C164.771 95.6231 165.245 95.0966 165.854 94.7216C166.464 94.3466 167.178 94.1591 167.996 94.1591C168.815 94.1591 169.529 94.3466 170.139 94.7216C170.748 95.0966 171.222 95.6231 171.559 96.3011C171.896 96.9792 172.065 97.7708 172.065 98.6761C172.065 99.5777 171.896 100.366 171.559 101.04C171.222 101.714 170.748 102.239 170.139 102.614C169.529 102.989 168.815 103.176 167.996 103.176ZM168.002 101.75C168.532 101.75 168.972 101.61 169.32 101.33C169.669 101.049 169.926 100.676 170.093 100.21C170.264 99.7443 170.349 99.2311 170.349 98.6705C170.349 98.1136 170.264 97.6023 170.093 97.1364C169.926 96.6667 169.669 96.2898 169.32 96.0057C168.972 95.7216 168.532 95.5795 168.002 95.5795C167.468 95.5795 167.025 95.7216 166.673 96.0057C166.324 96.2898 166.065 96.6667 165.894 97.1364C165.728 97.6023 165.644 98.1136 165.644 98.6705C165.644 99.2311 165.728 99.7443 165.894 100.21C166.065 100.676 166.324 101.049 166.673 101.33C167.025 101.61 167.468 101.75 168.002 101.75ZM173.961 103V94.2727H177.58C178.565 94.2727 179.345 94.483 179.921 94.9034C180.497 95.3201 180.785 95.8864 180.785 96.6023C180.785 97.1136 180.622 97.5189 180.296 97.8182C179.97 98.1174 179.539 98.3182 179.001 98.4205C179.391 98.4659 179.749 98.5833 180.075 98.7727C180.4 98.9583 180.662 99.2083 180.859 99.5227C181.059 99.8371 181.16 100.212 181.16 100.648C181.16 101.11 181.041 101.519 180.802 101.875C180.563 102.227 180.217 102.504 179.762 102.705C179.311 102.902 178.768 103 178.131 103H173.961ZM175.558 101.58H178.131C178.552 101.58 178.881 101.479 179.12 101.278C179.359 101.078 179.478 100.805 179.478 100.46C179.478 100.055 179.359 99.7367 179.12 99.5057C178.881 99.2708 178.552 99.1534 178.131 99.1534H175.558V101.58ZM175.558 97.9091H177.597C177.916 97.9091 178.188 97.8636 178.416 97.7727C178.647 97.6818 178.823 97.553 178.944 97.3864C179.069 97.2159 179.131 97.0152 179.131 96.7841C179.131 96.447 178.993 96.1837 178.717 95.9943C178.44 95.8049 178.061 95.7102 177.58 95.7102H175.558V97.9091Z" fill="#AAAAAA"/>
<path d="M29.0853 88.835C29.524 88.835 29.9546 88.9505 30.3349 89.1686L30.3357 89.1678L36.1862 92.5011L36.1895 92.5036L36.329 92.5898C36.6477 92.8022 36.9143 93.0853 37.1069 93.4175C37.3268 93.797 37.4427 94.2276 37.4431 94.6659V101.334C37.4427 101.772 37.3268 102.203 37.1069 102.583C36.8868 102.962 36.5702 103.277 36.1895 103.496L36.1862 103.499L30.3357 106.832L30.3349 106.831C29.9546 107.049 29.524 107.165 29.0853 107.165C28.6463 107.165 28.2153 107.05 27.8349 106.831V106.832L21.9844 103.499L21.9811 103.496C21.6004 103.277 21.2838 102.962 21.0637 102.583C20.8438 102.203 20.7279 101.772 20.7275 101.334V94.6659L20.7332 94.5015C20.7587 94.1204 20.8714 93.7494 21.0637 93.4175C21.2837 93.038 21.6004 92.7228 21.9811 92.5036L21.9844 92.5011L27.8349 89.1678V89.1686C28.2153 88.9503 28.6463 88.835 29.0853 88.835ZM29.0853 90.5016C28.9386 90.5016 28.7944 90.54 28.6674 90.6131L28.6641 90.6147L22.8161 93.9456L22.8169 93.9465C22.69 94.0195 22.5842 94.1251 22.5108 94.2516C22.4377 94.378 22.3992 94.5215 22.399 94.6675V101.333L22.4064 101.442C22.4208 101.549 22.456 101.654 22.5108 101.748C22.5835 101.874 22.6882 101.978 22.8136 102.051L28.6641 105.384L28.6674 105.387C28.7944 105.46 28.9386 105.498 29.0853 105.498C29.2319 105.498 29.3762 105.46 29.5032 105.387L29.5065 105.384L35.3569 102.051C35.4824 101.978 35.5871 101.874 35.6597 101.748C35.7328 101.622 35.7713 101.479 35.7716 101.333V94.6675L35.7642 94.5584C35.7499 94.4507 35.7146 94.3464 35.6597 94.2516C35.5864 94.1251 35.4806 94.0195 35.3537 93.9465V93.9456L29.5065 90.6147L29.5032 90.6131C29.3761 90.54 29.232 90.5016 29.0853 90.5016Z" fill="#AAAAAA"/>
<path d="M35.9629 93.079C36.3624 92.8486 36.8736 92.9844 37.1048 93.3825C37.3359 93.7808 37.1997 94.2905 36.8004 94.521L29.5036 98.73C29.2448 98.8791 28.9257 98.8791 28.667 98.73L21.3702 94.521C20.9709 94.2905 20.8347 93.7808 21.0657 93.3825C21.297 92.9844 21.8081 92.8486 22.2076 93.079L29.0849 97.0455L35.9629 93.079Z" fill="#AAAAAA"/>
<path d="M28.2495 106.4V98.0001C28.2495 97.5398 28.6237 97.1667 29.0853 97.1667C29.5469 97.1667 29.9211 97.5398 29.9211 98.0001V106.4C29.921 106.86 29.5469 107.233 29.0853 107.233C28.6237 107.233 28.2495 106.86 28.2495 106.4Z" fill="#AAAAAA"/>
<rect y="136" width="341" height="60" rx="16" fill="#1A1A1A"/>
<rect x="0.25" y="136.25" width="340.5" height="59.5" rx="15.75" stroke="url(#paint2_linear_47_6130)" stroke-opacity="0.2" stroke-width="0.5"/>
<path d="M308.197 159.293C308.588 158.902 309.223 158.902 309.615 159.293L315.633 165.293C316.024 165.683 316.024 166.316 315.633 166.707L309.615 172.707C309.223 173.097 308.588 173.097 308.197 172.707C307.805 172.316 307.805 171.683 308.197 171.293L313.505 166L308.197 160.707C307.805 160.316 307.805 159.683 308.197 159.293Z" fill="#AAAAAA"/>
<path d="M51.4255 171V159.364H58.6812V160.875H53.1812V164.057H55.7834C56.6471 164.057 57.38 164.197 57.9823 164.477C58.5884 164.758 59.0505 165.153 59.3687 165.665C59.6906 166.176 59.8516 166.778 59.8516 167.472C59.8516 168.165 59.6906 168.777 59.3687 169.307C59.0505 169.837 58.5884 170.252 57.9823 170.551C57.38 170.85 56.6471 171 55.7834 171H51.4255ZM53.1812 169.523H55.7834C56.2834 169.523 56.7058 169.424 57.0505 169.227C57.399 169.03 57.6622 168.775 57.8402 168.46C58.0221 168.146 58.113 167.809 58.113 167.449C58.113 166.926 57.9122 166.477 57.5107 166.102C57.1092 165.723 56.5334 165.534 55.7834 165.534H53.1812V169.523ZM64.3289 171.193C63.7759 171.193 63.2759 171.091 62.8289 170.886C62.3819 170.678 62.0277 170.377 61.7664 169.983C61.5088 169.589 61.38 169.106 61.38 168.534C61.38 168.042 61.4747 167.636 61.6641 167.318C61.8535 167 62.1092 166.748 62.4312 166.562C62.7531 166.377 63.113 166.237 63.5107 166.142C63.9084 166.047 64.3137 165.975 64.7266 165.926C65.2493 165.866 65.6736 165.816 65.9993 165.778C66.3251 165.737 66.5618 165.67 66.7096 165.58C66.8573 165.489 66.9312 165.341 66.9312 165.136V165.097C66.9312 164.6 66.791 164.216 66.5107 163.943C66.2342 163.67 65.8213 163.534 65.2721 163.534C64.7001 163.534 64.2493 163.661 63.9198 163.915C63.594 164.165 63.3687 164.443 63.2437 164.75L61.6471 164.386C61.8365 163.856 62.113 163.428 62.4766 163.102C62.844 162.773 63.2664 162.534 63.7437 162.386C64.2209 162.235 64.7228 162.159 65.2493 162.159C65.5978 162.159 65.9671 162.201 66.3573 162.284C66.7512 162.364 67.1187 162.511 67.4596 162.727C67.8043 162.943 68.0865 163.252 68.3062 163.653C68.5259 164.051 68.6357 164.568 68.6357 165.205V171H66.9766V169.807H66.9084C66.7986 170.027 66.6338 170.242 66.4141 170.455C66.1944 170.667 65.9122 170.843 65.5675 170.983C65.2228 171.123 64.8099 171.193 64.3289 171.193ZM64.6982 169.83C65.1679 169.83 65.5694 169.737 65.9027 169.551C66.2399 169.366 66.4955 169.123 66.6698 168.824C66.8478 168.521 66.9368 168.197 66.9368 167.852V166.727C66.8762 166.788 66.7588 166.845 66.5846 166.898C66.4141 166.947 66.219 166.991 65.9993 167.028C65.7796 167.062 65.5656 167.095 65.3573 167.125C65.149 167.152 64.9747 167.174 64.8346 167.193C64.505 167.235 64.2039 167.305 63.9312 167.403C63.6622 167.502 63.4463 167.644 63.2834 167.83C63.1243 168.011 63.0448 168.254 63.0448 168.557C63.0448 168.977 63.2001 169.295 63.5107 169.511C63.8213 169.723 64.2171 169.83 64.6982 169.83ZM70.3814 168.693H72.1201C72.1428 169.049 72.3038 169.324 72.603 169.517C72.9061 169.71 73.2981 169.807 73.7792 169.807C74.2678 169.807 74.6845 169.703 75.0292 169.494C75.3739 169.282 75.5462 168.955 75.5462 168.511C75.5462 168.246 75.4799 168.015 75.3473 167.818C75.2186 167.617 75.0348 167.462 74.7962 167.352C74.5614 167.242 74.283 167.188 73.961 167.188H72.5405V165.852H73.961C74.442 165.852 74.8019 165.742 75.0405 165.523C75.2792 165.303 75.3985 165.028 75.3985 164.699C75.3985 164.343 75.2697 164.057 75.0121 163.841C74.7583 163.621 74.4042 163.511 73.9496 163.511C73.4875 163.511 73.103 163.616 72.7962 163.824C72.4894 164.028 72.3284 164.294 72.3133 164.619H70.5973C70.6087 164.131 70.7564 163.703 71.0405 163.335C71.3284 162.964 71.7148 162.676 72.1996 162.472C72.6883 162.263 73.2432 162.159 73.8644 162.159C74.5121 162.159 75.0727 162.263 75.5462 162.472C76.0197 162.68 76.3852 162.968 76.6428 163.335C76.9042 163.703 77.0348 164.125 77.0348 164.602C77.0348 165.083 76.8909 165.477 76.603 165.784C76.3189 166.087 75.9477 166.305 75.4894 166.438V166.528C75.8265 166.551 76.1258 166.653 76.3871 166.835C76.6485 167.017 76.853 167.258 77.0008 167.557C77.1485 167.856 77.2223 168.195 77.2223 168.574C77.2223 169.108 77.0746 169.57 76.7792 169.96C76.4875 170.35 76.0822 170.652 75.5633 170.864C75.0481 171.072 74.4591 171.176 73.7962 171.176C73.1523 171.176 72.5746 171.076 72.0633 170.875C71.5557 170.67 71.1523 170.383 70.853 170.011C70.5576 169.64 70.4004 169.201 70.3814 168.693ZM80.255 165.273H82.7891C83.8573 165.273 84.6793 165.538 85.255 166.068C85.8308 166.598 86.1187 167.282 86.1187 168.119C86.1187 168.665 85.9899 169.155 85.7323 169.591C85.4747 170.027 85.0978 170.371 84.6016 170.625C84.1054 170.875 83.5012 171 82.7891 171H78.9766V162.273H80.6414V169.534H82.7891C83.2777 169.534 83.6793 169.407 83.9937 169.153C84.308 168.896 84.4652 168.568 84.4652 168.17C84.4652 167.75 84.308 167.407 83.9937 167.142C83.6793 166.873 83.2777 166.739 82.7891 166.739H80.255V165.273ZM87.3573 171V162.273H89.0562V171H87.3573ZM94.7181 173.517V169.528H95.4283C95.6101 169.362 95.7635 169.163 95.8885 168.932C96.0173 168.701 96.1253 168.426 96.2124 168.108C96.3033 167.79 96.3791 167.419 96.4397 166.994C96.5003 166.566 96.5533 166.078 96.5988 165.528L96.8715 162.273H102.803V169.528H104.144V173.517H102.485V171H96.3999V173.517H94.7181ZM97.2465 169.528H101.144V163.727H98.3942L98.2124 165.528C98.1253 166.445 98.0154 167.241 97.8829 167.915C97.7503 168.585 97.5382 169.123 97.2465 169.528ZM108.345 171.193C107.791 171.193 107.291 171.091 106.845 170.886C106.398 170.678 106.043 170.377 105.782 169.983C105.524 169.589 105.396 169.106 105.396 168.534C105.396 168.042 105.49 167.636 105.68 167.318C105.869 167 106.125 166.748 106.447 166.562C106.769 166.377 107.129 166.237 107.526 166.142C107.924 166.047 108.329 165.975 108.742 165.926C109.265 165.866 109.689 165.816 110.015 165.778C110.341 165.737 110.577 165.67 110.725 165.58C110.873 165.489 110.947 165.341 110.947 165.136V165.097C110.947 164.6 110.807 164.216 110.526 163.943C110.25 163.67 109.837 163.534 109.288 163.534C108.716 163.534 108.265 163.661 107.935 163.915C107.61 164.165 107.384 164.443 107.259 164.75L105.663 164.386C105.852 163.856 106.129 163.428 106.492 163.102C106.86 162.773 107.282 162.534 107.759 162.386C108.237 162.235 108.738 162.159 109.265 162.159C109.613 162.159 109.983 162.201 110.373 162.284C110.767 162.364 111.134 162.511 111.475 162.727C111.82 162.943 112.102 163.252 112.322 163.653C112.541 164.051 112.651 164.568 112.651 165.205V171H110.992V169.807H110.924C110.814 170.027 110.649 170.242 110.43 170.455C110.21 170.667 109.928 170.843 109.583 170.983C109.238 171.123 108.826 171.193 108.345 171.193ZM108.714 169.83C109.184 169.83 109.585 169.737 109.918 169.551C110.255 169.366 110.511 169.123 110.685 168.824C110.863 168.521 110.952 168.197 110.952 167.852V166.727C110.892 166.788 110.774 166.845 110.6 166.898C110.43 166.947 110.235 166.991 110.015 167.028C109.795 167.062 109.581 167.095 109.373 167.125C109.165 167.152 108.99 167.174 108.85 167.193C108.521 167.235 108.22 167.305 107.947 167.403C107.678 167.502 107.462 167.644 107.299 167.83C107.14 168.011 107.06 168.254 107.06 168.557C107.06 168.977 107.216 169.295 107.526 169.511C107.837 169.723 108.233 169.83 108.714 169.83ZM120.829 165.903V167.375H116.102V165.903H120.829ZM116.579 162.273V171H114.914V162.273H116.579ZM122.016 162.273V171H120.357V162.273H122.016ZM130.204 165.903V167.375H125.477V165.903H130.204ZM125.954 162.273V171H124.289V162.273H125.954ZM131.391 162.273V171H129.732V162.273H131.391ZM134.943 165.273H137.477C138.545 165.273 139.367 165.538 139.943 166.068C140.518 166.598 140.806 167.282 140.806 168.119C140.806 168.665 140.677 169.155 140.42 169.591C140.162 170.027 139.785 170.371 139.289 170.625C138.793 170.875 138.189 171 137.477 171H133.664V162.273H135.329V169.534H137.477C137.965 169.534 138.367 169.407 138.681 169.153C138.996 168.896 139.153 168.568 139.153 168.17C139.153 167.75 138.996 167.407 138.681 167.142C138.367 166.873 137.965 166.739 137.477 166.739H134.943V165.273ZM142.045 171V162.273H143.744V171H142.045ZM147.364 162.273L149.291 165.67L151.234 162.273H153.092L150.37 166.636L153.114 171H151.256L149.291 167.739L147.33 171H145.467L148.183 166.636L145.501 162.273H147.364Z" fill="#AAAAAA"/>
<path d="M29.0853 156.835C29.524 156.835 29.9546 156.951 30.3349 157.169L30.3357 157.168L36.1862 160.501L36.1895 160.504L36.329 160.59C36.6477 160.802 36.9143 161.085 37.1069 161.417C37.3268 161.797 37.4427 162.228 37.4431 162.666V169.334C37.4427 169.772 37.3268 170.203 37.1069 170.583C36.8868 170.962 36.5702 171.277 36.1895 171.496L36.1862 171.499L30.3357 174.832L30.3349 174.831C29.9546 175.049 29.524 175.165 29.0853 175.165C28.6463 175.165 28.2153 175.05 27.8349 174.831V174.832L21.9844 171.499L21.9811 171.496C21.6004 171.277 21.2838 170.962 21.0637 170.583C20.8438 170.203 20.7279 169.772 20.7275 169.334V162.666L20.7332 162.501C20.7587 162.12 20.8714 161.749 21.0637 161.417C21.2837 161.038 21.6004 160.723 21.9811 160.504L21.9844 160.501L27.8349 157.168V157.169C28.2153 156.95 28.6463 156.835 29.0853 156.835ZM29.0853 158.502C28.9386 158.502 28.7944 158.54 28.6674 158.613L28.6641 158.615L22.8161 161.946L22.8169 161.946C22.69 162.02 22.5842 162.125 22.5108 162.252C22.4377 162.378 22.3992 162.522 22.399 162.667V169.333L22.4064 169.442C22.4208 169.549 22.456 169.654 22.5108 169.748C22.5835 169.874 22.6882 169.978 22.8136 170.051L28.6641 173.384L28.6674 173.387C28.7944 173.46 28.9386 173.498 29.0853 173.498C29.2319 173.498 29.3762 173.46 29.5032 173.387L29.5065 173.384L35.3569 170.051C35.4824 169.978 35.5871 169.874 35.6597 169.748C35.7328 169.622 35.7713 169.479 35.7716 169.333V162.667L35.7642 162.558C35.7499 162.451 35.7146 162.346 35.6597 162.252C35.5864 162.125 35.4806 162.02 35.3537 161.946V161.946L29.5065 158.615L29.5032 158.613C29.3761 158.54 29.232 158.502 29.0853 158.502Z" fill="#AAAAAA"/>
<path d="M35.9629 161.079C36.3624 160.849 36.8736 160.984 37.1048 161.383C37.3359 161.781 37.1997 162.291 36.8004 162.521L29.5036 166.73C29.2448 166.879 28.9257 166.879 28.667 166.73L21.3702 162.521C20.9709 162.291 20.8347 161.781 21.0657 161.383C21.297 160.984 21.8081 160.849 22.2076 161.079L29.0849 165.045L35.9629 161.079Z" fill="#AAAAAA"/>
<path d="M28.2495 174.4V166C28.2495 165.54 28.6237 165.167 29.0853 165.167C29.5469 165.167 29.9211 165.54 29.9211 166V174.4C29.921 174.86 29.5469 175.233 29.0853 175.233C28.6237 175.233 28.2495 174.86 28.2495 174.4Z" fill="#AAAAAA"/>
<rect y="204" width="341" height="60" rx="16" fill="#1A1A1A"/>
<rect x="0.25" y="204.25" width="340.5" height="59.5" rx="15.75" stroke="url(#paint3_linear_47_6130)" stroke-opacity="0.2" stroke-width="0.5"/>
<path d="M308.197 227.293C308.588 226.902 309.223 226.902 309.615 227.293L315.633 233.293C316.024 233.683 316.024 234.316 315.633 234.707L309.615 240.707C309.223 241.097 308.588 241.097 308.197 240.707C307.805 240.316 307.805 239.683 308.197 239.293L313.505 234L308.197 228.707C307.805 228.316 307.805 227.683 308.197 227.293Z" fill="#AAAAAA"/>
<path d="M61.0902 231.148H59.3175C59.2493 230.769 59.1224 230.436 58.9368 230.148C58.7512 229.86 58.524 229.616 58.255 229.415C57.9861 229.214 57.6849 229.062 57.3516 228.96C57.0221 228.858 56.6717 228.807 56.3005 228.807C55.63 228.807 55.0296 228.975 54.4993 229.312C53.9728 229.65 53.5562 230.144 53.2493 230.795C52.9463 231.447 52.7948 232.242 52.7948 233.182C52.7948 234.129 52.9463 234.928 53.2493 235.58C53.5562 236.231 53.9747 236.723 54.505 237.057C55.0353 237.39 55.6319 237.557 56.2948 237.557C56.6622 237.557 57.0107 237.508 57.3402 237.409C57.6736 237.307 57.9747 237.157 58.2437 236.96C58.5126 236.763 58.7399 236.523 58.9255 236.239C59.1149 235.951 59.2455 235.621 59.3175 235.25L61.0902 235.256C60.9955 235.828 60.8118 236.354 60.5391 236.835C60.2702 237.312 59.9236 237.725 59.4993 238.074C59.0789 238.419 58.5978 238.686 58.0562 238.875C57.5145 239.064 56.9236 239.159 56.2834 239.159C55.2759 239.159 54.3781 238.92 53.5902 238.443C52.8024 237.962 52.1812 237.275 51.7266 236.381C51.2759 235.487 51.0505 234.42 51.0505 233.182C51.0505 231.939 51.2777 230.873 51.7323 229.983C52.1868 229.089 52.808 228.403 53.5959 227.926C54.3838 227.445 55.2796 227.205 56.2834 227.205C56.9009 227.205 57.4766 227.294 58.0107 227.472C58.5486 227.646 59.0315 227.903 59.4596 228.244C59.8876 228.581 60.2418 228.994 60.5221 229.483C60.8024 229.968 60.9918 230.523 61.0902 231.148ZM66.7309 239.176C65.9127 239.176 65.1987 238.989 64.5888 238.614C63.979 238.239 63.5055 237.714 63.1684 237.04C62.8312 236.366 62.6627 235.578 62.6627 234.676C62.6627 233.771 62.8312 232.979 63.1684 232.301C63.5055 231.623 63.979 231.097 64.5888 230.722C65.1987 230.347 65.9127 230.159 66.7309 230.159C67.5491 230.159 68.2631 230.347 68.8729 230.722C69.4828 231.097 69.9562 231.623 70.2934 232.301C70.6305 232.979 70.7991 233.771 70.7991 234.676C70.7991 235.578 70.6305 236.366 70.2934 237.04C69.9562 237.714 69.4828 238.239 68.8729 238.614C68.2631 238.989 67.5491 239.176 66.7309 239.176ZM66.7366 237.75C67.2669 237.75 67.7063 237.61 68.0547 237.33C68.4032 237.049 68.6608 236.676 68.8275 236.21C68.9979 235.744 69.0831 235.231 69.0831 234.67C69.0831 234.114 68.9979 233.602 68.8275 233.136C68.6608 232.667 68.4032 232.29 68.0547 232.006C67.7063 231.722 67.2669 231.58 66.7366 231.58C66.2025 231.58 65.7593 231.722 65.407 232.006C65.0585 232.29 64.7991 232.667 64.6286 233.136C64.4619 233.602 64.3786 234.114 64.3786 234.67C64.3786 235.231 64.4619 235.744 64.6286 236.21C64.7991 236.676 65.0585 237.049 65.407 237.33C65.7593 237.61 66.2025 237.75 66.7366 237.75ZM72.1783 236.693H73.917C73.9397 237.049 74.1007 237.324 74.3999 237.517C74.7029 237.71 75.095 237.807 75.576 237.807C76.0647 237.807 76.4813 237.703 76.826 237.494C77.1707 237.282 77.3431 236.955 77.3431 236.511C77.3431 236.246 77.2768 236.015 77.1442 235.818C77.0154 235.617 76.8317 235.462 76.5931 235.352C76.3582 235.242 76.0798 235.188 75.7579 235.188H74.3374V233.852H75.7579C76.2389 233.852 76.5988 233.742 76.8374 233.523C77.076 233.303 77.1954 233.028 77.1954 232.699C77.1954 232.343 77.0666 232.057 76.809 231.841C76.5552 231.621 76.201 231.511 75.7465 231.511C75.2844 231.511 74.8999 231.616 74.5931 231.824C74.2863 232.028 74.1253 232.294 74.1101 232.619H72.3942C72.4056 232.131 72.5533 231.703 72.8374 231.335C73.1253 230.964 73.5116 230.676 73.9965 230.472C74.4851 230.263 75.0401 230.159 75.6613 230.159C76.309 230.159 76.8696 230.263 77.3431 230.472C77.8166 230.68 78.1821 230.968 78.4397 231.335C78.701 231.703 78.8317 232.125 78.8317 232.602C78.8317 233.083 78.6878 233.477 78.3999 233.784C78.1158 234.087 77.7446 234.305 77.2863 234.438V234.528C77.6234 234.551 77.9226 234.653 78.184 234.835C78.4454 235.017 78.6499 235.258 78.7976 235.557C78.9454 235.856 79.0192 236.195 79.0192 236.574C79.0192 237.108 78.8715 237.57 78.576 237.96C78.2844 238.35 77.8791 238.652 77.3601 238.864C76.845 239.072 76.256 239.176 75.5931 239.176C74.9491 239.176 74.3715 239.076 73.8601 238.875C73.3526 238.67 72.9491 238.383 72.6499 238.011C72.3545 237.64 72.1973 237.201 72.1783 236.693ZM79.9212 241.517V237.528H80.6314C80.8133 237.362 80.9667 237.163 81.0917 236.932C81.2205 236.701 81.3284 236.426 81.4155 236.108C81.5064 235.79 81.5822 235.419 81.6428 234.994C81.7034 234.566 81.7564 234.078 81.8019 233.528L82.0746 230.273H88.0064V237.528H89.3473V241.517H87.6883V239H81.603V241.517H79.9212ZM82.4496 237.528H86.3473V231.727H83.5973L83.4155 233.528C83.3284 234.445 83.2186 235.241 83.086 235.915C82.9534 236.585 82.7413 237.123 82.4496 237.528ZM93.5476 239.193C92.9946 239.193 92.4946 239.091 92.0476 238.886C91.6007 238.678 91.2465 238.377 90.9851 237.983C90.7276 237.589 90.5988 237.106 90.5988 236.534C90.5988 236.042 90.6935 235.636 90.8829 235.318C91.0723 235 91.3279 234.748 91.6499 234.562C91.9719 234.377 92.3317 234.237 92.7295 234.142C93.1272 234.047 93.5325 233.975 93.9454 233.926C94.4681 233.866 94.8923 233.816 95.2181 233.778C95.5438 233.737 95.7806 233.67 95.9283 233.58C96.076 233.489 96.1499 233.341 96.1499 233.136V233.097C96.1499 232.6 96.0098 232.216 95.7295 231.943C95.4529 231.67 95.0401 231.534 94.4908 231.534C93.9188 231.534 93.4681 231.661 93.1385 231.915C92.8128 232.165 92.5874 232.443 92.4624 232.75L90.8658 232.386C91.0552 231.856 91.3317 231.428 91.6954 231.102C92.0628 230.773 92.4851 230.534 92.9624 230.386C93.4397 230.235 93.9416 230.159 94.4681 230.159C94.8166 230.159 95.1859 230.201 95.576 230.284C95.97 230.364 96.3374 230.511 96.6783 230.727C97.023 230.943 97.3052 231.252 97.5249 231.653C97.7446 232.051 97.8545 232.568 97.8545 233.205V239H96.1954V237.807H96.1272C96.0173 238.027 95.8526 238.242 95.6329 238.455C95.4132 238.667 95.131 238.843 94.7863 238.983C94.4416 239.123 94.0287 239.193 93.5476 239.193ZM93.917 237.83C94.3866 237.83 94.7882 237.737 95.1215 237.551C95.4586 237.366 95.7143 237.123 95.8885 236.824C96.0666 236.521 96.1556 236.197 96.1556 235.852V234.727C96.095 234.788 95.9776 234.845 95.8033 234.898C95.6329 234.947 95.4378 234.991 95.2181 235.028C94.9984 235.062 94.7844 235.095 94.576 235.125C94.3677 235.152 94.1935 235.174 94.0533 235.193C93.7238 235.235 93.4226 235.305 93.1499 235.403C92.881 235.502 92.6651 235.644 92.5022 235.83C92.3431 236.011 92.2635 236.254 92.2635 236.557C92.2635 236.977 92.4188 237.295 92.7295 237.511C93.0401 237.723 93.4359 237.83 93.917 237.83ZM106.032 233.903V235.375H101.305V233.903H106.032ZM101.782 230.273V239H100.117V230.273H101.782ZM107.22 230.273V239H105.56V230.273H107.22ZM111.157 236.619L115.004 230.273H116.833V239H115.168V232.648L111.339 239H109.492V230.273H111.157V236.619ZM122.879 239.176C122.019 239.176 121.278 238.992 120.657 238.625C120.04 238.254 119.562 237.733 119.225 237.062C118.892 236.388 118.725 235.598 118.725 234.693C118.725 233.799 118.892 233.011 119.225 232.33C119.562 231.648 120.032 231.116 120.634 230.733C121.24 230.35 121.949 230.159 122.759 230.159C123.252 230.159 123.729 230.241 124.191 230.403C124.653 230.566 125.068 230.822 125.435 231.17C125.803 231.519 126.093 231.972 126.305 232.528C126.517 233.081 126.623 233.754 126.623 234.545V235.148H119.685V233.875H124.958C124.958 233.428 124.867 233.032 124.685 232.688C124.504 232.339 124.248 232.064 123.918 231.864C123.593 231.663 123.21 231.562 122.771 231.562C122.293 231.562 121.877 231.68 121.521 231.915C121.168 232.146 120.896 232.449 120.702 232.824C120.513 233.195 120.418 233.598 120.418 234.034V235.028C120.418 235.612 120.521 236.108 120.725 236.517C120.934 236.926 121.223 237.239 121.595 237.455C121.966 237.667 122.399 237.773 122.896 237.773C123.218 237.773 123.511 237.727 123.776 237.636C124.041 237.542 124.271 237.402 124.464 237.216C124.657 237.03 124.805 236.801 124.907 236.528L126.515 236.818C126.386 237.292 126.155 237.706 125.822 238.062C125.492 238.415 125.077 238.689 124.577 238.886C124.081 239.08 123.515 239.176 122.879 239.176ZM132.742 239V230.273H139.862V239H138.197V231.739H134.396V239H132.742ZM143.798 236.619L147.644 230.273H149.474V239H147.809V232.648L143.979 239H142.133V230.273H143.798V236.619ZM151.758 239V230.273H153.457V233.932H154.275L157.156 230.273H159.258L155.877 234.517L159.298 239H157.19L154.559 235.511H153.457V239H151.758ZM167.623 230.273V239H165.964V230.273H167.623ZM166.901 234.324V235.79C166.64 235.896 166.363 235.991 166.072 236.074C165.78 236.153 165.473 236.216 165.151 236.261C164.829 236.307 164.494 236.33 164.146 236.33C163.066 236.33 162.208 236.066 161.572 235.54C160.935 235.009 160.617 234.199 160.617 233.108V230.256H162.271V233.108C162.271 233.521 162.346 233.856 162.498 234.114C162.649 234.371 162.865 234.561 163.146 234.682C163.426 234.803 163.759 234.864 164.146 234.864C164.657 234.864 165.129 234.816 165.56 234.722C165.996 234.623 166.443 234.491 166.901 234.324Z" fill="#AAAAAA"/>
<path d="M29.0853 224.835C29.524 224.835 29.9546 224.951 30.3349 225.169L30.3357 225.168L36.1862 228.501L36.1895 228.504L36.329 228.59C36.6477 228.802 36.9143 229.085 37.1069 229.417C37.3268 229.797 37.4427 230.228 37.4431 230.666V237.334C37.4427 237.772 37.3268 238.203 37.1069 238.583C36.8868 238.962 36.5702 239.277 36.1895 239.496L36.1862 239.499L30.3357 242.832L30.3349 242.831C29.9546 243.049 29.524 243.165 29.0853 243.165C28.6463 243.165 28.2153 243.05 27.8349 242.831V242.832L21.9844 239.499L21.9811 239.496C21.6004 239.277 21.2838 238.962 21.0637 238.583C20.8438 238.203 20.7279 237.772 20.7275 237.334V230.666L20.7332 230.501C20.7587 230.12 20.8714 229.749 21.0637 229.417C21.2837 229.038 21.6004 228.723 21.9811 228.504L21.9844 228.501L27.8349 225.168V225.169C28.2153 224.95 28.6463 224.835 29.0853 224.835ZM29.0853 226.502C28.9386 226.502 28.7944 226.54 28.6674 226.613L28.6641 226.615L22.8161 229.946L22.8169 229.946C22.69 230.02 22.5842 230.125 22.5108 230.252C22.4377 230.378 22.3992 230.522 22.399 230.667V237.333L22.4064 237.442C22.4208 237.549 22.456 237.654 22.5108 237.748C22.5835 237.874 22.6882 237.978 22.8136 238.051L28.6641 241.384L28.6674 241.387C28.7944 241.46 28.9386 241.498 29.0853 241.498C29.2319 241.498 29.3762 241.46 29.5032 241.387L29.5065 241.384L35.3569 238.051C35.4824 237.978 35.5871 237.874 35.6597 237.748C35.7328 237.622 35.7713 237.479 35.7716 237.333V230.667L35.7642 230.558C35.7499 230.451 35.7146 230.346 35.6597 230.252C35.5864 230.125 35.4806 230.02 35.3537 229.946V229.946L29.5065 226.615L29.5032 226.613C29.3761 226.54 29.232 226.502 29.0853 226.502Z" fill="#AAAAAA"/>
<path d="M35.9629 229.079C36.3624 228.849 36.8736 228.984 37.1048 229.383C37.3359 229.781 37.1997 230.291 36.8004 230.521L29.5036 234.73C29.2448 234.879 28.9257 234.879 28.667 234.73L21.3702 230.521C20.9709 230.291 20.8347 229.781 21.0657 229.383C21.297 228.984 21.8081 228.849 22.2076 229.079L29.0849 233.045L35.9629 229.079Z" fill="#AAAAAA"/>
<path d="M28.2495 242.4V234C28.2495 233.54 28.6237 233.167 29.0853 233.167C29.5469 233.167 29.9211 233.54 29.9211 234V242.4C29.921 242.86 29.5469 243.233 29.0853 243.233C28.6237 243.233 28.2495 242.86 28.2495 242.4Z" fill="#AAAAAA"/>
<rect y="272" width="341" height="60" rx="16" fill="#1A1A1A"/>
<rect x="0.25" y="272.25" width="340.5" height="59.5" rx="15.75" stroke="url(#paint4_linear_47_6130)" stroke-opacity="0.2" stroke-width="0.5"/>
<path d="M308.197 295.293C308.588 294.902 309.223 294.902 309.615 295.293L315.633 301.293C316.024 301.683 316.024 302.316 315.633 302.707L309.615 308.707C309.223 309.097 308.588 309.097 308.197 308.707C307.805 308.316 307.805 307.683 308.197 307.293L313.505 302L308.197 296.707C307.805 296.316 307.805 295.683 308.197 295.293Z" fill="#AAAAAA"/>
<path d="M51.4255 307V295.364H55.5732C56.4785 295.364 57.2285 295.528 57.8232 295.858C58.4179 296.187 58.863 296.638 59.1584 297.21C59.4539 297.778 59.6016 298.419 59.6016 299.131C59.6016 299.847 59.452 300.491 59.1527 301.062C58.8573 301.631 58.4103 302.081 57.8118 302.415C57.2171 302.744 56.469 302.909 55.5675 302.909H52.7152V301.42H55.4084C55.9804 301.42 56.4444 301.322 56.8005 301.125C57.1565 300.924 57.4179 300.652 57.5846 300.307C57.7512 299.962 57.8346 299.57 57.8346 299.131C57.8346 298.691 57.7512 298.301 57.5846 297.96C57.4179 297.619 57.1546 297.352 56.7948 297.159C56.4387 296.966 55.969 296.869 55.3857 296.869H53.1812V307H51.4255ZM63.9851 307.193C63.4321 307.193 62.9321 307.091 62.4851 306.886C62.0382 306.678 61.684 306.377 61.4226 305.983C61.1651 305.589 61.0363 305.106 61.0363 304.534C61.0363 304.042 61.131 303.636 61.3204 303.318C61.5098 303 61.7654 302.748 62.0874 302.562C62.4094 302.377 62.7692 302.237 63.167 302.142C63.5647 302.047 63.97 301.975 64.3829 301.926C64.9056 301.866 65.3298 301.816 65.6556 301.778C65.9813 301.737 66.2181 301.67 66.3658 301.58C66.5135 301.489 66.5874 301.341 66.5874 301.136V301.097C66.5874 300.6 66.4473 300.216 66.167 299.943C65.8904 299.67 65.4776 299.534 64.9283 299.534C64.3563 299.534 63.9056 299.661 63.576 299.915C63.2503 300.165 63.0249 300.443 62.8999 300.75L61.3033 300.386C61.4927 299.856 61.7692 299.428 62.1329 299.102C62.5003 298.773 62.9226 298.534 63.3999 298.386C63.8772 298.235 64.3791 298.159 64.9056 298.159C65.2541 298.159 65.6234 298.201 66.0135 298.284C66.4075 298.364 66.7749 298.511 67.1158 298.727C67.4605 298.943 67.7427 299.252 67.9624 299.653C68.1821 300.051 68.292 300.568 68.292 301.205V307H66.6329V305.807H66.5647C66.4548 306.027 66.2901 306.242 66.0704 306.455C65.8507 306.667 65.5685 306.843 65.2238 306.983C64.8791 307.123 64.4662 307.193 63.9851 307.193ZM64.3545 305.83C64.8241 305.83 65.2257 305.737 65.559 305.551C65.8961 305.366 66.1518 305.123 66.326 304.824C66.5041 304.521 66.5931 304.197 66.5931 303.852V302.727C66.5325 302.788 66.4151 302.845 66.2408 302.898C66.0704 302.947 65.8753 302.991 65.6556 303.028C65.4359 303.062 65.2219 303.095 65.0135 303.125C64.8052 303.152 64.631 303.174 64.4908 303.193C64.1613 303.235 63.8601 303.305 63.5874 303.403C63.3185 303.502 63.1026 303.644 62.9397 303.83C62.7806 304.011 62.701 304.254 62.701 304.557C62.701 304.977 62.8563 305.295 63.167 305.511C63.4776 305.723 63.8734 305.83 64.3545 305.83ZM74.2309 307.176C73.3862 307.176 72.6589 306.985 72.0491 306.602C71.443 306.216 70.9771 305.684 70.6513 305.006C70.3256 304.328 70.1627 303.551 70.1627 302.676C70.1627 301.79 70.3294 301.008 70.6627 300.33C70.996 299.648 71.4657 299.116 72.0718 298.733C72.6778 298.35 73.3919 298.159 74.2138 298.159C74.8767 298.159 75.4676 298.282 75.9866 298.528C76.5055 298.771 76.9241 299.112 77.2422 299.551C77.5642 299.991 77.7555 300.504 77.8161 301.091H76.1627C76.0718 300.682 75.8634 300.33 75.5377 300.034C75.2157 299.739 74.7839 299.591 74.2422 299.591C73.7688 299.591 73.354 299.716 72.9979 299.966C72.6456 300.212 72.371 300.564 72.1741 301.023C71.9771 301.477 71.8786 302.015 71.8786 302.636C71.8786 303.273 71.9752 303.822 72.1684 304.284C72.3616 304.746 72.6343 305.104 72.9866 305.358C73.3426 305.612 73.7612 305.739 74.2422 305.739C74.5642 305.739 74.8559 305.68 75.1172 305.562C75.3824 305.441 75.604 305.269 75.782 305.045C75.9638 304.822 76.0907 304.553 76.1627 304.239H77.8161C77.7555 304.803 77.5718 305.307 77.265 305.75C76.9581 306.193 76.5472 306.542 76.032 306.795C75.5206 307.049 74.9203 307.176 74.2309 307.176ZM83.309 307.176C82.4643 307.176 81.737 306.985 81.1272 306.602C80.5211 306.216 80.0552 305.684 79.7295 305.006C79.4037 304.328 79.2408 303.551 79.2408 302.676C79.2408 301.79 79.4075 301.008 79.7408 300.33C80.0741 299.648 80.5438 299.116 81.1499 298.733C81.756 298.35 82.47 298.159 83.292 298.159C83.9548 298.159 84.5457 298.282 85.0647 298.528C85.5836 298.771 86.0022 299.112 86.3204 299.551C86.6423 299.991 86.8336 300.504 86.8942 301.091H85.2408C85.1499 300.682 84.9416 300.33 84.6158 300.034C84.2938 299.739 83.862 299.591 83.3204 299.591C82.8469 299.591 82.4321 299.716 82.076 299.966C81.7238 300.212 81.4491 300.564 81.2522 301.023C81.0552 301.477 80.9567 302.015 80.9567 302.636C80.9567 303.273 81.0533 303.822 81.2465 304.284C81.4397 304.746 81.7124 305.104 82.0647 305.358C82.4207 305.612 82.8393 305.739 83.3204 305.739C83.6423 305.739 83.934 305.68 84.1954 305.562C84.4605 305.441 84.6821 305.269 84.8601 305.045C85.042 304.822 85.1688 304.553 85.2408 304.239H86.8942C86.8336 304.803 86.6499 305.307 86.3431 305.75C86.0363 306.193 85.6253 306.542 85.1101 306.795C84.5988 307.049 83.9984 307.176 83.309 307.176ZM89.9894 301.273H92.5235C93.5917 301.273 94.4136 301.538 94.9894 302.068C95.5652 302.598 95.853 303.282 95.853 304.119C95.853 304.665 95.7242 305.155 95.4667 305.591C95.2091 306.027 94.8322 306.371 94.336 306.625C93.8398 306.875 93.2356 307 92.5235 307H88.711V298.273H90.3758V305.534H92.5235C93.0121 305.534 93.4136 305.407 93.728 305.153C94.0424 304.896 94.1996 304.568 94.1996 304.17C94.1996 303.75 94.0424 303.407 93.728 303.142C93.4136 302.873 93.0121 302.739 92.5235 302.739H89.9894V301.273ZM97.0917 307V298.273H98.7905V307H97.0917ZM100.383 307L100.377 305.528H100.69C100.932 305.528 101.135 305.477 101.298 305.375C101.464 305.269 101.601 305.091 101.707 304.841C101.813 304.591 101.894 304.246 101.951 303.807C102.008 303.364 102.05 302.807 102.076 302.136L102.229 298.273H108.32V307H106.656V299.739H103.803L103.667 302.705C103.633 303.424 103.559 304.053 103.445 304.591C103.336 305.129 103.175 305.578 102.962 305.938C102.75 306.294 102.478 306.561 102.144 306.739C101.811 306.913 101.406 307 100.928 307H100.383ZM110.586 307V298.273H112.285V301.932H113.103L115.984 298.273H118.086L114.705 302.517L118.126 307H116.018L113.387 303.511H112.285V307H110.586ZM121.11 304.619L124.957 298.273H126.786V307H125.121V300.648L121.292 307H119.445V298.273H121.11V304.619Z" fill="#AAAAAA"/>
<path d="M29.0853 292.835C29.524 292.835 29.9546 292.951 30.3349 293.169L30.3357 293.168L36.1862 296.501L36.1895 296.504L36.329 296.59C36.6477 296.802 36.9143 297.085 37.1069 297.417C37.3268 297.797 37.4427 298.228 37.4431 298.666V305.334C37.4427 305.772 37.3268 306.203 37.1069 306.583C36.8868 306.962 36.5702 307.277 36.1895 307.496L36.1862 307.499L30.3357 310.832L30.3349 310.831C29.9546 311.049 29.524 311.165 29.0853 311.165C28.6463 311.165 28.2153 311.05 27.8349 310.831V310.832L21.9844 307.499L21.9811 307.496C21.6004 307.277 21.2838 306.962 21.0637 306.583C20.8438 306.203 20.7279 305.772 20.7275 305.334V298.666L20.7332 298.501C20.7587 298.12 20.8714 297.749 21.0637 297.417C21.2837 297.038 21.6004 296.723 21.9811 296.504L21.9844 296.501L27.8349 293.168V293.169C28.2153 292.95 28.6463 292.835 29.0853 292.835ZM29.0853 294.502C28.9386 294.502 28.7944 294.54 28.6674 294.613L28.6641 294.615L22.8161 297.946L22.8169 297.946C22.69 298.02 22.5842 298.125 22.5108 298.252C22.4377 298.378 22.3992 298.522 22.399 298.667V305.333L22.4064 305.442C22.4208 305.549 22.456 305.654 22.5108 305.748C22.5835 305.874 22.6882 305.978 22.8136 306.051L28.6641 309.384L28.6674 309.387C28.7944 309.46 28.9386 309.498 29.0853 309.498C29.2319 309.498 29.3762 309.46 29.5032 309.387L29.5065 309.384L35.3569 306.051C35.4824 305.978 35.5871 305.874 35.6597 305.748C35.7328 305.622 35.7713 305.479 35.7716 305.333V298.667L35.7642 298.558C35.7499 298.451 35.7146 298.346 35.6597 298.252C35.5864 298.125 35.4806 298.02 35.3537 297.946V297.946L29.5065 294.615L29.5032 294.613C29.3761 294.54 29.232 294.502 29.0853 294.502Z" fill="#AAAAAA"/>
<path d="M35.9629 297.079C36.3624 296.849 36.8736 296.984 37.1048 297.383C37.3359 297.781 37.1997 298.291 36.8004 298.521L29.5036 302.73C29.2448 302.879 28.9257 302.879 28.667 302.73L21.3702 298.521C20.9709 298.291 20.8347 297.781 21.0657 297.383C21.297 296.984 21.8081 296.849 22.2076 297.079L29.0849 301.045L35.9629 297.079Z" fill="#AAAAAA"/>
<path d="M28.2495 310.4V302C28.2495 301.54 28.6237 301.167 29.0853 301.167C29.5469 301.167 29.9211 301.54 29.9211 302V310.4C29.921 310.86 29.5469 311.233 29.0853 311.233C28.6237 311.233 28.2495 310.86 28.2495 310.4Z" fill="#AAAAAA"/>
<defs>
<linearGradient id="paint0_linear_47_6130" x1="170.5" y1="0" x2="170.5" y2="60" gradientUnits="userSpaceOnUse">
<stop stop-color="#B3B3B3"/>
<stop offset="0.519231" stop-color="#B3B3B3" stop-opacity="0.5"/>
<stop offset="0.769231" stop-color="#B3B3B3" stop-opacity="0"/>
<stop offset="1" stop-color="#B3B3B3"/>
</linearGradient>
<linearGradient id="paint1_linear_47_6130" x1="170.5" y1="68" x2="170.5" y2="128" gradientUnits="userSpaceOnUse">
<stop stop-color="#B3B3B3"/>
<stop offset="0.519231" stop-color="#B3B3B3" stop-opacity="0.5"/>
<stop offset="0.769231" stop-color="#B3B3B3" stop-opacity="0"/>
<stop offset="1" stop-color="#B3B3B3"/>
</linearGradient>
<linearGradient id="paint2_linear_47_6130" x1="170.5" y1="136" x2="170.5" y2="196" gradientUnits="userSpaceOnUse">
<stop stop-color="#B3B3B3"/>
<stop offset="0.519231" stop-color="#B3B3B3" stop-opacity="0.5"/>
<stop offset="0.769231" stop-color="#B3B3B3" stop-opacity="0"/>
<stop offset="1" stop-color="#B3B3B3"/>
</linearGradient>
<linearGradient id="paint3_linear_47_6130" x1="170.5" y1="204" x2="170.5" y2="264" gradientUnits="userSpaceOnUse">
<stop stop-color="#B3B3B3"/>
<stop offset="0.519231" stop-color="#B3B3B3" stop-opacity="0.5"/>
<stop offset="0.769231" stop-color="#B3B3B3" stop-opacity="0"/>
<stop offset="1" stop-color="#B3B3B3"/>
</linearGradient>
<linearGradient id="paint4_linear_47_6130" x1="170.5" y1="272" x2="170.5" y2="332" gradientUnits="userSpaceOnUse">
<stop stop-color="#B3B3B3"/>
<stop offset="0.519231" stop-color="#B3B3B3" stop-opacity="0.5"/>
<stop offset="0.769231" stop-color="#B3B3B3" stop-opacity="0"/>
<stop offset="1" stop-color="#B3B3B3"/>
</linearGradient>
</defs>
</svg>
