<svg width="390" height="96" viewBox="0 0 390 96" fill="none" xmlns="http://www.w3.org/2000/svg">
<rect width="390" height="96" fill="#131313"/>
<path d="M136.196 70L136.364 66.5H134.152L133.284 70H130.008L135.86 49.168H140.144L139.668 70H136.196ZM135.076 62.916H136.532L136.84 55.888L135.076 62.916ZM141.291 66.248H141.991C142.029 66.136 142.103 65.8933 142.215 65.52C142.421 64.848 142.598 64.12 142.747 63.336C143.438 59.8267 144.231 55.104 145.127 49.168H153.779L151.063 66.248H152.043L151.007 72.94H147.675L148.123 70H144.035L143.587 72.94H140.255L141.291 66.248ZM145.407 66.248H147.479L149.607 52.836H147.983C147.199 57.764 146.574 61.376 146.107 63.672C145.865 64.6987 145.706 65.324 145.631 65.548C145.613 65.604 145.575 65.716 145.519 65.884C145.482 66.052 145.445 66.1733 145.407 66.248ZM153.29 70L156.594 49.168H160.878L160.598 59.752L163.622 49.168H168.046L164.742 70H161.466L163.454 57.54L159.702 70H158.302L158.442 57.54L156.454 70H153.29ZM172.814 70L174.578 58.94L170.406 70H166.85L170.154 49.168H173.71L171.946 60.312L176.118 49.168H179.674L176.37 70H172.814ZM183.593 61.208L182.193 70H178.581L181.885 49.168H185.497L184.237 57.12H186.169L187.429 49.168H191.041L187.737 70H184.125L185.525 61.208H183.593ZM197.447 70H193.835L197.139 49.168H206.043L202.739 70H199.127L201.843 52.836H200.163L197.447 70ZM210.508 70L210.676 66.5H208.464L207.596 70H204.32L210.172 49.168H214.456L213.98 70H210.508ZM209.388 62.916H210.844L211.152 55.888L209.388 62.916ZM220.448 61.208L219.048 70H215.436L218.74 49.168H222.352L221.092 57.12H223.024L224.284 49.168H227.896L224.592 70H220.98L222.38 61.208H220.448ZM230.059 49.168H237.759L237.171 52.836H233.111L232.383 57.372H235.631L235.015 61.124H231.767L230.955 66.248H235.267L234.651 70H226.755L230.059 49.168ZM242.673 70L245.389 52.836H243.961C242.897 59.7053 242.103 64.204 241.581 66.332C241.263 67.6387 240.806 68.5813 240.209 69.16C239.611 69.72 238.659 70 237.353 70H236.429L237.017 66.22H237.241C237.595 66.22 237.857 66.1173 238.025 65.912C238.193 65.7067 238.333 65.3427 238.445 64.82C239.285 60.5453 240.181 55.328 241.133 49.168H249.589L246.285 70H242.673ZM254.147 56.672H255.911C258.301 56.672 259.253 58.072 258.767 60.872L257.955 65.912C257.75 67.312 257.339 68.348 256.723 69.02C256.126 69.6733 255.09 70 253.615 70H248.435L251.739 49.168H255.351L254.147 56.672ZM252.551 66.78H253.251C253.643 66.78 253.914 66.6867 254.063 66.5C254.213 66.2947 254.325 65.9867 254.399 65.576L255.099 61.236C255.174 60.8627 255.155 60.5733 255.043 60.368C254.95 60.1627 254.707 60.06 254.315 60.06H253.615L252.551 66.78Z" fill="url(#paint0_linear_41_3198)"/>
<rect x="16" y="39" width="41" height="41" rx="20.5" fill="#E7D692"/>
<path d="M24.5265 71.1807C24.5265 71.1807 27.3973 71.9025 32.9597 72.0001C32.9597 72.0001 33.2328 71.6213 33.5786 70.959C44.9587 69.0207 48.4719 62.2996 48.4719 62.2996C42.9802 65.9634 36.4075 67.2489 34.7893 67.5215C34.9032 66.9412 34.9696 66.3536 34.9879 65.7638L24.5265 71.1807Z" fill="#101010"/>
<path d="M47.2127 56.7679C44.0354 55.3973 38.8509 56.6494 34.629 58.1547L34.6323 58.1451C29.0523 59.9495 30.1336 57.0256 30.171 56.9281C30.5681 56.2642 31.2775 55.4557 32.3687 54.4761C32.3687 54.4761 19.3506 59.4555 25.7874 62.2324C28.9646 63.603 34.1491 62.3509 38.371 60.8456L38.3677 60.8552C43.9477 59.0508 42.8665 61.9747 42.8291 62.0722C42.4319 62.7361 41.7225 63.5446 40.6313 64.5242C40.6308 64.5242 53.6494 59.5442 47.2127 56.7679Z" fill="#101010"/>
<path d="M48.4728 47.8194C48.4728 47.8194 45.602 47.0977 40.0395 47C40.0395 47 39.7665 47.3788 39.4206 48.0411C28.0405 49.9794 24.5273 56.7006 24.5273 56.7006C30.019 53.0367 36.5917 51.7512 38.21 51.4785C38.0961 52.0588 38.0297 52.6465 38.0114 53.2363L48.4728 47.8194Z" fill="#101010"/>
<defs>
<linearGradient id="paint0_linear_41_3198" x1="194.123" y1="49" x2="266.641" y2="99.3822" gradientUnits="userSpaceOnUse">
<stop stop-color="#E0E0E0"/>
<stop offset="1" stop-color="#7A7A7A"/>
</linearGradient>
</defs>
</svg>
