<svg width="75" height="13" viewBox="0 0 75 13" fill="none" xmlns="http://www.w3.org/2000/svg">
<path d="M2.06401 12.0481H6.49691e-06L1.88801 0.144095H6.22401L5.88801 2.2401H3.61601L2.06401 12.0481ZM8.34638 12.0481L9.89838 2.2401H9.08238C8.47438 6.16543 8.02105 8.7361 7.72238 9.9521C7.54105 10.6988 7.27971 11.2374 6.93838 11.5681C6.59705 11.8881 6.05305 12.0481 5.30638 12.0481H4.77838L5.11438 9.8881H5.24238C5.44505 9.8881 5.59438 9.82943 5.69038 9.7121C5.78638 9.59476 5.86638 9.38676 5.93038 9.0881C6.41038 6.64543 6.92238 3.6641 7.46638 0.144095H12.2984L10.4104 12.0481H8.34638ZM14.8394 12.0481L14.9354 10.0481H13.6714L13.1754 12.0481H11.3034L14.6474 0.144095H17.0954L16.8234 12.0481H14.8394ZM14.1994 8.0001H15.0314L15.2074 3.9841L14.1994 8.0001ZM17.6551 12.0481L19.5431 0.144095H22.5031C23.2285 0.144095 23.7458 0.314762 24.0551 0.656096C24.3751 0.986762 24.4711 1.52543 24.3431 2.2721L24.1031 3.7921C23.9538 4.74143 23.5325 5.31743 22.8391 5.5201C23.5645 5.78676 23.8578 6.41076 23.7191 7.3921L23.4151 9.3761C23.2551 10.3254 23.0151 11.0081 22.6951 11.4241C22.3858 11.8401 21.9218 12.0481 21.3031 12.0481H17.6551ZM21.0471 6.7201H20.5671L20.0071 10.1601H20.5991C20.7911 10.1601 20.9351 10.1174 21.0311 10.0321C21.1271 9.94676 21.2018 9.7441 21.2551 9.4241L21.5591 7.5041C21.6018 7.23743 21.5858 7.0401 21.5111 6.9121C21.4365 6.7841 21.2818 6.7201 21.0471 6.7201ZM21.7831 1.96809H21.3191L20.8711 4.8001H21.3831C21.5538 4.8001 21.6818 4.75743 21.7671 4.6721C21.8631 4.58676 21.9378 4.42143 21.9911 4.1761L22.2471 2.5921C22.3111 2.1761 22.1565 1.96809 21.7831 1.96809ZM26.9716 7.0241L26.1716 12.0481H24.1076L25.9956 0.144095H28.0596L27.3396 4.6881H28.4436L29.1636 0.144095H31.2276L29.3396 12.0481H27.2756L28.0756 7.0241H26.9716ZM34.7838 2.0801C34.5811 2.0801 34.4318 2.1441 34.3358 2.2721C34.2504 2.38943 34.1864 2.58676 34.1438 2.8641L33.1038 9.4241C33.0398 9.8721 33.2051 10.0961 33.5998 10.0961C33.9411 10.0961 34.1491 9.8721 34.2238 9.4241L35.2638 2.8641C35.3384 2.34143 35.1784 2.0801 34.7838 2.0801ZM34.6078 9.53674e-05H35.0398C35.9678 9.53674e-05 36.6291 0.272095 37.0238 0.816095C37.4184 1.3601 37.5464 2.0961 37.4078 3.0241L36.4158 9.2961C36.0851 11.2481 35.2104 12.2241 33.7918 12.2241H33.3598C32.4638 12.2241 31.8024 11.9574 31.3758 11.4241C30.9598 10.8908 30.8264 10.1548 30.9758 9.2161L31.9518 3.0401C32.1118 2.02676 32.3891 1.26943 32.7838 0.768095C33.1891 0.256095 33.7971 9.53674e-05 34.6078 9.53674e-05ZM39.0569 0.144095H43.4569L43.1209 2.2401H40.8009L40.3849 4.8321H42.2409L41.8889 6.9761H40.0329L39.5689 9.9041H42.0329L41.6809 12.0481H37.1689L39.0569 0.144095ZM45.027 12.0481L46.915 0.144095H49.363L49.203 6.1921L50.931 0.144095H53.459L51.571 12.0481H49.699L50.835 4.9281L48.691 12.0481H47.891L47.971 4.9281L46.835 12.0481H45.027ZM54.6956 0.144095H59.0956L58.7596 2.2401H56.4396L56.0236 4.8321H57.8796L57.5276 6.9761H55.6716L55.2076 9.9041H57.6716L57.3196 12.0481H52.8076L54.6956 0.144095ZM61.2491 7.0241L60.4491 12.0481H58.3851L60.2731 0.144095H62.3371L61.6171 4.6881H62.7211L63.4411 0.144095H65.5051L63.6171 12.0481H61.5531L62.3531 7.0241H61.2491ZM70.8693 12.2241H70.4373C69.5413 12.2241 68.8799 11.9574 68.4533 11.4241C68.0373 10.8908 67.9039 10.1548 68.0533 9.2161L68.4053 7.0241H67.6853L66.8853 12.0481H64.8213L66.7093 0.144095H68.7733L68.0533 4.6881H68.7733L69.0293 3.0401C69.1893 2.02676 69.4666 1.26943 69.8613 0.768095C70.2666 0.256095 70.8746 9.53674e-05 71.6853 9.53674e-05H72.1173C73.0453 9.53674e-05 73.7066 0.272095 74.1013 0.816095C74.4959 1.3601 74.6239 2.0961 74.4853 3.0241L73.4933 9.2961C73.1626 11.2481 72.2879 12.2241 70.8693 12.2241ZM71.3013 9.4241L72.3413 2.8641C72.4159 2.34143 72.2559 2.0801 71.8613 2.0801C71.6586 2.0801 71.5093 2.1441 71.4133 2.2721C71.3279 2.38943 71.2639 2.58676 71.2213 2.8641L70.1813 9.4241C70.1173 9.8721 70.2826 10.0961 70.6773 10.0961C71.0186 10.0961 71.2266 9.8721 71.3013 9.4241Z" fill="url(#paint0_linear_41_3199)" fill-opacity="0.8"/>
<defs>
<linearGradient id="paint0_linear_41_3199" x1="36.6784" y1="0.0480961" x2="78.2836" y2="29.2922" gradientUnits="userSpaceOnUse">
<stop stop-color="#E0E0E0"/>
<stop offset="1" stop-color="#7A7A7A"/>
</linearGradient>
</defs>
</svg>
