<svg width="390" height="80" viewBox="0 0 390 80" fill="none" xmlns="http://www.w3.org/2000/svg">
<rect width="390" height="80" fill="#131313"/>
<path d="M68 32V37M68 32C64.6829 32 62 28.87 62 25V22C62 19.79 63.5343 18 65.4286 18H70.5714C72.4657 18 74 19.79 74 22V25C74 28.87 71.3171 32 68 32ZM62 37H74M62 28C61.1254 27.7699 60.3557 27.3479 59.7493 26.8493C58.6997 25.8904 58 24.7397 58 23.3973C58 22.0548 59.2828 21 60.9155 21H61.6735C61.4402 21.4411 61.3236 21.9301 61.3236 22.4384V25.3151C61.3236 26.274 61.5685 27.1753 62 28ZM74 28C74.8746 27.7699 75.6443 27.3479 76.2507 26.8493C77.3003 25.8904 78 24.7397 78 23.3973C78 22.0548 76.7172 21 75.0845 21H74.3265C74.5598 21.4411 74.6764 21.9301 74.6764 22.4384V25.3151C74.6764 26.274 74.4315 27.1753 74 28Z" stroke="#AAAAAA" stroke-width="1.5" stroke-linecap="round" stroke-linejoin="round"/>
<path d="M39.2603 56V48.332L39.5603 48.644H36.3923V47.6H43.3163V48.644H40.1483L40.4363 48.332V56H39.2603ZM44.0755 55.904L44.3875 54.944C44.8035 55.096 45.1875 55.136 45.5395 55.064C45.8915 54.984 46.2075 54.716 46.4875 54.26L46.8955 53.612L47.0155 53.48L50.0995 47.6H51.2875L47.5555 54.512C47.2755 55.04 46.9475 55.44 46.5715 55.712C46.2035 55.976 45.8035 56.12 45.3715 56.144C44.9475 56.176 44.5155 56.096 44.0755 55.904ZM46.9795 54.548L43.2955 47.6H44.5795L47.6395 53.588L46.9795 54.548ZM52.5326 56V47.6H55.8086C56.5446 47.6 57.1726 47.716 57.6926 47.948C58.2126 48.18 58.6126 48.516 58.8926 48.956C59.1726 49.396 59.3126 49.92 59.3126 50.528C59.3126 51.136 59.1726 51.66 58.8926 52.1C58.6126 52.532 58.2126 52.868 57.6926 53.108C57.1726 53.34 56.5446 53.456 55.8086 53.456H53.1926L53.7326 52.892V56H52.5326ZM53.7326 53.012L53.1926 52.412H55.7726C56.5406 52.412 57.1206 52.248 57.5126 51.92C57.9126 51.592 58.1126 51.128 58.1126 50.528C58.1126 49.928 57.9126 49.464 57.5126 49.136C57.1206 48.808 56.5406 48.644 55.7726 48.644H53.1926L53.7326 48.044V53.012ZM67.0058 56V47.6H68.2058V56H67.0058ZM60.9818 56V47.6H62.1818V56H60.9818ZM62.0618 52.256V51.212H67.1138V52.256H62.0618ZM70.8256 56V47.6H72.0136V54.08L76.9816 47.6H78.0856V56H76.9096V49.532L71.9296 56H70.8256ZM80.7045 56V47.6H83.9805C84.7165 47.6 85.3445 47.716 85.8645 47.948C86.3845 48.18 86.7845 48.516 87.0645 48.956C87.3445 49.396 87.4845 49.92 87.4845 50.528C87.4845 51.136 87.3445 51.66 87.0645 52.1C86.7845 52.532 86.3845 52.868 85.8645 53.108C85.3445 53.34 84.7165 53.456 83.9805 53.456H81.3645L81.9045 52.892V56H80.7045ZM81.9045 53.012L81.3645 52.412H83.9445C84.7125 52.412 85.2925 52.248 85.6845 51.92C86.0845 51.592 86.2845 51.128 86.2845 50.528C86.2845 49.928 86.0845 49.464 85.6845 49.136C85.2925 48.808 84.7125 48.644 83.9445 48.644H81.3645L81.9045 48.044V53.012ZM89.1537 56V47.6H90.3417V50.528H92.8377C93.8297 50.528 94.5937 50.752 95.1297 51.2C95.6657 51.64 95.9337 52.3 95.9337 53.18C95.9337 54.108 95.6417 54.812 95.0577 55.292C94.4817 55.764 93.6697 56 92.6217 56H89.1537ZM90.3417 55.052H92.5737C93.2697 55.052 93.8017 54.896 94.1697 54.584C94.5457 54.272 94.7337 53.812 94.7337 53.204C94.7337 52.612 94.5497 52.176 94.1817 51.896C93.8137 51.616 93.2777 51.476 92.5737 51.476H90.3417V55.052ZM97.2657 56V47.6H98.4537V56H97.2657Z" fill="#BDBDBD"/>
<path d="M199 21C199 20.0572 199 19.5858 199.293 19.2929C199.586 19 200.057 19 201 19C201.943 19 202.414 19 202.707 19.2929C203 19.5858 203 20.0572 203 21V35C203 35.9428 203 36.4142 202.707 36.7071C202.414 37 201.943 37 201 37C200.057 37 199.586 37 199.293 36.7071C199 36.4142 199 35.9428 199 35V21Z" stroke="#AAAAAA" stroke-width="1.5" stroke-linejoin="round"/>
<path d="M191 28C191 27.0572 191 26.5858 191.293 26.2929C191.586 26 192.057 26 193 26C193.943 26 194.414 26 194.707 26.2929C195 26.5858 195 27.0572 195 28V35C195 35.9428 195 36.4142 194.707 36.7071C194.414 37 193.943 37 193 37C192.057 37 191.586 37 191.293 36.7071C191 36.4142 191 35.9428 191 35V28Z" stroke="#AAAAAA" stroke-width="1.5" stroke-linejoin="round"/>
<path d="M183 24C183 23.0572 183 22.5858 183.293 22.2929C183.586 22 184.057 22 185 22C185.943 22 186.414 22 186.707 22.2929C187 22.5858 187 23.0572 187 24V35C187 35.9428 187 36.4142 186.707 36.7071C186.414 37 185.943 37 185 37C184.057 37 183.586 37 183.293 36.7071C183 36.4142 183 35.9428 183 35V24Z" stroke="#AAAAAA" stroke-width="1.5" stroke-linejoin="round"/>
<path d="M156.187 56.096C155.547 56.096 154.955 55.992 154.411 55.784C153.875 55.568 153.407 55.268 153.007 54.884C152.615 54.492 152.307 54.036 152.083 53.516C151.859 52.996 151.747 52.424 151.747 51.8C151.747 51.176 151.859 50.604 152.083 50.084C152.307 49.564 152.619 49.112 153.019 48.728C153.419 48.336 153.887 48.036 154.423 47.828C154.967 47.612 155.559 47.504 156.199 47.504C156.847 47.504 157.443 47.616 157.987 47.84C158.539 48.056 159.007 48.38 159.391 48.812L158.611 49.568C158.291 49.232 157.931 48.984 157.531 48.824C157.131 48.656 156.703 48.572 156.247 48.572C155.775 48.572 155.335 48.652 154.927 48.812C154.527 48.972 154.179 49.196 153.883 49.484C153.587 49.772 153.355 50.116 153.187 50.516C153.027 50.908 152.947 51.336 152.947 51.8C152.947 52.264 153.027 52.696 153.187 53.096C153.355 53.488 153.587 53.828 153.883 54.116C154.179 54.404 154.527 54.628 154.927 54.788C155.335 54.948 155.775 55.028 156.247 55.028C156.703 55.028 157.131 54.948 157.531 54.788C157.931 54.62 158.291 54.364 158.611 54.02L159.391 54.776C159.007 55.208 158.539 55.536 157.987 55.76C157.443 55.984 156.843 56.096 156.187 56.096ZM162.561 56V48.332L162.861 48.644H159.693V47.6H166.617V48.644H163.449L163.737 48.332V56H162.561ZM166.49 56L170.294 47.6H171.482L175.298 56H174.038L170.642 48.272H171.122L167.726 56H166.49ZM168.11 53.9L168.434 52.94H173.162L173.51 53.9H168.11ZM178.042 56V48.332L178.342 48.644H175.174V47.6H182.098V48.644H178.93L179.218 48.332V56H178.042ZM183.556 56V47.6H184.744V54.08L189.712 47.6H190.816V56H189.64V49.532L184.66 56H183.556ZM197.191 56.096C196.551 56.096 195.959 55.992 195.415 55.784C194.879 55.568 194.411 55.268 194.011 54.884C193.619 54.492 193.311 54.036 193.087 53.516C192.863 52.996 192.751 52.424 192.751 51.8C192.751 51.176 192.863 50.604 193.087 50.084C193.311 49.564 193.623 49.112 194.023 48.728C194.423 48.336 194.891 48.036 195.427 47.828C195.971 47.612 196.563 47.504 197.203 47.504C197.851 47.504 198.447 47.616 198.991 47.84C199.543 48.056 200.011 48.38 200.395 48.812L199.615 49.568C199.295 49.232 198.935 48.984 198.535 48.824C198.135 48.656 197.707 48.572 197.251 48.572C196.779 48.572 196.339 48.652 195.931 48.812C195.531 48.972 195.183 49.196 194.887 49.484C194.591 49.772 194.359 50.116 194.191 50.516C194.031 50.908 193.951 51.336 193.951 51.8C193.951 52.264 194.031 52.696 194.191 53.096C194.359 53.488 194.591 53.828 194.887 54.116C195.183 54.404 195.531 54.628 195.931 54.788C196.339 54.948 196.779 55.028 197.251 55.028C197.707 55.028 198.135 54.948 198.535 54.788C198.935 54.62 199.295 54.364 199.615 54.02L200.395 54.776C200.011 55.208 199.543 55.536 198.991 55.76C198.447 55.984 197.847 56.096 197.191 56.096ZM203.565 56V48.332L203.865 48.644H200.697V47.6H207.621V48.644H204.453L204.741 48.332V56H203.565ZM209.079 56V47.6H210.267V54.08L215.235 47.6H216.339V56H215.163V49.532L210.183 56H209.079ZM224.61 56L221.562 51.86L222.534 51.26L225.978 56H224.61ZM218.958 56V47.6H220.134V56H218.958ZM219.774 52.304V51.248H222.498V52.304H219.774ZM222.642 51.932L221.538 51.764L224.55 47.6H225.834L222.642 51.932ZM225.927 56L229.731 47.6H230.919L234.735 56H233.475L230.079 48.272H230.559L227.163 56H225.927ZM227.547 53.9L227.871 52.94H232.599L232.947 53.9H227.547Z" fill="#BDBDBD"/>
<path d="M328 37V35C328 33.9391 327.579 32.9217 326.828 32.1716C326.078 31.4214 325.061 31 324 31H316C314.939 31 313.922 31.4214 313.172 32.1716C312.421 32.9217 312 33.9391 312 35V37" stroke="#AAAAAA" stroke-width="2" stroke-linecap="round" stroke-linejoin="round"/>
<path d="M320 27C322.209 27 324 25.2091 324 23C324 20.7909 322.209 19 320 19C317.791 19 316 20.7909 316 23C316 25.2091 317.791 27 320 27Z" stroke="#AAAAAA" stroke-width="2" stroke-linecap="round" stroke-linejoin="round"/>
<path d="M287.552 56V47.6H294.788V56H293.612V48.332L293.9 48.644H288.44L288.74 48.332V56H287.552ZM297.408 56V47.6H300.684C301.42 47.6 302.048 47.716 302.568 47.948C303.088 48.18 303.488 48.516 303.768 48.956C304.048 49.396 304.188 49.92 304.188 50.528C304.188 51.136 304.048 51.66 303.768 52.1C303.488 52.532 303.088 52.868 302.568 53.108C302.048 53.34 301.42 53.456 300.684 53.456H298.068L298.608 52.892V56H297.408ZM298.608 53.012L298.068 52.412H300.648C301.416 52.412 301.996 52.248 302.388 51.92C302.788 51.592 302.988 51.128 302.988 50.528C302.988 49.928 302.788 49.464 302.388 49.136C301.996 48.808 301.416 48.644 300.648 48.644H298.068L298.608 48.044V53.012ZM309.754 56.096C309.114 56.096 308.518 55.988 307.966 55.772C307.422 55.556 306.95 55.256 306.55 54.872C306.15 54.48 305.838 54.024 305.614 53.504C305.39 52.984 305.278 52.416 305.278 51.8C305.278 51.184 305.39 50.616 305.614 50.096C305.838 49.576 306.15 49.124 306.55 48.74C306.95 48.348 307.422 48.044 307.966 47.828C308.51 47.612 309.106 47.504 309.754 47.504C310.394 47.504 310.982 47.612 311.518 47.828C312.062 48.036 312.534 48.336 312.934 48.728C313.342 49.112 313.654 49.564 313.87 50.084C314.094 50.604 314.206 51.176 314.206 51.8C314.206 52.424 314.094 52.996 313.87 53.516C313.654 54.036 313.342 54.492 312.934 54.884C312.534 55.268 312.062 55.568 311.518 55.784C310.982 55.992 310.394 56.096 309.754 56.096ZM309.754 55.028C310.218 55.028 310.646 54.948 311.038 54.788C311.438 54.628 311.782 54.404 312.07 54.116C312.366 53.82 312.594 53.476 312.754 53.084C312.922 52.692 313.006 52.264 313.006 51.8C313.006 51.336 312.922 50.908 312.754 50.516C312.594 50.124 312.366 49.784 312.07 49.496C311.782 49.2 311.438 48.972 311.038 48.812C310.646 48.652 310.218 48.572 309.754 48.572C309.282 48.572 308.846 48.652 308.446 48.812C308.054 48.972 307.71 49.2 307.414 49.496C307.118 49.784 306.886 50.124 306.718 50.516C306.558 50.908 306.478 51.336 306.478 51.8C306.478 52.264 306.558 52.692 306.718 53.084C306.886 53.476 307.118 53.82 307.414 54.116C307.71 54.404 308.054 54.628 308.446 54.788C308.846 54.948 309.282 55.028 309.754 55.028ZM320.25 55.436C319.226 55.436 318.35 55.296 317.622 55.016C316.894 54.728 316.338 54.312 315.954 53.768C315.57 53.224 315.378 52.564 315.378 51.788C315.378 51.012 315.57 50.352 315.954 49.808C316.338 49.264 316.894 48.848 317.622 48.56C318.35 48.272 319.226 48.128 320.25 48.128C320.266 48.128 320.294 48.128 320.334 48.128C320.382 48.128 320.426 48.128 320.466 48.128C320.514 48.128 320.542 48.128 320.55 48.128C321.574 48.128 322.446 48.272 323.166 48.56C323.894 48.848 324.45 49.264 324.834 49.808C325.218 50.352 325.41 51.012 325.41 51.788C325.41 52.556 325.218 53.216 324.834 53.768C324.458 54.312 323.91 54.728 323.19 55.016C322.478 55.296 321.614 55.436 320.598 55.436C320.582 55.436 320.546 55.436 320.49 55.436C320.442 55.436 320.394 55.436 320.346 55.436C320.298 55.436 320.266 55.436 320.25 55.436ZM320.382 54.5C320.398 54.5 320.418 54.5 320.442 54.5C320.466 54.5 320.478 54.5 320.478 54.5C321.294 54.492 321.982 54.388 322.542 54.188C323.102 53.98 323.526 53.676 323.814 53.276C324.11 52.868 324.258 52.368 324.258 51.776C324.258 51.192 324.11 50.7 323.814 50.3C323.518 49.9 323.09 49.596 322.53 49.388C321.978 49.18 321.302 49.076 320.502 49.076C320.494 49.076 320.474 49.076 320.442 49.076C320.418 49.076 320.398 49.076 320.382 49.076C319.558 49.076 318.858 49.18 318.282 49.388C317.714 49.588 317.282 49.888 316.986 50.288C316.69 50.688 316.542 51.188 316.542 51.788C316.542 52.388 316.694 52.888 316.998 53.288C317.302 53.688 317.738 53.992 318.306 54.2C318.882 54.4 319.574 54.5 320.382 54.5ZM319.842 56.312V47.288H320.958V56.312H319.842ZM327.255 56V47.6H328.443V54.08L333.411 47.6H334.515V56H333.339V49.532L328.359 56H327.255ZM336.633 56.096C336.513 56.096 336.393 56.088 336.273 56.072C336.153 56.056 336.021 56.032 335.877 56L335.961 54.932C336.089 54.964 336.217 54.98 336.345 54.98C336.697 54.98 336.977 54.84 337.185 54.56C337.393 54.28 337.545 53.856 337.641 53.288C337.745 52.72 337.813 52.004 337.845 51.14L337.977 47.6H343.893V56H342.717V48.332L343.005 48.644H338.745L339.009 48.32L338.913 51.104C338.889 51.936 338.833 52.664 338.745 53.288C338.657 53.912 338.525 54.432 338.349 54.848C338.173 55.264 337.945 55.576 337.665 55.784C337.393 55.992 337.049 56.096 336.633 56.096ZM346.509 56V47.6H347.697V50.528H350.193C351.185 50.528 351.949 50.752 352.485 51.2C353.021 51.64 353.289 52.3 353.289 53.18C353.289 54.108 352.997 54.812 352.413 55.292C351.837 55.764 351.025 56 349.977 56H346.509ZM347.697 55.052H349.929C350.625 55.052 351.157 54.896 351.525 54.584C351.901 54.272 352.089 53.812 352.089 53.204C352.089 52.612 351.905 52.176 351.537 51.896C351.169 51.616 350.633 51.476 349.929 51.476H347.697V55.052Z" fill="#BDBDBD"/>
</svg>
