<svg width="421" height="52" viewBox="0 0 421 52" fill="none" xmlns="http://www.w3.org/2000/svg">
<path d="M7.2 42.96V5.88L13.26 11.64H9.31323e-09V0.959996H21.36V42.96H7.2ZM67.6064 43.92C64.2464 43.92 61.1264 43.4 58.2464 42.36C55.4064 41.28 52.9264 39.76 50.8064 37.8C48.7264 35.84 47.1064 33.52 45.9464 30.84C44.7864 28.16 44.2064 25.2 44.2064 21.96C44.2064 18.72 44.7864 15.76 45.9464 13.08C47.1064 10.4 48.7264 8.08 50.8064 6.12C52.9264 4.16 55.4064 2.66 58.2464 1.62C61.1264 0.539998 64.2464 -2.14577e-06 67.6064 -2.14577e-06C71.7264 -2.14577e-06 75.3664 0.719998 78.5264 2.16C81.7264 3.6 84.3664 5.68 86.4464 8.4L77.5064 16.38C76.2664 14.82 74.8864 13.62 73.3664 12.78C71.8864 11.9 70.2064 11.46 68.3264 11.46C66.8464 11.46 65.5064 11.7 64.3064 12.18C63.1064 12.66 62.0664 13.36 61.1864 14.28C60.3464 15.2 59.6864 16.32 59.2064 17.64C58.7264 18.92 58.4864 20.36 58.4864 21.96C58.4864 23.56 58.7264 25.02 59.2064 26.34C59.6864 27.62 60.3464 28.72 61.1864 29.64C62.0664 30.56 63.1064 31.26 64.3064 31.74C65.5064 32.22 66.8464 32.46 68.3264 32.46C70.2064 32.46 71.8864 32.04 73.3664 31.2C74.8864 30.32 76.2664 29.1 77.5064 27.54L86.4464 35.52C84.3664 38.2 81.7264 40.28 78.5264 41.76C75.3664 43.2 71.7264 43.92 67.6064 43.92ZM99.9717 42.96V8.88L103.032 11.94H87.6717V0.959996H126.192V11.94H110.832L113.892 8.88V42.96H99.9717ZM130.861 42.96V0.959996H151.081C155.001 0.959996 158.381 1.6 161.221 2.88C164.101 4.16 166.321 6 167.881 8.4C169.441 10.76 170.221 13.56 170.221 16.8C170.221 20.04 169.441 22.84 167.881 25.2C166.321 27.56 164.101 29.4 161.221 30.72C158.381 32 155.001 32.64 151.081 32.64H138.721L145.021 26.58V42.96H130.861ZM145.021 28.14L138.721 21.72H150.181C152.141 21.72 153.581 21.28 154.501 20.4C155.461 19.52 155.941 18.32 155.941 16.8C155.941 15.28 155.461 14.08 154.501 13.2C153.581 12.32 152.141 11.88 150.181 11.88H138.721L145.021 5.46V28.14ZM168.864 42.96L187.224 0.959996H201.144L219.504 42.96H204.864L191.304 7.68H196.824L183.264 42.96H168.864ZM179.784 35.64L183.384 25.44H202.704L206.304 35.64H179.784ZM250.621 42.96V0.959996H264.781V42.96H250.621ZM223.381 42.96V0.959996H237.541V42.96H223.381ZM236.581 27.48V15.84H251.581V27.48H236.581ZM272.248 42.96V0.959996H286.168V22.8L300.628 0.959996H313.948V42.96H300.028V21.18L285.628 42.96H272.248ZM321.408 42.96V0.959996H335.328V31.98H348.648V0.959996H362.568V42.96H321.408ZM355.128 51.18V39.9L358.068 42.96H348.648V31.98H368.088V51.18H355.128ZM369.9 42.96L388.26 0.959996H402.18L420.54 42.96H405.9L392.34 7.68H397.86L384.3 42.96H369.9ZM380.82 35.64L384.42 25.44H403.74L407.34 35.64H380.82Z" fill="white"/>
</svg>
