<svg width="434" height="52" viewBox="0 0 434 52" fill="none" xmlns="http://www.w3.org/2000/svg">
<path d="M2.46 42.96V34.26L17.64 20.22C18.6 19.3 19.3 18.5 19.74 17.82C20.22 17.14 20.54 16.54 20.7 16.02C20.86 15.46 20.94 14.94 20.94 14.46C20.94 13.42 20.6 12.62 19.92 12.06C19.24 11.46 18.22 11.16 16.86 11.16C15.62 11.16 14.44 11.5 13.32 12.18C12.2 12.82 11.32 13.78 10.68 15.06L0 9.71996C1.52 6.83996 3.8 4.49996 6.84 2.69996C9.88 0.89996 13.66 -4.02927e-05 18.18 -4.02927e-05C21.5 -4.02927e-05 24.44 0.53996 27 1.61996C29.56 2.69996 31.56 4.21996 33 6.17996C34.44 8.13996 35.16 10.46 35.16 13.14C35.16 14.5 34.98 15.86 34.62 17.22C34.3 18.58 33.62 20.02 32.58 21.54C31.54 23.02 30 24.68 27.96 26.52L16.56 36.9L14.34 31.98H36.12V42.96H2.46ZM80.1122 43.92C76.7522 43.92 73.6322 43.4 70.7522 42.36C67.9122 41.28 65.4322 39.76 63.3122 37.8C61.2322 35.84 59.6122 33.52 58.4522 30.84C57.2922 28.16 56.7122 25.2 56.7122 21.96C56.7122 18.72 57.2922 15.76 58.4522 13.08C59.6122 10.4 61.2322 8.07996 63.3122 6.11996C65.4322 4.15996 67.9122 2.65996 70.7522 1.61996C73.6322 0.53996 76.7522 -4.02927e-05 80.1122 -4.02927e-05C84.2322 -4.02927e-05 87.8722 0.71996 91.0322 2.15996C94.2322 3.59996 96.8722 5.67996 98.9522 8.39996L90.0122 16.38C88.7722 14.82 87.3922 13.62 85.8722 12.78C84.3922 11.9 82.7122 11.46 80.8322 11.46C79.3522 11.46 78.0122 11.7 76.8122 12.18C75.6122 12.66 74.5722 13.36 73.6922 14.28C72.8522 15.2 72.1922 16.32 71.7122 17.64C71.2322 18.92 70.9922 20.36 70.9922 21.96C70.9922 23.56 71.2322 25.02 71.7122 26.34C72.1922 27.62 72.8522 28.72 73.6922 29.64C74.5722 30.56 75.6122 31.26 76.8122 31.74C78.0122 32.22 79.3522 32.46 80.8322 32.46C82.7122 32.46 84.3922 32.04 85.8722 31.2C87.3922 30.32 88.7722 29.1 90.0122 27.54L98.9522 35.52C96.8722 38.2 94.2322 40.28 91.0322 41.76C87.8722 43.2 84.2322 43.92 80.1122 43.92ZM112.478 42.96V8.87996L115.538 11.94H100.178V0.959958H138.698V11.94H123.338L126.398 8.87996V42.96H112.478ZM143.367 42.96V0.959958H163.587C167.507 0.959958 170.887 1.59996 173.727 2.87996C176.607 4.15996 178.827 5.99996 180.387 8.39996C181.947 10.76 182.727 13.56 182.727 16.8C182.727 20.04 181.947 22.84 180.387 25.2C178.827 27.56 176.607 29.4 173.727 30.72C170.887 32 167.507 32.64 163.587 32.64H151.227L157.527 26.58V42.96H143.367ZM157.527 28.14L151.227 21.72H162.687C164.647 21.72 166.087 21.28 167.007 20.4C167.967 19.52 168.447 18.32 168.447 16.8C168.447 15.28 167.967 14.08 167.007 13.2C166.087 12.32 164.647 11.88 162.687 11.88H151.227L157.527 5.45996V28.14ZM181.37 42.96L199.73 0.959958H213.65L232.01 42.96H217.37L203.81 7.67996H209.33L195.77 42.96H181.37ZM192.29 35.64L195.89 25.44H215.21L218.81 35.64H192.29ZM263.127 42.96V0.959958H277.287V42.96H263.127ZM235.887 42.96V0.959958H250.047V42.96H235.887ZM249.087 27.48V15.84H264.087V27.48H249.087ZM284.754 42.96V0.959958H298.674V22.8L313.134 0.959958H326.454V42.96H312.534V21.18L298.134 42.96H284.754ZM333.914 42.96V0.959958H347.834V31.98H361.154V0.959958H375.074V42.96H333.914ZM367.634 51.18V39.9L370.574 42.96H361.154V31.98H380.594V51.18H367.634ZM382.405 42.96L400.765 0.959958H414.685L433.045 42.96H418.405L404.845 7.67996H410.365L396.805 42.96H382.405ZM393.325 35.64L396.925 25.44H416.245L419.845 35.64H393.325Z" fill="white"/>
</svg>
