<svg width="433" height="52" viewBox="0 0 433 52" fill="none" xmlns="http://www.w3.org/2000/svg">
<path d="M16.56 43.92C13.68 43.92 10.76 43.6 7.8 42.96C4.84 42.32 2.24 41.38 1.11759e-08 40.14L4.8 29.7C6.6 30.74 8.48 31.52 10.44 32.04C12.44 32.52 14.32 32.76 16.08 32.76C17.68 32.76 18.98 32.5 19.98 31.98C21.02 31.42 21.54 30.6 21.54 29.52C21.54 28.6 21.16 27.9 20.4 27.42C19.64 26.9 18.36 26.64 16.56 26.64H10.98V17.94L21.84 6.89996L23.1 11.64H2.16V0.959958H33.48V9.65996L22.62 20.7L15.84 16.86H19.56C24.84 16.86 28.86 18.04 31.62 20.4C34.38 22.76 35.76 25.8 35.76 29.52C35.76 31.92 35.08 34.22 33.72 36.42C32.4 38.62 30.32 40.42 27.48 41.82C24.68 43.22 21.04 43.92 16.56 43.92ZM80.0438 43.92C76.6838 43.92 73.5638 43.4 70.6838 42.36C67.8438 41.28 65.3638 39.76 63.2438 37.8C61.1638 35.84 59.5438 33.52 58.3838 30.84C57.2238 28.16 56.6438 25.2 56.6438 21.96C56.6438 18.72 57.2238 15.76 58.3838 13.08C59.5438 10.4 61.1638 8.07996 63.2438 6.11996C65.3638 4.15996 67.8438 2.65996 70.6838 1.61996C73.5638 0.53996 76.6838 -4.02927e-05 80.0438 -4.02927e-05C84.1638 -4.02927e-05 87.8038 0.71996 90.9638 2.15996C94.1638 3.59996 96.8038 5.67996 98.8838 8.39996L89.9438 16.38C88.7038 14.82 87.3238 13.62 85.8038 12.78C84.3238 11.9 82.6438 11.46 80.7638 11.46C79.2838 11.46 77.9438 11.7 76.7438 12.18C75.5438 12.66 74.5038 13.36 73.6238 14.28C72.7838 15.2 72.1238 16.32 71.6438 17.64C71.1638 18.92 70.9238 20.36 70.9238 21.96C70.9238 23.56 71.1638 25.02 71.6438 26.34C72.1238 27.62 72.7838 28.72 73.6238 29.64C74.5038 30.56 75.5438 31.26 76.7438 31.74C77.9438 32.22 79.2838 32.46 80.7638 32.46C82.6438 32.46 84.3238 32.04 85.8038 31.2C87.3238 30.32 88.7038 29.1 89.9438 27.54L98.8838 35.52C96.8038 38.2 94.1638 40.28 90.9638 41.76C87.8038 43.2 84.1638 43.92 80.0438 43.92ZM112.409 42.96V8.87996L115.469 11.94H100.109V0.959958H138.629V11.94H123.269L126.329 8.87996V42.96H112.409ZM143.299 42.96V0.959958H163.519C167.439 0.959958 170.819 1.59996 173.659 2.87996C176.539 4.15996 178.759 5.99996 180.319 8.39996C181.879 10.76 182.659 13.56 182.659 16.8C182.659 20.04 181.879 22.84 180.319 25.2C178.759 27.56 176.539 29.4 173.659 30.72C170.819 32 167.439 32.64 163.519 32.64H151.159L157.459 26.58V42.96H143.299ZM157.459 28.14L151.159 21.72H162.619C164.579 21.72 166.019 21.28 166.939 20.4C167.899 19.52 168.379 18.32 168.379 16.8C168.379 15.28 167.899 14.08 166.939 13.2C166.019 12.32 164.579 11.88 162.619 11.88H151.159L157.459 5.45996V28.14ZM181.302 42.96L199.662 0.959958H213.582L231.942 42.96H217.302L203.742 7.67996H209.262L195.702 42.96H181.302ZM192.222 35.64L195.822 25.44H215.142L218.742 35.64H192.222ZM263.058 42.96V0.959958H277.218V42.96H263.058ZM235.818 42.96V0.959958H249.978V42.96H235.818ZM249.018 27.48V15.84H264.018V27.48H249.018ZM284.685 42.96V0.959958H298.605V22.8L313.065 0.959958H326.385V42.96H312.465V21.18L298.065 42.96H284.685ZM333.846 42.96V0.959958H347.766V31.98H361.086V0.959958H375.006V42.96H333.846ZM367.566 51.18V39.9L370.506 42.96H361.086V31.98H380.526V51.18H367.566ZM382.337 42.96L400.697 0.959958H414.617L432.977 42.96H418.337L404.777 7.67996H410.297L396.737 42.96H382.337ZM393.257 35.64L396.857 25.44H416.177L419.777 35.64H393.257Z" fill="white"/>
</svg>
