<svg width="113" height="113" viewBox="0 0 113 113" fill="none" xmlns="http://www.w3.org/2000/svg">
<g clip-path="url(#clip0_47_5707)">
<rect width="113" height="113" rx="16" fill="url(#paint0_linear_47_5707)" fill-opacity="0.6"/>
<rect x="0.5" y="0.5" width="112" height="112" rx="15.5" stroke="white" stroke-opacity="0.1"/>
<path d="M57 33V81" stroke="#AAAAAA" stroke-width="4" stroke-linecap="round" stroke-linejoin="round"/>
<path d="M33 57H81" stroke="#AAAAAA" stroke-width="4" stroke-linecap="round" stroke-linejoin="round"/>
<path d="M42.0001 65.1251C42 65.0202 42 64.912 42 64.8003V49.2003C42 47.3801 42 46.4694 42.3633 45.7742C42.6829 45.1626 43.1925 44.6658 43.8197 44.3542C44.5327 44 45.4668 44 47.3337 44H66.667C68.5338 44 69.4668 44 70.1798 44.3542C70.807 44.6658 71.3175 45.1626 71.637 45.7742C72 46.4687 72 47.3784 72 49.195V64.805C72 65.5932 72 66.2103 71.9704 66.7133M42.0001 65.1251C42.0014 66.7312 42.0223 67.5719 42.3633 68.2245C42.6829 68.836 43.1925 69.3345 43.8197 69.6461C44.532 70 45.465 70 47.3282 70H66.6726C68.5358 70 69.4675 70 70.1798 69.6461C70.807 69.3345 71.3175 68.836 71.637 68.2245C71.8425 67.8313 71.9317 67.3696 71.9704 66.7133M42.0001 65.1251L49.9466 56.0859L49.949 56.0834C50.6538 55.2817 51.0068 54.8802 51.4255 54.7355C51.7932 54.6083 52.1948 54.6113 52.5607 54.7434C52.9777 54.8939 53.3251 55.3 54.0199 56.1129L58.4718 61.3217C59.1149 62.0741 59.4383 62.4526 59.831 62.6044C60.1774 62.7384 60.5594 62.7535 60.9168 62.6507C61.3237 62.5336 61.6818 62.1845 62.3979 61.4862L63.2264 60.6785C63.9556 59.9675 64.3201 59.6123 64.7328 59.4962C65.0952 59.3942 65.4827 59.4161 65.8314 59.5565C66.2284 59.7164 66.5503 60.1076 67.1945 60.8927L71.9704 66.7133M71.9704 66.7133L72 66.7494M62 53.75C61.0795 53.75 60.3333 53.0225 60.3333 52.125C60.3333 51.2275 61.0795 50.5 62 50.5C62.9205 50.5 63.6667 51.2275 63.6667 52.125C63.6667 53.0225 62.9205 53.75 62 53.75Z" stroke="white" stroke-opacity="0.1" stroke-width="4" stroke-linecap="round" stroke-linejoin="round"/>
<path d="M-32.9584 23.4803C-32.8715 23.2841 -32.7818 23.0818 -32.6893 22.8732L-19.7561 -6.28127C-18.2471 -9.68293 -17.4921 -11.385 -16.2553 -12.3914C-15.1675 -13.2765 -13.8294 -13.7942 -12.431 -13.8708C-10.8413 -13.9578 -9.14336 -13.2046 -5.75009 -11.6993L29.3912 3.8896C32.7845 5.39488 34.4802 6.14712 35.4826 7.38407C36.3643 8.47212 36.8802 9.81222 36.9541 11.2128C37.0381 12.8034 36.2839 14.5035 34.7779 17.8985L21.8364 47.0717C21.183 48.5446 20.6713 49.6981 20.2005 50.6141M-32.9584 23.4803C-34.2875 26.4828 -34.9466 28.0709 -34.8677 29.5655C-34.7938 30.966 -34.2809 32.3085 -33.3991 33.3966C-32.3977 34.6323 -30.7019 35.3846 -27.3152 36.8869L7.84623 52.4848C11.2329 53.9872 12.9263 54.7384 14.5144 54.6514C15.9128 54.5748 17.2539 54.0548 18.3418 53.1696C19.0413 52.6005 19.5861 51.8094 20.2005 50.6141M-32.9584 23.4803L-11.0204 12.9946L-11.0141 12.9919C-9.06832 12.0619 -8.09384 11.5961 -7.21284 11.6632C-6.43894 11.7222 -5.71154 12.0515 -5.15591 12.5934C-4.52272 13.211 -4.228 14.2501 -3.63907 16.3294L0.134691 29.6537C0.67984 31.5785 0.953997 32.5465 1.54187 33.1469C2.06042 33.6766 2.74223 34.0128 3.47713 34.1088C4.31366 34.2181 5.25405 33.8544 7.13468 33.1269L9.31016 32.2853C11.2249 31.5446 12.1821 31.1747 13.0284 31.2905C13.7717 31.3921 14.4579 31.7455 14.9753 32.289C15.5643 32.9078 15.8252 33.8986 16.3452 35.8853L20.2005 50.6141M20.2005 50.6141L20.2244 50.7054M12.825 18.348C11.1519 17.6058 10.3988 15.6445 11.1428 13.9672C11.8868 12.29 13.8463 11.532 15.5194 12.2742C17.1925 13.0164 17.9457 14.9777 17.2016 16.655C16.4576 18.3322 14.4981 19.0902 12.825 18.348Z" stroke="white" stroke-opacity="0.1" stroke-width="8" stroke-linecap="round" stroke-linejoin="round"/>
<path d="M87.9574 128.141C87.8332 127.953 87.7054 127.76 87.5735 127.561L69.1437 99.6824C66.9933 96.4297 65.9173 94.8021 65.726 93.1432C65.5577 91.6841 65.8543 90.2121 66.5737 88.9363C67.3916 87.4859 69.0113 86.4151 72.2484 84.2752L105.772 62.1134C109.009 59.9734 110.626 58.904 112.281 58.7197C113.737 58.5575 115.209 58.8603 116.486 59.5868C117.935 60.4119 119.01 62.0375 121.156 65.2839L139.598 93.18C140.529 94.5884 141.258 95.6914 141.801 96.6241M87.9574 128.141C89.857 131.01 90.8865 132.488 92.2488 133.263C93.5254 133.99 94.9979 134.297 96.4535 134.134C98.1068 133.95 99.7246 132.881 102.955 130.745L136.498 108.57C139.729 106.435 141.344 105.367 142.161 103.918C142.881 102.642 143.177 101.166 143.008 99.7069C142.9 98.7686 142.509 97.8413 141.801 96.6241M87.9574 128.141L91.0575 102.878L91.0586 102.871C91.3336 100.63 91.4713 99.5083 92.0263 98.7697C92.5138 98.1209 93.2136 97.6659 94.0042 97.4825C94.9051 97.2735 95.9872 97.601 98.1522 98.2573L112.025 102.462C114.029 103.07 115.037 103.375 115.898 103.197C116.657 103.039 117.337 102.628 117.835 102.035C118.402 101.359 118.611 100.325 119.028 98.2559L119.51 95.8627C119.934 93.7564 120.147 92.7037 120.725 92.0232C121.233 91.4255 121.931 91.0205 122.701 90.8717C123.578 90.7022 124.599 91.0324 126.643 91.697L141.801 96.6241M141.801 96.6241L141.895 96.6547M109.198 84.887C107.602 85.9421 105.448 85.4973 104.388 83.8935C103.328 82.2897 103.762 80.1342 105.358 79.079C106.954 78.0239 109.108 78.4687 110.168 80.0725C111.228 81.6763 110.794 83.8318 109.198 84.887Z" stroke="white" stroke-opacity="0.1" stroke-width="8" stroke-linecap="round" stroke-linejoin="round"/>
</g>
<defs>
<linearGradient id="paint0_linear_47_5707" x1="-7.43974e-07" y1="113" x2="123.969" y2="99.3065" gradientUnits="userSpaceOnUse">
<stop offset="0.310515" stop-color="#2B2B2B"/>
<stop offset="1" stop-color="#3C3C3C"/>
</linearGradient>
<clipPath id="clip0_47_5707">
<rect width="113" height="113" fill="white"/>
</clipPath>
</defs>
</svg>
