<svg width="390" height="96" viewBox="0 0 390 96" fill="none" xmlns="http://www.w3.org/2000/svg">
<rect width="390" height="96" fill="#131313"/>
<path d="M157.611 49.168H166.403L165.815 52.836H163.267L160.551 70H156.939L159.655 52.836H157.023L157.611 49.168ZM165.091 70L165.623 66.668H166.827C167.051 66.668 167.21 66.612 167.303 66.5C167.397 66.388 167.481 66.192 167.555 65.912L167.639 65.604C167.751 65.1373 167.807 64.54 167.807 63.812L167.359 49.168H170.971L170.803 57.82L173.407 49.168H176.907L170.523 67.732C170.019 69.244 169.207 70 168.087 70H165.091ZM182.204 61.656H180.104L178.788 70H175.176L178.48 49.168H183.268C184.743 49.168 185.741 49.5227 186.264 50.232C186.805 50.9227 186.955 51.94 186.712 53.284L186.04 57.456C185.835 58.8187 185.443 59.864 184.864 60.592C184.285 61.3013 183.399 61.656 182.204 61.656ZM181.588 52.388L180.664 58.268H181.42C181.775 58.268 182.017 58.184 182.148 58.016C182.279 57.848 182.372 57.5587 182.428 57.148L182.988 53.62C183.119 52.7987 182.867 52.388 182.232 52.388H181.588ZM191.015 61.208L189.615 70H186.003L189.307 49.168H192.919L191.659 57.12H193.591L194.851 49.168H198.463L195.159 70H191.547L192.947 61.208H191.015ZM203.23 70L204.994 58.94L200.822 70H197.266L200.57 49.168H204.126L202.362 60.312L206.534 49.168H210.09L206.786 70H203.23ZM216.025 61.656H213.925L212.609 70H208.997L212.301 49.168H217.089C218.564 49.168 219.562 49.5227 220.085 50.232C220.626 50.9227 220.776 51.94 220.533 53.284L219.861 57.456C219.656 58.8187 219.264 59.864 218.685 60.592C218.106 61.3013 217.22 61.656 216.025 61.656ZM215.409 52.388L214.485 58.268H215.241C215.596 58.268 215.838 58.184 215.969 58.016C216.1 57.848 216.193 57.5587 216.249 57.148L216.809 53.62C216.94 52.7987 216.688 52.388 216.053 52.388H215.409ZM225.48 56.672H227.244C229.633 56.672 230.585 58.072 230.1 60.872L229.288 65.912C229.083 67.312 228.672 68.348 228.056 69.02C227.459 69.6733 226.423 70 224.948 70H219.768L223.072 49.168H226.684L225.48 56.672ZM223.884 66.78H224.584C224.976 66.78 225.247 66.6867 225.396 66.5C225.545 66.2947 225.657 65.9867 225.732 65.576L226.432 61.236C226.507 60.8627 226.488 60.5733 226.376 60.368C226.283 60.1627 226.04 60.06 225.648 60.06H224.948L223.884 66.78ZM236.4 49.168L233.096 70H229.484L232.788 49.168H236.4Z" fill="url(#paint0_linear_41_2187)"/>
<rect x="16" y="39" width="41" height="41" rx="20.5" fill="#E7D692"/>
<path d="M24.5265 71.1806C24.5265 71.1806 27.3973 71.9024 32.9597 72.0001C32.9597 72.0001 33.2328 71.6212 33.5786 70.959C44.9587 69.0207 48.4719 62.2995 48.4719 62.2995C42.9802 65.9634 36.4075 67.2488 34.7893 67.5214C34.9032 66.9411 34.9696 66.3535 34.9879 65.7637L24.5265 71.1806Z" fill="#101010"/>
<path d="M47.2127 56.768C44.0354 55.3974 38.8509 56.6495 34.629 58.1548L34.6323 58.1452C29.0523 59.9496 30.1336 57.0257 30.171 56.9282C30.5681 56.2643 31.2775 55.4558 32.3687 54.4762C32.3687 54.4762 19.3506 59.4556 25.7874 62.2326C28.9646 63.6031 34.1491 62.351 38.371 60.8457L38.3677 60.8554C43.9477 59.0509 42.8665 61.9749 42.8291 62.0723C42.4319 62.7362 41.7225 63.5447 40.6313 64.5243C40.6308 64.5243 53.6494 59.5443 47.2127 56.768Z" fill="#101010"/>
<path d="M48.4728 47.8194C48.4728 47.8194 45.602 47.0977 40.0395 47C40.0395 47 39.7665 47.3788 39.4206 48.0411C28.0405 49.9794 24.5273 56.7006 24.5273 56.7006C30.019 53.0367 36.5917 51.7512 38.21 51.4785C38.0961 52.0588 38.0297 52.6465 38.0114 53.2363L48.4728 47.8194Z" fill="#101010"/>
<defs>
<linearGradient id="paint0_linear_41_2187" x1="194.452" y1="49" x2="250.992" y2="73.551" gradientUnits="userSpaceOnUse">
<stop stop-color="#E0E0E0"/>
<stop offset="1" stop-color="#7A7A7A"/>
</linearGradient>
</defs>
</svg>
