<svg width="390" height="260" viewBox="0 0 390 260" fill="none" xmlns="http://www.w3.org/2000/svg">
<g clip-path="url(#clip0_41_3375)">
<mask id="path-2-inside-1_41_3375" fill="white">
<path d="M0 57.6C0 37.4381 0 27.3572 3.92377 19.6563C7.37521 12.8825 12.8825 7.37521 19.6563 3.92377C27.3572 0 37.4381 0 57.6 0H332.4C352.562 0 362.643 0 370.344 3.92377C377.117 7.37521 382.625 12.8825 386.076 19.6563C390 27.3572 390 37.4381 390 57.6V260H0V57.6Z"/>
</mask>
<path d="M0 57.6C0 37.4381 0 27.3572 3.92377 19.6563C7.37521 12.8825 12.8825 7.37521 19.6563 3.92377C27.3572 0 37.4381 0 57.6 0H332.4C352.562 0 362.643 0 370.344 3.92377C377.117 7.37521 382.625 12.8825 386.076 19.6563C390 27.3572 390 37.4381 390 57.6V260H0V57.6Z" fill="#1B1B1B"/>
<path d="M0 36C0 13.9086 17.9086 -4 40 -4H350C372.091 -4 390 13.9086 390 36C390 18.3269 373.882 4 354 4H36C16.1177 4 0 18.3269 0 36ZM0 36M390 260H0H390M390 260M0 260V0V260M0 260M390 0V260V0" fill="#E7D692" mask="url(#path-2-inside-1_41_3375)"/>
<rect x="167" y="8" width="56" height="4" rx="2" fill="#5E5E5E"/>
<path d="M82 196C82 188.545 82 184.817 83.2179 181.877C84.8418 177.957 87.9566 174.842 91.8771 173.218C94.8174 172 98.5449 172 106 172H166C173.455 172 177.183 172 180.123 173.218C184.043 174.842 187.158 177.957 188.782 181.877C190 184.817 190 188.545 190 196C190 203.455 190 207.183 188.782 210.123C187.158 214.043 184.043 217.158 180.123 218.782C177.183 220 173.455 220 166 220H106C98.5449 220 94.8174 220 91.8771 218.782C87.9566 217.158 84.8418 214.043 83.2179 210.123C82 207.183 82 203.455 82 196Z" fill="#D9D9D9" fill-opacity="0.06"/>
<path d="M98.6305 202V190.8H103.239C104.231 190.8 105.079 190.96 105.783 191.28C106.497 191.6 107.047 192.059 107.431 192.656C107.815 193.253 108.007 193.963 108.007 194.784C108.007 195.605 107.815 196.315 107.431 196.912C107.047 197.509 106.497 197.968 105.783 198.288C105.079 198.608 104.231 198.768 103.239 198.768H99.7825L100.711 197.792V202H98.6305ZM100.711 198.016L99.7825 197.008H103.143C104.06 197.008 104.748 196.816 105.207 196.432C105.676 196.037 105.911 195.488 105.911 194.784C105.911 194.069 105.676 193.52 105.207 193.136C104.748 192.752 104.06 192.56 103.143 192.56H99.7825L100.711 191.536V198.016ZM113.703 202.112C112.754 202.112 111.922 201.925 111.207 201.552C110.503 201.168 109.954 200.645 109.559 199.984C109.175 199.323 108.983 198.571 108.983 197.728C108.983 196.875 109.17 196.123 109.543 195.472C109.927 194.811 110.45 194.293 111.111 193.92C111.783 193.547 112.546 193.36 113.399 193.36C114.231 193.36 114.972 193.541 115.623 193.904C116.274 194.267 116.786 194.779 117.159 195.44C117.532 196.101 117.719 196.88 117.719 197.776C117.719 197.861 117.714 197.957 117.703 198.064C117.703 198.171 117.698 198.272 117.687 198.368H110.567V197.04H116.631L115.847 197.456C115.858 196.965 115.756 196.533 115.543 196.16C115.33 195.787 115.036 195.493 114.663 195.28C114.3 195.067 113.879 194.96 113.399 194.96C112.908 194.96 112.476 195.067 112.103 195.28C111.74 195.493 111.452 195.792 111.239 196.176C111.036 196.549 110.935 196.992 110.935 197.504V197.824C110.935 198.336 111.052 198.789 111.287 199.184C111.522 199.579 111.852 199.883 112.279 200.096C112.706 200.309 113.196 200.416 113.751 200.416C114.231 200.416 114.663 200.341 115.047 200.192C115.431 200.043 115.772 199.808 116.071 199.488L117.143 200.72C116.759 201.168 116.274 201.515 115.687 201.76C115.111 201.995 114.45 202.112 113.703 202.112ZM120.885 200.608L118.901 200.304C119.221 200.304 119.477 200.203 119.669 200C119.872 199.787 120.026 199.499 120.133 199.136C120.25 198.763 120.336 198.341 120.389 197.872C120.442 197.392 120.48 196.896 120.501 196.384L120.613 193.456H127.653V201.072H125.653V195.152H122.373L122.325 196.528C122.304 197.019 122.272 197.493 122.229 197.952C122.186 198.4 122.117 198.816 122.021 199.2C121.925 199.573 121.786 199.883 121.605 200.128C121.424 200.373 121.184 200.533 120.885 200.608ZM118.597 203.904V200.304H128.917V203.904H127.045V202H120.453V203.904H118.597ZM135.887 202V200.272L135.775 199.904V196.88C135.775 196.293 135.599 195.84 135.247 195.52C134.895 195.189 134.362 195.024 133.647 195.024C133.167 195.024 132.693 195.099 132.223 195.248C131.765 195.397 131.375 195.605 131.055 195.872L130.271 194.416C130.73 194.064 131.274 193.803 131.903 193.632C132.543 193.451 133.205 193.36 133.887 193.36C135.125 193.36 136.079 193.659 136.751 194.256C137.434 194.843 137.775 195.755 137.775 196.992V202H135.887ZM133.199 202.112C132.559 202.112 131.999 202.005 131.519 201.792C131.039 201.568 130.666 201.264 130.399 200.88C130.143 200.485 130.015 200.043 130.015 199.552C130.015 199.072 130.127 198.64 130.351 198.256C130.586 197.872 130.965 197.568 131.487 197.344C132.01 197.12 132.703 197.008 133.567 197.008H136.047V198.336H133.711C133.029 198.336 132.57 198.448 132.335 198.672C132.101 198.885 131.983 199.152 131.983 199.472C131.983 199.835 132.127 200.123 132.415 200.336C132.703 200.549 133.103 200.656 133.615 200.656C134.106 200.656 134.543 200.544 134.927 200.32C135.322 200.096 135.605 199.765 135.775 199.328L136.111 200.528C135.919 201.029 135.573 201.419 135.071 201.696C134.581 201.973 133.957 202.112 133.199 202.112ZM146.378 202L143.29 197.904L144.922 196.896L148.73 202H146.378ZM140.25 202V193.456H142.25V202H140.25ZM141.658 198.576V196.912H144.554V198.576H141.658ZM145.114 197.968L143.242 197.744L146.378 193.456H148.522L145.114 197.968ZM151.808 202V194.672L152.272 195.152H148.8V193.456H156.8V195.152H153.344L153.808 194.672V202H151.808ZM161.683 202.112C160.809 202.112 160.03 201.925 159.347 201.552C158.665 201.168 158.126 200.645 157.731 199.984C157.337 199.323 157.139 198.571 157.139 197.728C157.139 196.875 157.337 196.123 157.731 195.472C158.126 194.811 158.665 194.293 159.347 193.92C160.03 193.547 160.809 193.36 161.683 193.36C162.569 193.36 163.353 193.547 164.035 193.92C164.729 194.293 165.267 194.805 165.651 195.456C166.046 196.107 166.243 196.864 166.243 197.728C166.243 198.571 166.046 199.323 165.651 199.984C165.267 200.645 164.729 201.168 164.035 201.552C163.353 201.925 162.569 202.112 161.683 202.112ZM161.683 200.4C162.174 200.4 162.611 200.293 162.995 200.08C163.379 199.867 163.678 199.557 163.891 199.152C164.115 198.747 164.227 198.272 164.227 197.728C164.227 197.173 164.115 196.699 163.891 196.304C163.678 195.899 163.379 195.589 162.995 195.376C162.611 195.163 162.179 195.056 161.699 195.056C161.209 195.056 160.771 195.163 160.387 195.376C160.014 195.589 159.715 195.899 159.491 196.304C159.267 196.699 159.155 197.173 159.155 197.728C159.155 198.272 159.267 198.747 159.491 199.152C159.715 199.557 160.014 199.867 160.387 200.08C160.771 200.293 161.203 200.4 161.683 200.4ZM172.955 202.112C172.262 202.112 171.627 201.952 171.051 201.632C170.486 201.312 170.032 200.832 169.691 200.192C169.36 199.541 169.195 198.72 169.195 197.728C169.195 196.725 169.355 195.904 169.675 195.264C170.006 194.624 170.454 194.149 171.019 193.84C171.584 193.52 172.23 193.36 172.955 193.36C173.798 193.36 174.539 193.541 175.179 193.904C175.83 194.267 176.342 194.773 176.715 195.424C177.099 196.075 177.291 196.843 177.291 197.728C177.291 198.613 177.099 199.387 176.715 200.048C176.342 200.699 175.83 201.205 175.179 201.568C174.539 201.931 173.798 202.112 172.955 202.112ZM168.219 205.104V193.456H170.123V195.472L170.059 197.744L170.219 200.016V205.104H168.219ZM172.731 200.4C173.211 200.4 173.638 200.293 174.011 200.08C174.395 199.867 174.699 199.557 174.923 199.152C175.147 198.747 175.259 198.272 175.259 197.728C175.259 197.173 175.147 196.699 174.923 196.304C174.699 195.899 174.395 195.589 174.011 195.376C173.638 195.163 173.211 195.056 172.731 195.056C172.251 195.056 171.819 195.163 171.435 195.376C171.051 195.589 170.747 195.899 170.523 196.304C170.299 196.699 170.187 197.173 170.187 197.728C170.187 198.272 170.299 198.747 170.523 199.152C170.747 199.557 171.051 199.867 171.435 200.08C171.819 200.293 172.251 200.4 172.731 200.4Z" fill="#595959"/>
<path d="M82 196C82 188.545 82 184.817 83.2179 181.877C84.8418 177.957 87.9566 174.842 91.8771 173.218C94.8174 172 98.5449 172 106 172H166C173.455 172 177.183 172 180.123 173.218C184.043 174.842 187.158 177.957 188.782 181.877C190 184.817 190 188.545 190 196C190 203.455 190 207.183 188.782 210.123C187.158 214.043 184.043 217.158 180.123 218.782C177.183 220 173.455 220 166 220H106C98.5449 220 94.8174 220 91.8771 218.782C87.9566 217.158 84.8418 214.043 83.2179 210.123C82 207.183 82 203.455 82 196Z" fill="#424242"/>
<path d="M98.6305 202V190.8H103.239C104.231 190.8 105.079 190.96 105.783 191.28C106.497 191.6 107.047 192.059 107.431 192.656C107.815 193.253 108.007 193.963 108.007 194.784C108.007 195.605 107.815 196.315 107.431 196.912C107.047 197.509 106.497 197.968 105.783 198.288C105.079 198.608 104.231 198.768 103.239 198.768H99.7825L100.711 197.792V202H98.6305ZM100.711 198.016L99.7825 197.008H103.143C104.06 197.008 104.748 196.816 105.207 196.432C105.676 196.037 105.911 195.488 105.911 194.784C105.911 194.069 105.676 193.52 105.207 193.136C104.748 192.752 104.06 192.56 103.143 192.56H99.7825L100.711 191.536V198.016ZM113.703 202.112C112.754 202.112 111.922 201.925 111.207 201.552C110.503 201.168 109.954 200.645 109.559 199.984C109.175 199.323 108.983 198.571 108.983 197.728C108.983 196.875 109.17 196.123 109.543 195.472C109.927 194.811 110.45 194.293 111.111 193.92C111.783 193.547 112.546 193.36 113.399 193.36C114.231 193.36 114.972 193.541 115.623 193.904C116.274 194.267 116.786 194.779 117.159 195.44C117.532 196.101 117.719 196.88 117.719 197.776C117.719 197.861 117.714 197.957 117.703 198.064C117.703 198.171 117.698 198.272 117.687 198.368H110.567V197.04H116.631L115.847 197.456C115.858 196.965 115.756 196.533 115.543 196.16C115.33 195.787 115.036 195.493 114.663 195.28C114.3 195.067 113.879 194.96 113.399 194.96C112.908 194.96 112.476 195.067 112.103 195.28C111.74 195.493 111.452 195.792 111.239 196.176C111.036 196.549 110.935 196.992 110.935 197.504V197.824C110.935 198.336 111.052 198.789 111.287 199.184C111.522 199.579 111.852 199.883 112.279 200.096C112.706 200.309 113.196 200.416 113.751 200.416C114.231 200.416 114.663 200.341 115.047 200.192C115.431 200.043 115.772 199.808 116.071 199.488L117.143 200.72C116.759 201.168 116.274 201.515 115.687 201.76C115.111 201.995 114.45 202.112 113.703 202.112ZM120.885 200.608L118.901 200.304C119.221 200.304 119.477 200.203 119.669 200C119.872 199.787 120.026 199.499 120.133 199.136C120.25 198.763 120.336 198.341 120.389 197.872C120.442 197.392 120.48 196.896 120.501 196.384L120.613 193.456H127.653V201.072H125.653V195.152H122.373L122.325 196.528C122.304 197.019 122.272 197.493 122.229 197.952C122.186 198.4 122.117 198.816 122.021 199.2C121.925 199.573 121.786 199.883 121.605 200.128C121.424 200.373 121.184 200.533 120.885 200.608ZM118.597 203.904V200.304H128.917V203.904H127.045V202H120.453V203.904H118.597ZM135.887 202V200.272L135.775 199.904V196.88C135.775 196.293 135.599 195.84 135.247 195.52C134.895 195.189 134.362 195.024 133.647 195.024C133.167 195.024 132.693 195.099 132.223 195.248C131.765 195.397 131.375 195.605 131.055 195.872L130.271 194.416C130.73 194.064 131.274 193.803 131.903 193.632C132.543 193.451 133.205 193.36 133.887 193.36C135.125 193.36 136.079 193.659 136.751 194.256C137.434 194.843 137.775 195.755 137.775 196.992V202H135.887ZM133.199 202.112C132.559 202.112 131.999 202.005 131.519 201.792C131.039 201.568 130.666 201.264 130.399 200.88C130.143 200.485 130.015 200.043 130.015 199.552C130.015 199.072 130.127 198.64 130.351 198.256C130.586 197.872 130.965 197.568 131.487 197.344C132.01 197.12 132.703 197.008 133.567 197.008H136.047V198.336H133.711C133.029 198.336 132.57 198.448 132.335 198.672C132.101 198.885 131.983 199.152 131.983 199.472C131.983 199.835 132.127 200.123 132.415 200.336C132.703 200.549 133.103 200.656 133.615 200.656C134.106 200.656 134.543 200.544 134.927 200.32C135.322 200.096 135.605 199.765 135.775 199.328L136.111 200.528C135.919 201.029 135.573 201.419 135.071 201.696C134.581 201.973 133.957 202.112 133.199 202.112ZM146.378 202L143.29 197.904L144.922 196.896L148.73 202H146.378ZM140.25 202V193.456H142.25V202H140.25ZM141.658 198.576V196.912H144.554V198.576H141.658ZM145.114 197.968L143.242 197.744L146.378 193.456H148.522L145.114 197.968ZM151.808 202V194.672L152.272 195.152H148.8V193.456H156.8V195.152H153.344L153.808 194.672V202H151.808ZM161.683 202.112C160.809 202.112 160.03 201.925 159.347 201.552C158.665 201.168 158.126 200.645 157.731 199.984C157.337 199.323 157.139 198.571 157.139 197.728C157.139 196.875 157.337 196.123 157.731 195.472C158.126 194.811 158.665 194.293 159.347 193.92C160.03 193.547 160.809 193.36 161.683 193.36C162.569 193.36 163.353 193.547 164.035 193.92C164.729 194.293 165.267 194.805 165.651 195.456C166.046 196.107 166.243 196.864 166.243 197.728C166.243 198.571 166.046 199.323 165.651 199.984C165.267 200.645 164.729 201.168 164.035 201.552C163.353 201.925 162.569 202.112 161.683 202.112ZM161.683 200.4C162.174 200.4 162.611 200.293 162.995 200.08C163.379 199.867 163.678 199.557 163.891 199.152C164.115 198.747 164.227 198.272 164.227 197.728C164.227 197.173 164.115 196.699 163.891 196.304C163.678 195.899 163.379 195.589 162.995 195.376C162.611 195.163 162.179 195.056 161.699 195.056C161.209 195.056 160.771 195.163 160.387 195.376C160.014 195.589 159.715 195.899 159.491 196.304C159.267 196.699 159.155 197.173 159.155 197.728C159.155 198.272 159.267 198.747 159.491 199.152C159.715 199.557 160.014 199.867 160.387 200.08C160.771 200.293 161.203 200.4 161.683 200.4ZM172.955 202.112C172.262 202.112 171.627 201.952 171.051 201.632C170.486 201.312 170.032 200.832 169.691 200.192C169.36 199.541 169.195 198.72 169.195 197.728C169.195 196.725 169.355 195.904 169.675 195.264C170.006 194.624 170.454 194.149 171.019 193.84C171.584 193.52 172.23 193.36 172.955 193.36C173.798 193.36 174.539 193.541 175.179 193.904C175.83 194.267 176.342 194.773 176.715 195.424C177.099 196.075 177.291 196.843 177.291 197.728C177.291 198.613 177.099 199.387 176.715 200.048C176.342 200.699 175.83 201.205 175.179 201.568C174.539 201.931 173.798 202.112 172.955 202.112ZM168.219 205.104V193.456H170.123V195.472L170.059 197.744L170.219 200.016V205.104H168.219ZM172.731 200.4C173.211 200.4 173.638 200.293 174.011 200.08C174.395 199.867 174.699 199.557 174.923 199.152C175.147 198.747 175.259 198.272 175.259 197.728C175.259 197.173 175.147 196.699 174.923 196.304C174.699 195.899 174.395 195.589 174.011 195.376C173.638 195.163 173.211 195.056 172.731 195.056C172.251 195.056 171.819 195.163 171.435 195.376C171.051 195.589 170.747 195.899 170.523 196.304C170.299 196.699 170.187 197.173 170.187 197.728C170.187 198.272 170.299 198.747 170.523 199.152C170.747 199.557 171.051 199.867 171.435 200.08C171.819 200.293 172.251 200.4 172.731 200.4Z" fill="white"/>
<path d="M198 196C198 188.545 198 184.817 199.218 181.877C200.842 177.957 203.957 174.842 207.877 173.218C210.817 172 214.545 172 222 172H282C289.455 172 293.183 172 296.123 173.218C300.043 174.842 303.158 177.957 304.782 181.877C306 184.817 306 188.545 306 196C306 203.455 306 207.183 304.782 210.123C303.158 214.043 300.043 217.158 296.123 218.782C293.183 220 289.455 220 282 220H222C214.545 220 210.817 220 207.877 218.782C203.957 217.158 200.842 214.043 199.218 210.123C198 207.183 198 203.455 198 196Z" fill="#D9D9D9" fill-opacity="0.06"/>
<path d="M224.41 202L229.45 190.8H231.498L236.554 202H234.378L230.042 191.904H230.874L226.554 202H224.41ZM226.73 199.408L227.29 197.776H233.338L233.898 199.408H226.73ZM239.151 200.608L237.167 200.304C237.487 200.304 237.743 200.203 237.935 200C238.137 199.787 238.292 199.499 238.399 199.136C238.516 198.763 238.601 198.341 238.655 197.872C238.708 197.392 238.745 196.896 238.767 196.384L238.879 193.456H245.919V201.072H243.919V195.152H240.639L240.591 196.528C240.569 197.019 240.537 197.493 240.495 197.952C240.452 198.4 240.383 198.816 240.287 199.2C240.191 199.573 240.052 199.883 239.871 200.128C239.689 200.373 239.449 200.533 239.151 200.608ZM236.863 203.904V200.304H247.183V203.904H245.311V202H238.719V203.904H236.863ZM248.969 202V193.456H251.065L254.505 199.52H253.673L257.289 193.456H259.161L259.177 202H257.369V195.6L257.689 195.808L254.489 201.104H253.625L250.409 195.664L250.793 195.568V202H248.969ZM261.86 202V193.456H263.86V199.088L268.58 193.456H270.404V202H268.404V196.368L263.7 202H261.86ZM273.094 202V193.456H275.094V196.928H279.398V193.456H281.398V202H279.398V198.624H275.094V202H273.094Z" fill="#595959"/>
<path d="M25 144C25 136.545 25 132.817 26.2179 129.877C27.8418 125.957 30.9566 122.842 34.8771 121.218C37.8174 120 41.5449 120 49 120H341C348.455 120 352.183 120 355.123 121.218C359.043 122.842 362.158 125.957 363.782 129.877C365 132.817 365 136.545 365 144C365 151.455 365 155.183 363.782 158.123C362.158 162.043 359.043 165.158 355.123 166.782C352.183 168 348.455 168 341 168H49C41.5449 168 37.8174 168 34.8771 166.782C30.9566 165.158 27.8418 162.043 26.2179 158.123C25 155.183 25 151.455 25 144Z" fill="#D9D9D9" fill-opacity="0.06"/>
<path d="M317 120H341C348.455 120 352.183 120 355.123 121.218C359.043 122.842 362.158 125.957 363.782 129.877C365 132.817 365 136.545 365 144C365 151.455 365 155.183 363.782 158.123C362.158 162.043 359.043 165.158 355.123 166.782C352.183 168 348.455 168 341 168H317V120Z" fill="#D9D9D9" fill-opacity="0.05"/>
<path d="M317 120H341C348.455 120 352.183 120 355.123 121.218C359.043 122.842 362.158 125.957 363.782 129.877C365 132.817 365 136.545 365 144C365 151.455 365 155.183 363.782 158.123C362.158 162.043 359.043 165.158 355.123 166.782C352.183 168 348.455 168 341 168H317V120Z" fill="#E7D692" fill-opacity="0.15"/>
<path d="M349.508 136.175C349.964 135.72 350.703 135.72 351.158 136.175C351.614 136.631 351.614 137.369 351.158 137.825L338.325 150.658C337.869 151.114 337.131 151.114 336.675 150.658L330.842 144.825C330.386 144.369 330.386 143.631 330.842 143.175C331.297 142.72 332.036 142.72 332.492 143.175L337.5 148.184L349.508 136.175Z" fill="#E7D692"/>
<path d="M47.288 153.264C46.1573 153.264 45.128 153.083 44.2 152.72C43.272 152.357 42.472 151.845 41.8 151.184C41.128 150.523 40.6107 149.749 40.248 148.864C39.8853 147.968 39.704 146.992 39.704 145.936C39.704 144.88 39.8853 143.909 40.248 143.024C40.6107 142.139 41.128 141.371 41.8 140.72C42.4827 140.069 43.2933 139.563 44.232 139.2C45.1707 138.837 46.2107 138.656 47.352 138.656C48.4507 138.656 49.4587 138.832 50.376 139.184C51.2933 139.525 52.0827 140.011 52.744 140.64C53.416 141.259 53.9333 141.995 54.296 142.848C54.6693 143.701 54.856 144.64 54.856 145.664C54.856 146.581 54.7333 147.376 54.488 148.048C54.2427 148.709 53.8907 149.216 53.432 149.568C52.984 149.92 52.4347 150.096 51.784 150.096C51.1227 150.096 50.5947 149.899 50.2 149.504C49.816 149.109 49.624 148.539 49.624 147.792V146.88L49.688 145.968L49.544 143.888V142.064H51.32V147.504C51.32 147.909 51.4 148.197 51.56 148.368C51.7307 148.528 51.928 148.608 52.152 148.608C52.44 148.608 52.6853 148.496 52.888 148.272C53.0907 148.048 53.24 147.717 53.336 147.28C53.4427 146.843 53.496 146.315 53.496 145.696C53.496 144.843 53.3467 144.064 53.048 143.36C52.76 142.656 52.3387 142.053 51.784 141.552C51.24 141.04 50.5893 140.651 49.832 140.384C49.0853 140.107 48.2587 139.968 47.352 139.968C46.424 139.968 45.5813 140.117 44.824 140.416C44.0667 140.704 43.416 141.115 42.872 141.648C42.328 142.181 41.9067 142.816 41.608 143.552C41.32 144.277 41.176 145.072 41.176 145.936C41.176 146.821 41.32 147.632 41.608 148.368C41.896 149.104 42.3067 149.733 42.84 150.256C43.384 150.789 44.0293 151.2 44.776 151.488C45.5227 151.787 46.36 151.936 47.288 151.936C47.7787 151.936 48.296 151.877 48.84 151.76C49.384 151.653 49.9013 151.477 50.392 151.232L50.824 152.512C50.3333 152.757 49.768 152.944 49.128 153.072C48.488 153.2 47.8747 153.264 47.288 153.264ZM46.872 150.096C46.136 150.096 45.48 149.925 44.904 149.584C44.328 149.232 43.8693 148.752 43.528 148.144C43.1973 147.525 43.032 146.816 43.032 146.016C43.032 145.227 43.1973 144.528 43.528 143.92C43.8587 143.301 44.312 142.821 44.888 142.48C45.4747 142.139 46.136 141.968 46.872 141.968C47.5867 141.968 48.2107 142.128 48.744 142.448C49.2773 142.757 49.6933 143.211 49.992 143.808C50.2907 144.405 50.44 145.141 50.44 146.016C50.44 146.891 50.296 147.632 50.008 148.24C49.72 148.848 49.3093 149.312 48.776 149.632C48.2427 149.941 47.608 150.096 46.872 150.096ZM47.208 148.544C47.6667 148.544 48.072 148.448 48.424 148.256C48.776 148.053 49.0533 147.76 49.256 147.376C49.4693 146.992 49.576 146.539 49.576 146.016C49.576 145.483 49.4693 145.035 49.256 144.672C49.0533 144.299 48.776 144.016 48.424 143.824C48.072 143.621 47.6667 143.52 47.208 143.52C46.7387 143.52 46.3227 143.621 45.96 143.824C45.608 144.027 45.3307 144.315 45.128 144.688C44.936 145.061 44.84 145.504 44.84 146.016C44.84 146.539 44.936 146.987 45.128 147.36C45.3307 147.733 45.608 148.027 45.96 148.24C46.3227 148.443 46.7387 148.544 47.208 148.544ZM62.1229 150V148.272L62.0109 147.904V144.88C62.0109 144.293 61.8349 143.84 61.4829 143.52C61.1309 143.189 60.5975 143.024 59.8829 143.024C59.4029 143.024 58.9282 143.099 58.4589 143.248C58.0002 143.397 57.6109 143.605 57.2909 143.872L56.5069 142.416C56.9655 142.064 57.5095 141.803 58.1389 141.632C58.7789 141.451 59.4402 141.36 60.1229 141.36C61.3602 141.36 62.3149 141.659 62.9869 142.256C63.6695 142.843 64.0109 143.755 64.0109 144.992V150H62.1229ZM59.4349 150.112C58.7949 150.112 58.2349 150.005 57.7549 149.792C57.2749 149.568 56.9015 149.264 56.6349 148.88C56.3789 148.485 56.2509 148.043 56.2509 147.552C56.2509 147.072 56.3629 146.64 56.5869 146.256C56.8215 145.872 57.2002 145.568 57.7229 145.344C58.2455 145.12 58.9389 145.008 59.8029 145.008H62.2829V146.336H59.9469C59.2642 146.336 58.8055 146.448 58.5709 146.672C58.3362 146.885 58.2189 147.152 58.2189 147.472C58.2189 147.835 58.3629 148.123 58.6509 148.336C58.9389 148.549 59.3389 148.656 59.8509 148.656C60.3415 148.656 60.7789 148.544 61.1629 148.32C61.5575 148.096 61.8402 147.765 62.0109 147.328L62.3469 148.528C62.1549 149.029 61.8082 149.419 61.3069 149.696C60.8162 149.973 60.1922 150.112 59.4349 150.112ZM70.2093 150.112C69.3879 150.112 68.6466 149.931 67.9853 149.568C67.3346 149.195 66.8226 148.683 66.4493 148.032C66.0759 147.381 65.8893 146.613 65.8893 145.728C65.8893 144.843 66.0759 144.075 66.4493 143.424C66.8226 142.773 67.3346 142.267 67.9853 141.904C68.6466 141.541 69.3879 141.36 70.2093 141.36C70.9239 141.36 71.5639 141.52 72.1293 141.84C72.6946 142.149 73.1426 142.624 73.4733 143.264C73.8039 143.904 73.9693 144.725 73.9693 145.728C73.9693 146.72 73.8093 147.541 73.4893 148.192C73.1693 148.832 72.7266 149.312 72.1613 149.632C71.5959 149.952 70.9453 150.112 70.2093 150.112ZM70.4493 148.4C70.9293 148.4 71.3559 148.293 71.7293 148.08C72.1133 147.867 72.4173 147.557 72.6413 147.152C72.8759 146.747 72.9933 146.272 72.9933 145.728C72.9933 145.173 72.8759 144.699 72.6413 144.304C72.4173 143.899 72.1133 143.589 71.7293 143.376C71.3559 143.163 70.9293 143.056 70.4493 143.056C69.9693 143.056 69.5373 143.163 69.1533 143.376C68.7799 143.589 68.4759 143.899 68.2413 144.304C68.0173 144.699 67.9053 145.173 67.9053 145.728C67.9053 146.272 68.0173 146.747 68.2413 147.152C68.4759 147.557 68.7799 147.867 69.1533 148.08C69.5373 148.293 69.9693 148.4 70.4493 148.4ZM73.0413 150V147.984L73.1213 145.712L72.9613 143.44V138.128H74.9453V150H73.0413ZM82.8416 150V148.272L82.7296 147.904V144.88C82.7296 144.293 82.5536 143.84 82.2016 143.52C81.8496 143.189 81.3163 143.024 80.6016 143.024C80.1216 143.024 79.647 143.099 79.1776 143.248C78.719 143.397 78.3296 143.605 78.0096 143.872L77.2256 142.416C77.6843 142.064 78.2283 141.803 78.8576 141.632C79.4976 141.451 80.159 141.36 80.8416 141.36C82.079 141.36 83.0336 141.659 83.7056 142.256C84.3883 142.843 84.7296 143.755 84.7296 144.992V150H82.8416ZM80.1536 150.112C79.5136 150.112 78.9536 150.005 78.4736 149.792C77.9936 149.568 77.6203 149.264 77.3536 148.88C77.0976 148.485 76.9696 148.043 76.9696 147.552C76.9696 147.072 77.0816 146.64 77.3056 146.256C77.5403 145.872 77.919 145.568 78.4416 145.344C78.9643 145.12 79.6576 145.008 80.5216 145.008H83.0016V146.336H80.6656C79.983 146.336 79.5243 146.448 79.2896 146.672C79.055 146.885 78.9376 147.152 78.9376 147.472C78.9376 147.835 79.0816 148.123 79.3696 148.336C79.6576 148.549 80.0576 148.656 80.5696 148.656C81.0603 148.656 81.4976 148.544 81.8816 148.32C82.2763 148.096 82.559 147.765 82.7296 147.328L83.0656 148.528C82.8736 149.029 82.527 149.419 82.0256 149.696C81.535 149.973 80.911 150.112 80.1536 150.112ZM87.2964 150V141.456H89.2004V143.728L88.8644 143.056C89.1524 142.501 89.5684 142.08 90.1124 141.792C90.667 141.504 91.2964 141.36 92.0004 141.36C92.8004 141.36 93.4937 141.557 94.0804 141.952C94.6777 142.347 95.0724 142.944 95.2644 143.744L94.4804 143.472C94.7577 142.832 95.2164 142.32 95.8564 141.936C96.4964 141.552 97.2377 141.36 98.0804 141.36C98.763 141.36 99.3657 141.493 99.8884 141.76C100.422 142.027 100.838 142.437 101.136 142.992C101.435 143.536 101.584 144.24 101.584 145.104V150H99.5844V145.36C99.5844 144.603 99.419 144.037 99.0884 143.664C98.7577 143.291 98.283 143.104 97.6644 143.104C97.227 143.104 96.8377 143.2 96.4964 143.392C96.1657 143.584 95.9044 143.867 95.7124 144.24C95.531 144.613 95.4404 145.088 95.4404 145.664V150H93.4404V145.36C93.4404 144.603 93.275 144.037 92.9444 143.664C92.6137 143.291 92.139 143.104 91.5204 143.104C91.083 143.104 90.6937 143.2 90.3524 143.392C90.0217 143.584 89.7604 143.867 89.5684 144.24C89.387 144.613 89.2964 145.088 89.2964 145.664V150H87.2964ZM109.404 150V148.272L109.292 147.904V144.88C109.292 144.293 109.116 143.84 108.764 143.52C108.412 143.189 107.879 143.024 107.164 143.024C106.684 143.024 106.209 143.099 105.74 143.248C105.281 143.397 104.892 143.605 104.572 143.872L103.788 142.416C104.247 142.064 104.791 141.803 105.42 141.632C106.06 141.451 106.721 141.36 107.404 141.36C108.641 141.36 109.596 141.659 110.268 142.256C110.951 142.843 111.292 143.755 111.292 144.992V150H109.404ZM106.716 150.112C106.076 150.112 105.516 150.005 105.036 149.792C104.556 149.568 104.183 149.264 103.916 148.88C103.66 148.485 103.532 148.043 103.532 147.552C103.532 147.072 103.644 146.64 103.868 146.256C104.103 145.872 104.481 145.568 105.004 145.344C105.527 145.12 106.22 145.008 107.084 145.008H109.564V146.336H107.228C106.545 146.336 106.087 146.448 105.852 146.672C105.617 146.885 105.5 147.152 105.5 147.472C105.5 147.835 105.644 148.123 105.932 148.336C106.22 148.549 106.62 148.656 107.132 148.656C107.623 148.656 108.06 148.544 108.444 148.32C108.839 148.096 109.121 147.765 109.292 147.328L109.628 148.528C109.436 149.029 109.089 149.419 108.588 149.696C108.097 149.973 107.473 150.112 106.716 150.112ZM113.859 150V141.456H115.763V143.76L115.427 143.056C115.726 142.512 116.158 142.096 116.723 141.808C117.299 141.509 117.96 141.36 118.707 141.36C119.39 141.36 119.998 141.493 120.531 141.76C121.075 142.027 121.502 142.437 121.811 142.992C122.12 143.536 122.275 144.24 122.275 145.104V150H120.275V145.36C120.275 144.603 120.094 144.037 119.731 143.664C119.379 143.291 118.883 143.104 118.243 143.104C117.774 143.104 117.358 143.2 116.995 143.392C116.632 143.584 116.35 143.872 116.147 144.256C115.955 144.629 115.859 145.104 115.859 145.68V150H113.859ZM128.028 150.112C127.089 150.112 126.364 149.872 125.852 149.392C125.34 148.901 125.084 148.181 125.084 147.232V139.568H127.084V147.184C127.084 147.589 127.185 147.904 127.388 148.128C127.601 148.352 127.895 148.464 128.268 148.464C128.716 148.464 129.089 148.347 129.388 148.112L129.948 149.536C129.713 149.728 129.425 149.872 129.084 149.968C128.743 150.064 128.391 150.112 128.028 150.112ZM123.676 143.056V141.456H129.372V143.056H123.676ZM133.529 150.16C132.815 150.16 132.153 150.021 131.545 149.744C130.948 149.467 130.457 149.067 130.073 148.544L131.257 147.12C131.567 147.547 131.903 147.867 132.265 148.08C132.639 148.293 133.044 148.4 133.481 148.4C134.644 148.4 135.225 147.712 135.225 146.336V140.544H131.241V138.8H137.305V146.224C137.305 147.547 136.98 148.533 136.329 149.184C135.689 149.835 134.756 150.16 133.529 150.16ZM140.223 153.104V138.128H142.063V153.104H140.223Z" fill="#595959"/>
<path d="M48.2952 36.844V46H45.1312V25.168H48.2952V33.512H50.4512V25.168H53.6152V46H50.4512V36.844H48.2952ZM60.6915 46L60.2715 42.08H57.9475L57.5555 46H54.7275L57.2755 25.168H61.0275L63.7435 46H60.6915ZM59.0955 31.272L58.2835 38.972H59.9355L59.0955 31.272ZM64.7629 46V25.168H73.0229V46H69.8589V28.192H67.9269V46H64.7629ZM80.1885 46V34.716L77.9205 46H74.7565V25.168H77.9205V36.452L80.1885 25.168H83.3525V46H80.1885ZM85.0782 46V25.168H88.2422V42.836H90.0342V25.168H93.1982V42.836H94.9902V25.168H98.1542V46H85.0782ZM105.316 46V34.716L103.048 46H99.8843V25.168H103.048V36.452L105.316 25.168H108.48V46H105.316ZM113.274 25.168H121.73V28.192H119.07V46H115.934V28.192H113.274V25.168ZM123.085 25.168H130.281V28.192H126.249V33.652H129.413V36.816H126.249V42.836H130.449V46H123.085V25.168ZM131.765 46V25.168H138.121V28.192H134.929V46H131.765ZM142.865 46V25.168H151.125V46H147.961V28.192H146.029V46H142.865ZM161.483 29.732V41.352C161.483 44.6187 160.139 46.252 157.451 46.252H156.919C154.194 46.252 152.831 44.6187 152.831 41.352V29.76C152.831 26.568 154.184 24.972 156.891 24.972H157.423C158.879 24.972 159.915 25.3827 160.531 26.204C161.166 27.0253 161.483 28.2013 161.483 29.732ZM158.263 41.576V29.592C158.263 28.528 157.899 27.996 157.171 27.996C156.424 27.996 156.051 28.528 156.051 29.592V41.576C156.051 42.64 156.434 43.172 157.199 43.172C157.908 43.172 158.263 42.64 158.263 41.576ZM168.839 46V28.192H166.991C166.991 35.64 166.898 40.484 166.711 42.724C166.637 43.844 166.347 44.6747 165.843 45.216C165.358 45.7387 164.546 46 163.407 46H162.623V42.78H162.847C163.202 42.78 163.445 42.6773 163.575 42.472C163.706 42.2667 163.79 41.9027 163.827 41.38C163.958 40.1293 164.023 34.7253 164.023 25.168H172.003V46H168.839ZM176.913 33.232H178.761C180.926 33.232 182.009 34.5107 182.009 37.068V42.36C182.009 43.6107 181.747 44.5347 181.225 45.132C180.702 45.7107 179.881 46 178.761 46H173.749V25.168H176.913V33.232ZM176.913 42.976H177.725C178.154 42.976 178.443 42.8547 178.593 42.612C178.742 42.3693 178.817 42.0147 178.817 41.548V37.768C178.817 37.264 178.742 36.8907 178.593 36.648C178.462 36.3867 178.173 36.256 177.725 36.256H176.913V42.976ZM186.463 29.256V32.56H183.355V29.032C183.355 27.8187 183.663 26.8387 184.279 26.092C184.895 25.3453 185.801 24.972 186.995 24.972H187.639C189.002 24.972 189.982 25.28 190.579 25.896C191.177 26.512 191.475 27.436 191.475 28.668V32.14C191.475 33.5587 190.953 34.4827 189.907 34.912C191.121 35.2853 191.727 36.3027 191.727 37.964V42.416C191.727 43.4987 191.419 44.4133 190.803 45.16C190.187 45.888 189.226 46.252 187.919 46.252H187.079C185.922 46.252 185.007 45.888 184.335 45.16C183.682 44.432 183.355 43.6013 183.355 42.668V38.104H186.463V42.052C186.463 42.7987 186.809 43.172 187.499 43.172C188.171 43.172 188.507 42.7987 188.507 42.052V37.824C188.507 37.152 188.181 36.816 187.527 36.816H186.099V33.652H187.527C188.013 33.652 188.255 33.148 188.255 32.14V29.256C188.255 28.416 187.957 27.996 187.359 27.996C186.762 27.996 186.463 28.416 186.463 29.256ZM201.922 29.732V41.352C201.922 44.6187 200.578 46.252 197.89 46.252H197.358C194.633 46.252 193.27 44.6187 193.27 41.352V29.76C193.27 26.568 194.624 24.972 197.33 24.972H197.862C199.318 24.972 200.354 25.3827 200.97 26.204C201.605 27.0253 201.922 28.2013 201.922 29.732ZM198.702 41.576V29.592C198.702 28.528 198.338 27.996 197.61 27.996C196.864 27.996 196.49 28.528 196.49 29.592V41.576C196.49 42.64 196.873 43.172 197.638 43.172C198.348 43.172 198.702 42.64 198.702 41.576ZM203.567 46V25.168H208.551C209.783 25.168 210.641 25.4573 211.127 26.036C211.631 26.6147 211.883 27.4547 211.883 28.556V31.748C211.883 33.2787 211.36 34.24 210.315 34.632C211.528 35.0987 212.135 36.116 212.135 37.684V42.192C212.135 43.368 211.855 44.3013 211.295 44.992C210.753 45.664 209.913 46 208.775 46H203.567ZM207.683 36.508H206.731V43.06H207.683C208.168 43.06 208.495 42.948 208.663 42.724C208.831 42.5 208.915 42.1453 208.915 41.66V37.852C208.915 37.3853 208.831 37.0493 208.663 36.844C208.495 36.62 208.168 36.508 207.683 36.508ZM207.683 27.996H206.731V33.4H207.683C208.411 33.4 208.775 32.9147 208.775 31.944V29.312C208.775 28.8453 208.691 28.5093 208.523 28.304C208.373 28.0987 208.093 27.996 207.683 27.996ZM218.962 46L218.542 42.08H216.218L215.826 46H212.998L215.546 25.168H219.298L222.014 46H218.962ZM217.366 31.272L216.554 38.972H218.206L217.366 31.272ZM221.384 25.168H229.84V28.192H227.18V46H224.044V28.192H221.384V25.168ZM231.196 25.168H238.392V28.192H234.36V33.652H237.524V36.816H234.36V42.836H238.56V46H231.196V25.168ZM245.644 46V28.192H243.796C243.796 35.64 243.702 40.484 243.516 42.724C243.441 43.844 243.152 44.6747 242.648 45.216C242.162 45.7387 241.35 46 240.212 46H239.428V42.78H239.652C240.006 42.78 240.249 42.6773 240.38 42.472C240.51 42.2667 240.594 41.9027 240.632 41.38C240.762 40.1293 240.828 34.7253 240.828 25.168H248.808V46H245.644ZM255.593 37.264H255.229L252.905 46H249.657L252.177 36.704C251.019 36.3307 250.441 35.4907 250.441 34.184V28.388C250.441 27.2307 250.702 26.4093 251.225 25.924C251.747 25.42 252.55 25.168 253.633 25.168H258.757V46H255.593V37.264ZM255.593 34.24V27.996H254.753C254.286 27.996 253.978 28.0987 253.829 28.304C253.679 28.5093 253.605 28.8547 253.605 29.34V32.756C253.605 33.7453 253.987 34.24 254.753 34.24H255.593ZM262.536 48.52H260.968C261.266 47.7733 261.462 46.9333 261.556 46H260.352V42.416H263.292V45.048C263.292 46.392 263.04 47.5493 262.536 48.52ZM274.08 46L271.448 36.956V46H268.284V25.168H271.448V33.512L273.94 25.168H277.02L274.08 34.856L277.328 46H274.08ZM286.928 29.732V41.352C286.928 44.6187 285.584 46.252 282.896 46.252H282.364C279.639 46.252 278.276 44.6187 278.276 41.352V29.76C278.276 26.568 279.63 24.972 282.336 24.972H282.868C284.324 24.972 285.36 25.3827 285.976 26.204C286.611 27.0253 286.928 28.2013 286.928 29.732ZM283.708 41.576V29.592C283.708 28.528 283.344 27.996 282.616 27.996C281.87 27.996 281.496 28.528 281.496 29.592V41.576C281.496 42.64 281.879 43.172 282.644 43.172C283.354 43.172 283.708 42.64 283.708 41.576ZM288.181 25.168H296.637V28.192H293.977V46H290.841V28.192H288.181V25.168ZM306.56 29.732V41.352C306.56 44.6187 305.216 46.252 302.528 46.252H301.996C299.271 46.252 297.908 44.6187 297.908 41.352V29.76C297.908 26.568 299.262 24.972 301.968 24.972H302.5C303.956 24.972 304.992 25.3827 305.608 26.204C306.243 27.0253 306.56 28.2013 306.56 29.732ZM303.34 41.576V29.592C303.34 28.528 302.976 27.996 302.248 27.996C301.502 27.996 301.128 28.528 301.128 29.592V41.576C301.128 42.64 301.511 43.172 302.276 43.172C302.986 43.172 303.34 42.64 303.34 41.576ZM313.217 37.348H311.369V46H308.205V25.168H313.217C314.355 25.168 315.177 25.4387 315.681 25.98C316.203 26.5027 316.465 27.38 316.465 28.612V33.54C316.465 36.0787 315.382 37.348 313.217 37.348ZM311.369 27.996V34.352H312.181C312.629 34.352 312.918 34.2307 313.049 33.988C313.198 33.7267 313.273 33.344 313.273 32.84V29.424C313.273 28.9573 313.198 28.6027 313.049 28.36C312.899 28.1173 312.61 27.996 312.181 27.996H311.369ZM326.547 29.732V41.352C326.547 44.6187 325.203 46.252 322.515 46.252H321.983C319.258 46.252 317.895 44.6187 317.895 41.352V29.76C317.895 26.568 319.249 24.972 321.955 24.972H322.487C323.943 24.972 324.979 25.3827 325.595 26.204C326.23 27.0253 326.547 28.2013 326.547 29.732ZM323.327 41.576V29.592C323.327 28.528 322.963 27.996 322.235 27.996C321.489 27.996 321.115 28.528 321.115 29.592V41.576C321.115 42.64 321.498 43.172 322.263 43.172C322.973 43.172 323.327 42.64 323.327 41.576ZM328.136 46V25.168H334.492V28.192H331.3V46H328.136ZM344.456 29.732V41.352C344.456 44.6187 343.112 46.252 340.424 46.252H339.892C337.167 46.252 335.804 44.6187 335.804 41.352V29.76C335.804 26.568 337.158 24.972 339.864 24.972H340.396C341.852 24.972 342.888 25.3827 343.504 26.204C344.139 27.0253 344.456 28.2013 344.456 29.732ZM341.236 41.576V29.592C341.236 28.528 340.872 27.996 340.144 27.996C339.398 27.996 339.024 28.528 339.024 29.592V41.576C339.024 42.64 339.407 43.172 340.172 43.172C340.882 43.172 341.236 42.64 341.236 41.576ZM89.7071 62.856L87.3551 53.168H90.5751L91.9191 59.748L93.2071 53.168H96.2871L93.9071 62.856L96.5951 74H93.3191L91.7511 66.468L90.1551 74H86.9631L89.7071 62.856ZM106.224 57.732V69.352C106.224 72.6187 104.88 74.252 102.192 74.252H101.66C98.9347 74.252 97.572 72.6187 97.572 69.352V57.76C97.572 54.568 98.9254 52.972 101.632 52.972H102.164C103.62 52.972 104.656 53.3827 105.272 54.204C105.907 55.0253 106.224 56.2013 106.224 57.732ZM103.004 69.576V57.592C103.004 56.528 102.64 55.996 101.912 55.996C101.165 55.996 100.792 56.528 100.792 57.592V69.576C100.792 70.64 101.175 71.172 101.94 71.172C102.649 71.172 103.004 70.64 103.004 69.576ZM112.964 74V65.404C112.404 65.5907 111.76 65.684 111.032 65.684H111.004C109.866 65.684 109.016 65.3853 108.456 64.788C107.915 64.1907 107.644 63.3787 107.644 62.352V53.168H110.808V60.98C110.808 61.5773 110.892 61.9787 111.06 62.184C111.228 62.3893 111.508 62.492 111.9 62.492H111.956C112.423 62.492 112.759 62.436 112.964 62.324V53.168H116.128V74H112.964ZM117.917 53.168H125.113V56.192H121.081V61.652H124.245V64.816H121.081V70.836H125.281V74H117.917V53.168ZM126.596 74V53.168H129.76V70.836H131.552V53.168H134.716V70.836H136.508V53.168H139.672V74H126.596ZM144.567 61.232H146.415C148.58 61.232 149.663 62.5107 149.663 65.068V70.36C149.663 71.6107 149.401 72.5347 148.879 73.132C148.356 73.7107 147.535 74 146.415 74H141.403V53.168H144.567V61.232ZM144.567 70.976H145.379C145.808 70.976 146.097 70.8547 146.247 70.612C146.396 70.3693 146.471 70.0147 146.471 69.548V65.768C146.471 65.264 146.396 64.8907 146.247 64.648C146.116 64.3867 145.827 64.256 145.379 64.256H144.567V70.976ZM159.817 69.772V64.928H162.925V69.744C162.925 72.7493 161.665 74.252 159.145 74.252H158.445C155.85 74.252 154.553 72.7867 154.553 69.856V57.144C154.553 55.9493 154.852 54.96 155.449 54.176C156.046 53.3733 157.008 52.972 158.333 52.972H159.061C159.882 52.972 160.564 53.0933 161.105 53.336C161.665 53.5787 162.066 53.9333 162.309 54.4C162.552 54.8667 162.71 55.324 162.785 55.772C162.878 56.2013 162.925 56.7147 162.925 57.312V61.036H159.817V57.368C159.817 56.4533 159.462 55.996 158.753 55.996C158.38 55.996 158.118 56.108 157.969 56.332C157.838 56.5373 157.773 56.8827 157.773 57.368V69.744C157.773 70.696 158.109 71.172 158.781 71.172C159.472 71.172 159.817 70.7053 159.817 69.772ZM172.225 76.94V74H166.737V76.94H163.853V70.836H164.553C164.908 70.108 165.169 69.2307 165.337 68.204C165.617 66.3373 165.757 61.3253 165.757 53.168H173.709V70.836H175.109V76.94H172.225ZM168.305 68.288C168.193 69.2027 167.988 70.052 167.689 70.836H170.545V56.192H168.725C168.725 62.2773 168.585 66.3093 168.305 68.288ZM176.456 53.168H183.652V56.192H179.62V61.652H182.784V64.816H179.62V70.836H183.82V74H176.456V53.168ZM190.904 74V56.192H189.056C189.056 63.64 188.963 68.484 188.776 70.724C188.701 71.844 188.412 72.6747 187.908 73.216C187.423 73.7387 186.611 74 185.472 74H184.688V70.78H184.912C185.267 70.78 185.509 70.6773 185.64 70.472C185.771 70.2667 185.855 69.9027 185.892 69.38C186.023 68.1293 186.088 62.7253 186.088 53.168H194.068V74H190.904ZM201.161 74L200.741 70.08H198.417L198.025 74H195.197L197.745 53.168H201.497L204.213 74H201.161ZM199.565 59.272L198.753 66.972H200.405L199.565 59.272ZM203.584 53.168H212.04V56.192H209.38V74H206.244V56.192H203.584V53.168ZM216.504 61.232H218.352C220.517 61.232 221.6 62.5107 221.6 65.068V70.36C221.6 71.6107 221.338 72.5347 220.816 73.132C220.293 73.7107 219.472 74 218.352 74H213.34V53.168H216.504V61.232ZM216.504 70.976H217.316C217.745 70.976 218.034 70.8547 218.184 70.612C218.333 70.3693 218.408 70.0147 218.408 69.548V65.768C218.408 65.264 218.333 64.8907 218.184 64.648C218.053 64.3867 217.764 64.256 217.316 64.256H216.504V70.976ZM231.866 74L231.446 70.08H229.122L228.73 74H225.902L228.45 53.168H232.202L234.918 74H231.866ZM230.27 59.272L229.458 66.972H231.11L230.27 59.272ZM243.998 76.94V74H238.51V76.94H235.626V70.836H236.326C236.681 70.108 236.942 69.2307 237.11 68.204C237.39 66.3373 237.53 61.3253 237.53 53.168H245.482V70.836H246.882V76.94H243.998ZM240.078 68.288C239.966 69.2027 239.761 70.052 239.462 70.836H242.318V56.192H240.498C240.498 62.2773 240.358 66.3093 240.078 68.288ZM248.229 74V53.168H252.289L253.801 64.172L255.341 53.168H259.121V74H256.153V60.532L254.249 74H252.989L251.057 60.532V74H248.229ZM266.224 74V62.716L263.956 74H260.792V53.168H263.956V64.452L266.224 53.168H269.388V74H266.224ZM274.278 64.844V74H271.114V53.168H274.278V61.512H276.434V53.168H279.598V74H276.434V64.844H274.278ZM289.95 57.732V69.352C289.95 72.6187 288.606 74.252 285.918 74.252H285.386C282.661 74.252 281.298 72.6187 281.298 69.352V57.76C281.298 54.568 282.651 52.972 285.358 52.972H285.89C287.346 52.972 288.382 53.3827 288.998 54.204C289.633 55.0253 289.95 56.2013 289.95 57.732ZM286.73 69.576V57.592C286.73 56.528 286.366 55.996 285.638 55.996C284.891 55.996 284.518 56.528 284.518 57.592V69.576C284.518 70.64 284.901 71.172 285.666 71.172C286.375 71.172 286.73 70.64 286.73 69.576ZM291.594 74V53.168H295.654L297.166 64.172L298.706 53.168H302.486V74H299.518V60.532L297.614 74H296.354L294.422 60.532V74H291.594Z" fill="white"/>
</g>
<defs>
<clipPath id="clip0_41_3375">
<path d="M0 36C0 16.1177 16.1178 0 36 0H354C373.882 0 390 16.1178 390 36V260H0V36Z" fill="white"/>
</clipPath>
</defs>
</svg>
