<svg width="51" height="47" viewBox="0 0 51 47" fill="none" xmlns="http://www.w3.org/2000/svg">
<path d="M28.0601 0.129371C29.6595 -0.161988 31.31 0.0415735 32.7911 0.711826C33.1327 0.866525 33.3767 1.1787 33.4439 1.54757C33.5111 1.91655 33.3933 2.29553 33.1281 2.56073L28.8312 6.85662L28.8278 6.85885L30.6399 8.67093L34.9402 4.3717L35.044 4.27909C35.2991 4.07981 35.6294 3.99717 35.9522 4.05592C36.3212 4.12315 36.6344 4.36699 36.7891 4.70868C37.4593 6.18981 37.6617 7.84033 37.3704 9.43973C37.079 11.0391 36.3073 12.5124 35.1578 13.662C34.0082 14.8116 32.535 15.5832 30.9356 15.8746C29.6015 16.1177 28.2326 16.0158 26.9555 15.5868L19.5878 22.9556C18.919 23.6243 18.0119 24 17.0661 24C16.1203 23.9999 15.2132 23.6244 14.5444 22.9556C13.8756 22.2868 13.5 21.3796 13.5 20.4339C13.5 19.4881 13.8757 18.5809 14.5444 17.9121L21.912 10.5433C21.4834 9.26654 21.3823 7.89779 21.6253 6.56428C21.9167 4.96484 22.6883 3.49163 23.8379 2.34203C24.9875 1.1925 26.4607 0.420788 28.0601 0.129371ZM15.7852 20.4339C14.753 18.6927 16.8259 20.487 17.0661 20.7273C17.3063 20.9675 16.117 22.9555 16.4567 22.9556C16.2273 23.4545 13.3915 16.2965 15.1364 19.0909L22.7727 12.9151L24.2887 10.3536C24.366 11.0583 26.7673 13.0398 27.1463 13.2112C28.2043 13.69 29.3836 13.8356 30.5261 13.6274C31.6684 13.4192 32.7199 12.8672 33.541 12.0463C34.3621 11.2251 34.9139 10.1727 35.1221 9.03023C35.2226 8.47815 35.2389 7.91786 35.1767 7.36655L32.2399 10.3034C31.8128 10.7221 31.238 10.9572 30.6399 10.9572C30.0419 10.9571 29.468 10.722 29.0409 10.3034L29.032 10.2956L27.2043 8.46786L27.1965 8.45893C26.7779 8.03185 26.5427 7.45796 26.5426 6.85997C26.5426 6.26181 26.7778 5.68705 27.1965 5.25989L30.1333 2.32195C29.582 2.25981 29.0217 2.27717 28.4696 2.37774C27.3271 2.58591 26.2748 3.13767 25.4536 3.95885C24.6327 4.77989 24.0818 5.83156 23.8736 6.97378C23.6655 8.11629 23.8099 9.29555 24.2887 10.3536C24.4847 10.7868 24.3918 11.2961 24.0555 11.6323L16.1601 19.5278C15.9199 19.7681 15.7852 20.0942 15.7852 20.4339Z" fill="#AAAAAA"/>
<path d="M0.636188 40L4.44019 31.6H5.62819L9.44419 40H8.18419L4.78819 32.272H5.26819L1.87219 40H0.636188ZM2.25619 37.9L2.58019 36.94H7.30819L7.65619 37.9H2.25619ZM11.3379 39.172L10.0419 38.956C10.3539 38.98 10.6099 38.876 10.8099 38.644C11.0179 38.404 11.1779 38.072 11.2899 37.648C11.4099 37.216 11.4979 36.716 11.5539 36.148C11.6099 35.572 11.6499 34.956 11.6739 34.3L11.7579 31.6H17.6619V39.436H16.4739V32.644H12.7899L12.7299 34.408C12.7059 35 12.6659 35.568 12.6099 36.112C12.5619 36.656 12.4899 37.148 12.3939 37.588C12.2979 38.02 12.1619 38.376 11.9859 38.656C11.8179 38.936 11.6019 39.108 11.3379 39.172ZM9.74194 41.836L9.75394 38.956H18.8979V41.836H17.7819V40H10.8699L10.8579 41.836H9.74194ZM20.5385 40V31.6H21.5225L25.2905 37.948H24.7625L28.4825 31.6H29.4665L29.4785 40H28.3265L28.3145 33.412H28.5905L25.2785 38.98H24.7265L21.3905 33.412H21.6905V40H20.5385ZM32.0932 40V31.6H33.2812V38.08L38.2492 31.6H39.3532V40H38.1772V33.532L33.1972 40H32.0932ZM47.9961 40V31.6H49.1961V40H47.9961ZM41.9721 40V31.6H43.1721V40H41.9721ZM43.0521 36.256V35.212H48.1041V36.256H43.0521Z" fill="#BDBDBD"/>
</svg>
