<svg width="340" height="48" viewBox="0 0 340 48" fill="none" xmlns="http://www.w3.org/2000/svg">
<path d="M57 24C57 16.5449 57 12.8174 58.2179 9.87706C59.8418 5.95662 62.9566 2.84183 66.8771 1.21793C69.8174 0 73.5449 0 81 0H141C148.455 0 152.183 0 155.123 1.21793C159.043 2.84183 162.158 5.95662 163.782 9.87706C165 12.8174 165 16.5449 165 24C165 31.4551 165 35.1826 163.782 38.1229C162.158 42.0434 159.043 45.1582 155.123 46.7821C152.183 48 148.455 48 141 48H81C73.5449 48 69.8174 48 66.8771 46.7821C62.9566 45.1582 59.8418 42.0434 58.2179 38.1229C57 35.1826 57 31.4551 57 24Z" fill="#D9D9D9" fill-opacity="0.06"/>
<path d="M73.6305 30V18.8H78.2385C79.2305 18.8 80.0785 18.96 80.7825 19.28C81.4972 19.6 82.0465 20.0587 82.4305 20.656C82.8145 21.2533 83.0065 21.9627 83.0065 22.784C83.0065 23.6053 82.8145 24.3147 82.4305 24.912C82.0465 25.5093 81.4972 25.968 80.7825 26.288C80.0785 26.608 79.2305 26.768 78.2385 26.768H74.7825L75.7105 25.792V30H73.6305ZM75.7105 26.016L74.7825 25.008H78.1425C79.0598 25.008 79.7478 24.816 80.2065 24.432C80.6758 24.0373 80.9105 23.488 80.9105 22.784C80.9105 22.0693 80.6758 21.52 80.2065 21.136C79.7478 20.752 79.0598 20.56 78.1425 20.56H74.7825L75.7105 19.536V26.016ZM88.703 30.112C87.7537 30.112 86.9217 29.9253 86.207 29.552C85.503 29.168 84.9537 28.6453 84.559 27.984C84.175 27.3227 83.983 26.5707 83.983 25.728C83.983 24.8747 84.1697 24.1227 84.543 23.472C84.927 22.8107 85.4497 22.2933 86.111 21.92C86.783 21.5467 87.5457 21.36 88.399 21.36C89.231 21.36 89.9723 21.5413 90.623 21.904C91.2737 22.2667 91.7857 22.7787 92.159 23.44C92.5323 24.1013 92.719 24.88 92.719 25.776C92.719 25.8613 92.7137 25.9573 92.703 26.064C92.703 26.1707 92.6977 26.272 92.687 26.368H85.567V25.04H91.631L90.847 25.456C90.8577 24.9653 90.7563 24.5333 90.543 24.16C90.3297 23.7867 90.0363 23.4933 89.663 23.28C89.3003 23.0667 88.879 22.96 88.399 22.96C87.9083 22.96 87.4763 23.0667 87.103 23.28C86.7403 23.4933 86.4523 23.792 86.239 24.176C86.0363 24.5493 85.935 24.992 85.935 25.504V25.824C85.935 26.336 86.0523 26.7893 86.287 27.184C86.5217 27.5787 86.8523 27.8827 87.279 28.096C87.7057 28.3093 88.1963 28.416 88.751 28.416C89.231 28.416 89.663 28.3413 90.047 28.192C90.431 28.0427 90.7723 27.808 91.071 27.488L92.143 28.72C91.759 29.168 91.2737 29.5147 90.687 29.76C90.111 29.9947 89.4497 30.112 88.703 30.112ZM95.8851 28.608L93.9011 28.304C94.2211 28.304 94.4771 28.2027 94.6691 28C94.8718 27.7867 95.0265 27.4987 95.1331 27.136C95.2505 26.7627 95.3358 26.3413 95.3891 25.872C95.4425 25.392 95.4798 24.896 95.5011 24.384L95.6131 21.456H102.653V29.072H100.653V23.152H97.3731L97.3251 24.528C97.3038 25.0187 97.2718 25.4933 97.2291 25.952C97.1865 26.4 97.1171 26.816 97.0211 27.2C96.9251 27.5733 96.7865 27.8827 96.6051 28.128C96.4238 28.3733 96.1838 28.5333 95.8851 28.608ZM93.5971 31.904V28.304H103.917V31.904H102.045V30H95.4531V31.904H93.5971ZM110.887 30V28.272L110.775 27.904V24.88C110.775 24.2933 110.599 23.84 110.247 23.52C109.895 23.1893 109.362 23.024 108.647 23.024C108.167 23.024 107.693 23.0987 107.223 23.248C106.765 23.3973 106.375 23.6053 106.055 23.872L105.271 22.416C105.73 22.064 106.274 21.8027 106.903 21.632C107.543 21.4507 108.205 21.36 108.887 21.36C110.125 21.36 111.079 21.6587 111.751 22.256C112.434 22.8427 112.775 23.7547 112.775 24.992V30H110.887ZM108.199 30.112C107.559 30.112 106.999 30.0053 106.519 29.792C106.039 29.568 105.666 29.264 105.399 28.88C105.143 28.4853 105.015 28.0427 105.015 27.552C105.015 27.072 105.127 26.64 105.351 26.256C105.586 25.872 105.965 25.568 106.487 25.344C107.01 25.12 107.703 25.008 108.567 25.008H111.047V26.336H108.711C108.029 26.336 107.57 26.448 107.335 26.672C107.101 26.8853 106.983 27.152 106.983 27.472C106.983 27.8347 107.127 28.1227 107.415 28.336C107.703 28.5493 108.103 28.656 108.615 28.656C109.106 28.656 109.543 28.544 109.927 28.32C110.322 28.096 110.605 27.7653 110.775 27.328L111.111 28.528C110.919 29.0293 110.573 29.4187 110.071 29.696C109.581 29.9733 108.957 30.112 108.199 30.112ZM121.378 30L118.29 25.904L119.922 24.896L123.73 30H121.378ZM115.25 30V21.456H117.25V30H115.25ZM116.658 26.576V24.912H119.554V26.576H116.658ZM120.114 25.968L118.242 25.744L121.378 21.456H123.522L120.114 25.968ZM126.808 30V22.672L127.272 23.152H123.8V21.456H131.8V23.152H128.344L128.808 22.672V30H126.808ZM136.683 30.112C135.809 30.112 135.03 29.9253 134.347 29.552C133.665 29.168 133.126 28.6453 132.731 27.984C132.337 27.3227 132.139 26.5707 132.139 25.728C132.139 24.8747 132.337 24.1227 132.731 23.472C133.126 22.8107 133.665 22.2933 134.347 21.92C135.03 21.5467 135.809 21.36 136.683 21.36C137.569 21.36 138.353 21.5467 139.035 21.92C139.729 22.2933 140.267 22.8053 140.651 23.456C141.046 24.1067 141.243 24.864 141.243 25.728C141.243 26.5707 141.046 27.3227 140.651 27.984C140.267 28.6453 139.729 29.168 139.035 29.552C138.353 29.9253 137.569 30.112 136.683 30.112ZM136.683 28.4C137.174 28.4 137.611 28.2933 137.995 28.08C138.379 27.8667 138.678 27.5573 138.891 27.152C139.115 26.7467 139.227 26.272 139.227 25.728C139.227 25.1733 139.115 24.6987 138.891 24.304C138.678 23.8987 138.379 23.5893 137.995 23.376C137.611 23.1627 137.179 23.056 136.699 23.056C136.209 23.056 135.771 23.1627 135.387 23.376C135.014 23.5893 134.715 23.8987 134.491 24.304C134.267 24.6987 134.155 25.1733 134.155 25.728C134.155 26.272 134.267 26.7467 134.491 27.152C134.715 27.5573 135.014 27.8667 135.387 28.08C135.771 28.2933 136.203 28.4 136.683 28.4ZM147.955 30.112C147.262 30.112 146.627 29.952 146.051 29.632C145.486 29.312 145.032 28.832 144.691 28.192C144.36 27.5413 144.195 26.72 144.195 25.728C144.195 24.7253 144.355 23.904 144.675 23.264C145.006 22.624 145.454 22.1493 146.019 21.84C146.584 21.52 147.23 21.36 147.955 21.36C148.798 21.36 149.539 21.5413 150.179 21.904C150.83 22.2667 151.342 22.7733 151.715 23.424C152.099 24.0747 152.291 24.8427 152.291 25.728C152.291 26.6133 152.099 27.3867 151.715 28.048C151.342 28.6987 150.83 29.2053 150.179 29.568C149.539 29.9307 148.798 30.112 147.955 30.112ZM143.219 33.104V21.456H145.123V23.472L145.059 25.744L145.219 28.016V33.104H143.219ZM147.731 28.4C148.211 28.4 148.638 28.2933 149.011 28.08C149.395 27.8667 149.699 27.5573 149.923 27.152C150.147 26.7467 150.259 26.272 150.259 25.728C150.259 25.1733 150.147 24.6987 149.923 24.304C149.699 23.8987 149.395 23.5893 149.011 23.376C148.638 23.1627 148.211 23.056 147.731 23.056C147.251 23.056 146.819 23.1627 146.435 23.376C146.051 23.5893 145.747 23.8987 145.523 24.304C145.299 24.6987 145.187 25.1733 145.187 25.728C145.187 26.272 145.299 26.7467 145.523 27.152C145.747 27.5573 146.051 27.8667 146.435 28.08C146.819 28.2933 147.251 28.4 147.731 28.4Z" fill="#595959"/>
<path d="M57 24C57 16.5449 57 12.8174 58.2179 9.87706C59.8418 5.95662 62.9566 2.84183 66.8771 1.21793C69.8174 0 73.5449 0 81 0H141C148.455 0 152.183 0 155.123 1.21793C159.043 2.84183 162.158 5.95662 163.782 9.87706C165 12.8174 165 16.5449 165 24C165 31.4551 165 35.1826 163.782 38.1229C162.158 42.0434 159.043 45.1582 155.123 46.7821C152.183 48 148.455 48 141 48H81C73.5449 48 69.8174 48 66.8771 46.7821C62.9566 45.1582 59.8418 42.0434 58.2179 38.1229C57 35.1826 57 31.4551 57 24Z" fill="#424242"/>
<path d="M73.6305 30V18.8H78.2385C79.2305 18.8 80.0785 18.96 80.7825 19.28C81.4972 19.6 82.0465 20.0587 82.4305 20.656C82.8145 21.2533 83.0065 21.9627 83.0065 22.784C83.0065 23.6053 82.8145 24.3147 82.4305 24.912C82.0465 25.5093 81.4972 25.968 80.7825 26.288C80.0785 26.608 79.2305 26.768 78.2385 26.768H74.7825L75.7105 25.792V30H73.6305ZM75.7105 26.016L74.7825 25.008H78.1425C79.0598 25.008 79.7478 24.816 80.2065 24.432C80.6758 24.0373 80.9105 23.488 80.9105 22.784C80.9105 22.0693 80.6758 21.52 80.2065 21.136C79.7478 20.752 79.0598 20.56 78.1425 20.56H74.7825L75.7105 19.536V26.016ZM88.703 30.112C87.7537 30.112 86.9217 29.9253 86.207 29.552C85.503 29.168 84.9537 28.6453 84.559 27.984C84.175 27.3227 83.983 26.5707 83.983 25.728C83.983 24.8747 84.1697 24.1227 84.543 23.472C84.927 22.8107 85.4497 22.2933 86.111 21.92C86.783 21.5467 87.5457 21.36 88.399 21.36C89.231 21.36 89.9723 21.5413 90.623 21.904C91.2737 22.2667 91.7857 22.7787 92.159 23.44C92.5323 24.1013 92.719 24.88 92.719 25.776C92.719 25.8613 92.7137 25.9573 92.703 26.064C92.703 26.1707 92.6977 26.272 92.687 26.368H85.567V25.04H91.631L90.847 25.456C90.8577 24.9653 90.7563 24.5333 90.543 24.16C90.3297 23.7867 90.0363 23.4933 89.663 23.28C89.3003 23.0667 88.879 22.96 88.399 22.96C87.9083 22.96 87.4763 23.0667 87.103 23.28C86.7403 23.4933 86.4523 23.792 86.239 24.176C86.0363 24.5493 85.935 24.992 85.935 25.504V25.824C85.935 26.336 86.0523 26.7893 86.287 27.184C86.5217 27.5787 86.8523 27.8827 87.279 28.096C87.7057 28.3093 88.1963 28.416 88.751 28.416C89.231 28.416 89.663 28.3413 90.047 28.192C90.431 28.0427 90.7723 27.808 91.071 27.488L92.143 28.72C91.759 29.168 91.2737 29.5147 90.687 29.76C90.111 29.9947 89.4497 30.112 88.703 30.112ZM95.8851 28.608L93.9011 28.304C94.2211 28.304 94.4771 28.2027 94.6691 28C94.8718 27.7867 95.0265 27.4987 95.1331 27.136C95.2505 26.7627 95.3358 26.3413 95.3891 25.872C95.4425 25.392 95.4798 24.896 95.5011 24.384L95.6131 21.456H102.653V29.072H100.653V23.152H97.3731L97.3251 24.528C97.3038 25.0187 97.2718 25.4933 97.2291 25.952C97.1865 26.4 97.1171 26.816 97.0211 27.2C96.9251 27.5733 96.7865 27.8827 96.6051 28.128C96.4238 28.3733 96.1838 28.5333 95.8851 28.608ZM93.5971 31.904V28.304H103.917V31.904H102.045V30H95.4531V31.904H93.5971ZM110.887 30V28.272L110.775 27.904V24.88C110.775 24.2933 110.599 23.84 110.247 23.52C109.895 23.1893 109.362 23.024 108.647 23.024C108.167 23.024 107.693 23.0987 107.223 23.248C106.765 23.3973 106.375 23.6053 106.055 23.872L105.271 22.416C105.73 22.064 106.274 21.8027 106.903 21.632C107.543 21.4507 108.205 21.36 108.887 21.36C110.125 21.36 111.079 21.6587 111.751 22.256C112.434 22.8427 112.775 23.7547 112.775 24.992V30H110.887ZM108.199 30.112C107.559 30.112 106.999 30.0053 106.519 29.792C106.039 29.568 105.666 29.264 105.399 28.88C105.143 28.4853 105.015 28.0427 105.015 27.552C105.015 27.072 105.127 26.64 105.351 26.256C105.586 25.872 105.965 25.568 106.487 25.344C107.01 25.12 107.703 25.008 108.567 25.008H111.047V26.336H108.711C108.029 26.336 107.57 26.448 107.335 26.672C107.101 26.8853 106.983 27.152 106.983 27.472C106.983 27.8347 107.127 28.1227 107.415 28.336C107.703 28.5493 108.103 28.656 108.615 28.656C109.106 28.656 109.543 28.544 109.927 28.32C110.322 28.096 110.605 27.7653 110.775 27.328L111.111 28.528C110.919 29.0293 110.573 29.4187 110.071 29.696C109.581 29.9733 108.957 30.112 108.199 30.112ZM121.378 30L118.29 25.904L119.922 24.896L123.73 30H121.378ZM115.25 30V21.456H117.25V30H115.25ZM116.658 26.576V24.912H119.554V26.576H116.658ZM120.114 25.968L118.242 25.744L121.378 21.456H123.522L120.114 25.968ZM126.808 30V22.672L127.272 23.152H123.8V21.456H131.8V23.152H128.344L128.808 22.672V30H126.808ZM136.683 30.112C135.809 30.112 135.03 29.9253 134.347 29.552C133.665 29.168 133.126 28.6453 132.731 27.984C132.337 27.3227 132.139 26.5707 132.139 25.728C132.139 24.8747 132.337 24.1227 132.731 23.472C133.126 22.8107 133.665 22.2933 134.347 21.92C135.03 21.5467 135.809 21.36 136.683 21.36C137.569 21.36 138.353 21.5467 139.035 21.92C139.729 22.2933 140.267 22.8053 140.651 23.456C141.046 24.1067 141.243 24.864 141.243 25.728C141.243 26.5707 141.046 27.3227 140.651 27.984C140.267 28.6453 139.729 29.168 139.035 29.552C138.353 29.9253 137.569 30.112 136.683 30.112ZM136.683 28.4C137.174 28.4 137.611 28.2933 137.995 28.08C138.379 27.8667 138.678 27.5573 138.891 27.152C139.115 26.7467 139.227 26.272 139.227 25.728C139.227 25.1733 139.115 24.6987 138.891 24.304C138.678 23.8987 138.379 23.5893 137.995 23.376C137.611 23.1627 137.179 23.056 136.699 23.056C136.209 23.056 135.771 23.1627 135.387 23.376C135.014 23.5893 134.715 23.8987 134.491 24.304C134.267 24.6987 134.155 25.1733 134.155 25.728C134.155 26.272 134.267 26.7467 134.491 27.152C134.715 27.5573 135.014 27.8667 135.387 28.08C135.771 28.2933 136.203 28.4 136.683 28.4ZM147.955 30.112C147.262 30.112 146.627 29.952 146.051 29.632C145.486 29.312 145.032 28.832 144.691 28.192C144.36 27.5413 144.195 26.72 144.195 25.728C144.195 24.7253 144.355 23.904 144.675 23.264C145.006 22.624 145.454 22.1493 146.019 21.84C146.584 21.52 147.23 21.36 147.955 21.36C148.798 21.36 149.539 21.5413 150.179 21.904C150.83 22.2667 151.342 22.7733 151.715 23.424C152.099 24.0747 152.291 24.8427 152.291 25.728C152.291 26.6133 152.099 27.3867 151.715 28.048C151.342 28.6987 150.83 29.2053 150.179 29.568C149.539 29.9307 148.798 30.112 147.955 30.112ZM143.219 33.104V21.456H145.123V23.472L145.059 25.744L145.219 28.016V33.104H143.219ZM147.731 28.4C148.211 28.4 148.638 28.2933 149.011 28.08C149.395 27.8667 149.699 27.5573 149.923 27.152C150.147 26.7467 150.259 26.272 150.259 25.728C150.259 25.1733 150.147 24.6987 149.923 24.304C149.699 23.8987 149.395 23.5893 149.011 23.376C148.638 23.1627 148.211 23.056 147.731 23.056C147.251 23.056 146.819 23.1627 146.435 23.376C146.051 23.5893 145.747 23.8987 145.523 24.304C145.299 24.6987 145.187 25.1733 145.187 25.728C145.187 26.272 145.299 26.7467 145.523 27.152C145.747 27.5573 146.051 27.8667 146.435 28.08C146.819 28.2933 147.251 28.4 147.731 28.4Z" fill="white"/>
<path d="M173 24C173 16.5449 173 12.8174 174.218 9.87706C175.842 5.95662 178.957 2.84183 182.877 1.21793C185.817 0 189.545 0 197 0H257C264.455 0 268.183 0 271.123 1.21793C275.043 2.84183 278.158 5.95662 279.782 9.87706C281 12.8174 281 16.5449 281 24C281 31.4551 281 35.1826 279.782 38.1229C278.158 42.0434 275.043 45.1582 271.123 46.7821C268.183 48 264.455 48 257 48H197C189.545 48 185.817 48 182.877 46.7821C178.957 45.1582 175.842 42.0434 174.218 38.1229C173 35.1826 173 31.4551 173 24Z" fill="#D9D9D9" fill-opacity="0.06"/>
<path d="M199.41 30L204.45 18.8H206.498L211.554 30H209.378L205.042 19.904H205.874L201.554 30H199.41ZM201.73 27.408L202.29 25.776H208.338L208.898 27.408H201.73ZM214.151 28.608L212.167 28.304C212.487 28.304 212.743 28.2027 212.935 28C213.137 27.7867 213.292 27.4987 213.399 27.136C213.516 26.7627 213.601 26.3413 213.655 25.872C213.708 25.392 213.745 24.896 213.767 24.384L213.879 21.456H220.919V29.072H218.919V23.152H215.639L215.591 24.528C215.569 25.0187 215.537 25.4933 215.495 25.952C215.452 26.4 215.383 26.816 215.287 27.2C215.191 27.5733 215.052 27.8827 214.871 28.128C214.689 28.3733 214.449 28.5333 214.151 28.608ZM211.863 31.904V28.304H222.183V31.904H220.311V30H213.719V31.904H211.863ZM223.969 30V21.456H226.065L229.505 27.52H228.673L232.289 21.456H234.161L234.177 30H232.369V23.6L232.689 23.808L229.489 29.104H228.625L225.409 23.664L225.793 23.568V30H223.969ZM236.86 30V21.456H238.86V27.088L243.58 21.456H245.404V30H243.404V24.368L238.7 30H236.86ZM248.094 30V21.456H250.094V24.928H254.398V21.456H256.398V30H254.398V26.624H250.094V30H248.094Z" fill="#595959"/>
</svg>
