<svg width="109" height="48" viewBox="0 0 109 48" fill="none" xmlns="http://www.w3.org/2000/svg">
<path d="M0 24C0 16.5449 0 12.8174 1.21793 9.87706C2.84183 5.95662 5.95662 2.84183 9.87706 1.21793C12.8174 0 16.5449 0 24 0H84C91.4551 0 95.1826 0 98.1229 1.21793C102.043 2.84183 105.158 5.95662 106.782 9.87706C108 12.8174 108 16.5449 108 24C108 31.4551 108 35.1826 106.782 38.1229C105.158 42.0434 102.043 45.1582 98.1229 46.7821C95.1826 48 91.4551 48 84 48H24C16.5449 48 12.8174 48 9.87706 46.7821C5.95662 45.1582 2.84183 42.0434 1.21793 38.1229C0 35.1826 0 31.4551 0 24Z" fill="#D9D9D9" fill-opacity="0.06"/>
<path d="M26.4096 30L31.4496 18.8H33.4976L38.5536 30H36.3776L32.0416 19.904H32.8736L28.5536 30H26.4096ZM28.7296 27.408L29.2896 25.776H35.3376L35.8976 27.408H28.7296ZM41.1508 28.608L39.1668 28.304C39.4868 28.304 39.7428 28.2027 39.9348 28C40.1374 27.7867 40.2921 27.4987 40.3988 27.136C40.5161 26.7627 40.6014 26.3413 40.6548 25.872C40.7081 25.392 40.7454 24.896 40.7668 24.384L40.8788 21.456H47.9188V29.072H45.9188V23.152H42.6388L42.5908 24.528C42.5694 25.0187 42.5374 25.4933 42.4948 25.952C42.4521 26.4 42.3828 26.816 42.2868 27.2C42.1908 27.5733 42.0521 27.8827 41.8708 28.128C41.6894 28.3733 41.4494 28.5333 41.1508 28.608ZM38.8628 31.904V28.304H49.1828V31.904H47.3108V30H40.7188V31.904H38.8628ZM50.969 30V21.456H53.065L56.505 27.52H55.673L59.289 21.456H61.161L61.177 30H59.369V23.6L59.689 23.808L56.489 29.104H55.625L52.409 23.664L52.793 23.568V30H50.969ZM63.8596 30V21.456H65.8596V27.088L70.5796 21.456H72.4036V30H70.4036V24.368L65.6996 30H63.8596ZM75.094 30V21.456H77.094V24.928H81.398V21.456H83.398V30H81.398V26.624H77.094V30H75.094Z" fill="#595959"/>
</svg>
