<svg width="109" height="48" viewBox="0 0 109 48" fill="none" xmlns="http://www.w3.org/2000/svg">
<path d="M0 24C0 16.5449 0 12.8174 1.21793 9.87706C2.84183 5.95662 5.95662 2.84183 9.87706 1.21793C12.8174 0 16.5449 0 24 0H84C91.4551 0 95.1826 0 98.1229 1.21793C102.043 2.84183 105.158 5.95662 106.782 9.87706C108 12.8174 108 16.5449 108 24C108 31.4551 108 35.1826 106.782 38.1229C105.158 42.0434 102.043 45.1582 98.1229 46.7821C95.1826 48 91.4551 48 84 48H24C16.5449 48 12.8174 48 9.87706 46.7821C5.95662 45.1582 2.84183 42.0434 1.21793 38.1229C0 35.1826 0 31.4551 0 24Z" fill="#D9D9D9" fill-opacity="0.06"/>
<path d="M16.6305 30V18.8H21.2385C22.2305 18.8 23.0785 18.96 23.7825 19.28C24.4972 19.6 25.0465 20.0587 25.4305 20.656C25.8145 21.2533 26.0065 21.9627 26.0065 22.784C26.0065 23.6053 25.8145 24.3147 25.4305 24.912C25.0465 25.5093 24.4972 25.968 23.7825 26.288C23.0785 26.608 22.2305 26.768 21.2385 26.768H17.7825L18.7105 25.792V30H16.6305ZM18.7105 26.016L17.7825 25.008H21.1425C22.0598 25.008 22.7478 24.816 23.2065 24.432C23.6758 24.0373 23.9105 23.488 23.9105 22.784C23.9105 22.0693 23.6758 21.52 23.2065 21.136C22.7478 20.752 22.0598 20.56 21.1425 20.56H17.7825L18.7105 19.536V26.016ZM31.703 30.112C30.7537 30.112 29.9217 29.9253 29.207 29.552C28.503 29.168 27.9537 28.6453 27.559 27.984C27.175 27.3227 26.983 26.5707 26.983 25.728C26.983 24.8747 27.1697 24.1227 27.543 23.472C27.927 22.8107 28.4497 22.2933 29.111 21.92C29.783 21.5467 30.5457 21.36 31.399 21.36C32.231 21.36 32.9723 21.5413 33.623 21.904C34.2737 22.2667 34.7857 22.7787 35.159 23.44C35.5323 24.1013 35.719 24.88 35.719 25.776C35.719 25.8613 35.7137 25.9573 35.703 26.064C35.703 26.1707 35.6977 26.272 35.687 26.368H28.567V25.04H34.631L33.847 25.456C33.8577 24.9653 33.7563 24.5333 33.543 24.16C33.3297 23.7867 33.0363 23.4933 32.663 23.28C32.3003 23.0667 31.879 22.96 31.399 22.96C30.9083 22.96 30.4763 23.0667 30.103 23.28C29.7403 23.4933 29.4523 23.792 29.239 24.176C29.0363 24.5493 28.935 24.992 28.935 25.504V25.824C28.935 26.336 29.0523 26.7893 29.287 27.184C29.5217 27.5787 29.8523 27.8827 30.279 28.096C30.7057 28.3093 31.1963 28.416 31.751 28.416C32.231 28.416 32.663 28.3413 33.047 28.192C33.431 28.0427 33.7723 27.808 34.071 27.488L35.143 28.72C34.759 29.168 34.2737 29.5147 33.687 29.76C33.111 29.9947 32.4497 30.112 31.703 30.112ZM38.8851 28.608L36.9011 28.304C37.2211 28.304 37.4771 28.2027 37.6691 28C37.8718 27.7867 38.0265 27.4987 38.1331 27.136C38.2505 26.7627 38.3358 26.3413 38.3891 25.872C38.4425 25.392 38.4798 24.896 38.5011 24.384L38.6131 21.456H45.6531V29.072H43.6531V23.152H40.3731L40.3251 24.528C40.3038 25.0187 40.2718 25.4933 40.2291 25.952C40.1865 26.4 40.1171 26.816 40.0211 27.2C39.9251 27.5733 39.7865 27.8827 39.6051 28.128C39.4238 28.3733 39.1838 28.5333 38.8851 28.608ZM36.5971 31.904V28.304H46.9171V31.904H45.0451V30H38.4531V31.904H36.5971ZM53.8874 30V28.272L53.7754 27.904V24.88C53.7754 24.2933 53.5994 23.84 53.2474 23.52C52.8954 23.1893 52.362 23.024 51.6474 23.024C51.1674 23.024 50.6927 23.0987 50.2234 23.248C49.7647 23.3973 49.3754 23.6053 49.0554 23.872L48.2714 22.416C48.73 22.064 49.274 21.8027 49.9034 21.632C50.5434 21.4507 51.2047 21.36 51.8874 21.36C53.1247 21.36 54.0794 21.6587 54.7514 22.256C55.434 22.8427 55.7754 23.7547 55.7754 24.992V30H53.8874ZM51.1994 30.112C50.5594 30.112 49.9994 30.0053 49.5194 29.792C49.0394 29.568 48.666 29.264 48.3994 28.88C48.1434 28.4853 48.0154 28.0427 48.0154 27.552C48.0154 27.072 48.1274 26.64 48.3514 26.256C48.586 25.872 48.9647 25.568 49.4874 25.344C50.01 25.12 50.7034 25.008 51.5674 25.008H54.0474V26.336H51.7114C51.0287 26.336 50.57 26.448 50.3354 26.672C50.1007 26.8853 49.9834 27.152 49.9834 27.472C49.9834 27.8347 50.1274 28.1227 50.4154 28.336C50.7034 28.5493 51.1034 28.656 51.6154 28.656C52.106 28.656 52.5434 28.544 52.9274 28.32C53.322 28.096 53.6047 27.7653 53.7754 27.328L54.1114 28.528C53.9194 29.0293 53.5727 29.4187 53.0714 29.696C52.5807 29.9733 51.9567 30.112 51.1994 30.112ZM64.3783 30L61.2903 25.904L62.9223 24.896L66.7303 30H64.3783ZM58.2503 30V21.456H60.2503V30H58.2503ZM59.6583 26.576V24.912H62.5543V26.576H59.6583ZM63.1143 25.968L61.2423 25.744L64.3783 21.456H66.5223L63.1143 25.968ZM69.8075 30V22.672L70.2715 23.152H66.7995V21.456H74.7995V23.152H71.3435L71.8075 22.672V30H69.8075ZM79.6833 30.112C78.8086 30.112 78.0299 29.9253 77.3473 29.552C76.6646 29.168 76.1259 28.6453 75.7313 27.984C75.3366 27.3227 75.1393 26.5707 75.1393 25.728C75.1393 24.8747 75.3366 24.1227 75.7313 23.472C76.1259 22.8107 76.6646 22.2933 77.3473 21.92C78.0299 21.5467 78.8086 21.36 79.6833 21.36C80.5686 21.36 81.3526 21.5467 82.0353 21.92C82.7286 22.2933 83.2673 22.8053 83.6513 23.456C84.0459 24.1067 84.2433 24.864 84.2433 25.728C84.2433 26.5707 84.0459 27.3227 83.6513 27.984C83.2673 28.6453 82.7286 29.168 82.0353 29.552C81.3526 29.9253 80.5686 30.112 79.6833 30.112ZM79.6833 28.4C80.1739 28.4 80.6113 28.2933 80.9953 28.08C81.3793 27.8667 81.6779 27.5573 81.8913 27.152C82.1153 26.7467 82.2273 26.272 82.2273 25.728C82.2273 25.1733 82.1153 24.6987 81.8913 24.304C81.6779 23.8987 81.3793 23.5893 80.9953 23.376C80.6113 23.1627 80.1793 23.056 79.6993 23.056C79.2086 23.056 78.7713 23.1627 78.3873 23.376C78.0139 23.5893 77.7153 23.8987 77.4913 24.304C77.2673 24.6987 77.1553 25.1733 77.1553 25.728C77.1553 26.272 77.2673 26.7467 77.4913 27.152C77.7153 27.5573 78.0139 27.8667 78.3873 28.08C78.7713 28.2933 79.2033 28.4 79.6833 28.4ZM90.955 30.112C90.2617 30.112 89.627 29.952 89.051 29.632C88.4857 29.312 88.0323 28.832 87.691 28.192C87.3603 27.5413 87.195 26.72 87.195 25.728C87.195 24.7253 87.355 23.904 87.675 23.264C88.0057 22.624 88.4537 22.1493 89.019 21.84C89.5843 21.52 90.2297 21.36 90.955 21.36C91.7977 21.36 92.539 21.5413 93.179 21.904C93.8297 22.2667 94.3417 22.7733 94.715 23.424C95.099 24.0747 95.291 24.8427 95.291 25.728C95.291 26.6133 95.099 27.3867 94.715 28.048C94.3417 28.6987 93.8297 29.2053 93.179 29.568C92.539 29.9307 91.7977 30.112 90.955 30.112ZM86.219 33.104V21.456H88.123V23.472L88.059 25.744L88.219 28.016V33.104H86.219ZM90.731 28.4C91.211 28.4 91.6377 28.2933 92.011 28.08C92.395 27.8667 92.699 27.5573 92.923 27.152C93.147 26.7467 93.259 26.272 93.259 25.728C93.259 25.1733 93.147 24.6987 92.923 24.304C92.699 23.8987 92.395 23.5893 92.011 23.376C91.6377 23.1627 91.211 23.056 90.731 23.056C90.251 23.056 89.819 23.1627 89.435 23.376C89.051 23.5893 88.747 23.8987 88.523 24.304C88.299 24.6987 88.187 25.1733 88.187 25.728C88.187 26.272 88.299 26.7467 88.523 27.152C88.747 27.5573 89.051 27.8667 89.435 28.08C89.819 28.2933 90.251 28.4 90.731 28.4Z" fill="#595959"/>
<path d="M0 24C0 16.5449 0 12.8174 1.21793 9.87706C2.84183 5.95662 5.95662 2.84183 9.87706 1.21793C12.8174 0 16.5449 0 24 0H84C91.4551 0 95.1826 0 98.1229 1.21793C102.043 2.84183 105.158 5.95662 106.782 9.87706C108 12.8174 108 16.5449 108 24C108 31.4551 108 35.1826 106.782 38.1229C105.158 42.0434 102.043 45.1582 98.1229 46.7821C95.1826 48 91.4551 48 84 48H24C16.5449 48 12.8174 48 9.87706 46.7821C5.95662 45.1582 2.84183 42.0434 1.21793 38.1229C0 35.1826 0 31.4551 0 24Z" fill="#424242"/>
<path d="M16.6305 30V18.8H21.2385C22.2305 18.8 23.0785 18.96 23.7825 19.28C24.4972 19.6 25.0465 20.0587 25.4305 20.656C25.8145 21.2533 26.0065 21.9627 26.0065 22.784C26.0065 23.6053 25.8145 24.3147 25.4305 24.912C25.0465 25.5093 24.4972 25.968 23.7825 26.288C23.0785 26.608 22.2305 26.768 21.2385 26.768H17.7825L18.7105 25.792V30H16.6305ZM18.7105 26.016L17.7825 25.008H21.1425C22.0598 25.008 22.7478 24.816 23.2065 24.432C23.6758 24.0373 23.9105 23.488 23.9105 22.784C23.9105 22.0693 23.6758 21.52 23.2065 21.136C22.7478 20.752 22.0598 20.56 21.1425 20.56H17.7825L18.7105 19.536V26.016ZM31.703 30.112C30.7537 30.112 29.9217 29.9253 29.207 29.552C28.503 29.168 27.9537 28.6453 27.559 27.984C27.175 27.3227 26.983 26.5707 26.983 25.728C26.983 24.8747 27.1697 24.1227 27.543 23.472C27.927 22.8107 28.4497 22.2933 29.111 21.92C29.783 21.5467 30.5457 21.36 31.399 21.36C32.231 21.36 32.9723 21.5413 33.623 21.904C34.2737 22.2667 34.7857 22.7787 35.159 23.44C35.5323 24.1013 35.719 24.88 35.719 25.776C35.719 25.8613 35.7137 25.9573 35.703 26.064C35.703 26.1707 35.6977 26.272 35.687 26.368H28.567V25.04H34.631L33.847 25.456C33.8577 24.9653 33.7563 24.5333 33.543 24.16C33.3297 23.7867 33.0363 23.4933 32.663 23.28C32.3003 23.0667 31.879 22.96 31.399 22.96C30.9083 22.96 30.4763 23.0667 30.103 23.28C29.7403 23.4933 29.4523 23.792 29.239 24.176C29.0363 24.5493 28.935 24.992 28.935 25.504V25.824C28.935 26.336 29.0523 26.7893 29.287 27.184C29.5217 27.5787 29.8523 27.8827 30.279 28.096C30.7057 28.3093 31.1963 28.416 31.751 28.416C32.231 28.416 32.663 28.3413 33.047 28.192C33.431 28.0427 33.7723 27.808 34.071 27.488L35.143 28.72C34.759 29.168 34.2737 29.5147 33.687 29.76C33.111 29.9947 32.4497 30.112 31.703 30.112ZM38.8851 28.608L36.9011 28.304C37.2211 28.304 37.4771 28.2027 37.6691 28C37.8718 27.7867 38.0265 27.4987 38.1331 27.136C38.2505 26.7627 38.3358 26.3413 38.3891 25.872C38.4425 25.392 38.4798 24.896 38.5011 24.384L38.6131 21.456H45.6531V29.072H43.6531V23.152H40.3731L40.3251 24.528C40.3038 25.0187 40.2718 25.4933 40.2291 25.952C40.1865 26.4 40.1171 26.816 40.0211 27.2C39.9251 27.5733 39.7865 27.8827 39.6051 28.128C39.4238 28.3733 39.1838 28.5333 38.8851 28.608ZM36.5971 31.904V28.304H46.9171V31.904H45.0451V30H38.4531V31.904H36.5971ZM53.8874 30V28.272L53.7754 27.904V24.88C53.7754 24.2933 53.5994 23.84 53.2474 23.52C52.8954 23.1893 52.362 23.024 51.6474 23.024C51.1674 23.024 50.6927 23.0987 50.2234 23.248C49.7647 23.3973 49.3754 23.6053 49.0554 23.872L48.2714 22.416C48.73 22.064 49.274 21.8027 49.9034 21.632C50.5434 21.4507 51.2047 21.36 51.8874 21.36C53.1247 21.36 54.0794 21.6587 54.7514 22.256C55.434 22.8427 55.7754 23.7547 55.7754 24.992V30H53.8874ZM51.1994 30.112C50.5594 30.112 49.9994 30.0053 49.5194 29.792C49.0394 29.568 48.666 29.264 48.3994 28.88C48.1434 28.4853 48.0154 28.0427 48.0154 27.552C48.0154 27.072 48.1274 26.64 48.3514 26.256C48.586 25.872 48.9647 25.568 49.4874 25.344C50.01 25.12 50.7034 25.008 51.5674 25.008H54.0474V26.336H51.7114C51.0287 26.336 50.57 26.448 50.3354 26.672C50.1007 26.8853 49.9834 27.152 49.9834 27.472C49.9834 27.8347 50.1274 28.1227 50.4154 28.336C50.7034 28.5493 51.1034 28.656 51.6154 28.656C52.106 28.656 52.5434 28.544 52.9274 28.32C53.322 28.096 53.6047 27.7653 53.7754 27.328L54.1114 28.528C53.9194 29.0293 53.5727 29.4187 53.0714 29.696C52.5807 29.9733 51.9567 30.112 51.1994 30.112ZM64.3783 30L61.2903 25.904L62.9223 24.896L66.7303 30H64.3783ZM58.2503 30V21.456H60.2503V30H58.2503ZM59.6583 26.576V24.912H62.5543V26.576H59.6583ZM63.1143 25.968L61.2423 25.744L64.3783 21.456H66.5223L63.1143 25.968ZM69.8075 30V22.672L70.2715 23.152H66.7995V21.456H74.7995V23.152H71.3435L71.8075 22.672V30H69.8075ZM79.6833 30.112C78.8086 30.112 78.0299 29.9253 77.3473 29.552C76.6646 29.168 76.1259 28.6453 75.7313 27.984C75.3366 27.3227 75.1393 26.5707 75.1393 25.728C75.1393 24.8747 75.3366 24.1227 75.7313 23.472C76.1259 22.8107 76.6646 22.2933 77.3473 21.92C78.0299 21.5467 78.8086 21.36 79.6833 21.36C80.5686 21.36 81.3526 21.5467 82.0353 21.92C82.7286 22.2933 83.2673 22.8053 83.6513 23.456C84.0459 24.1067 84.2433 24.864 84.2433 25.728C84.2433 26.5707 84.0459 27.3227 83.6513 27.984C83.2673 28.6453 82.7286 29.168 82.0353 29.552C81.3526 29.9253 80.5686 30.112 79.6833 30.112ZM79.6833 28.4C80.1739 28.4 80.6113 28.2933 80.9953 28.08C81.3793 27.8667 81.6779 27.5573 81.8913 27.152C82.1153 26.7467 82.2273 26.272 82.2273 25.728C82.2273 25.1733 82.1153 24.6987 81.8913 24.304C81.6779 23.8987 81.3793 23.5893 80.9953 23.376C80.6113 23.1627 80.1793 23.056 79.6993 23.056C79.2086 23.056 78.7713 23.1627 78.3873 23.376C78.0139 23.5893 77.7153 23.8987 77.4913 24.304C77.2673 24.6987 77.1553 25.1733 77.1553 25.728C77.1553 26.272 77.2673 26.7467 77.4913 27.152C77.7153 27.5573 78.0139 27.8667 78.3873 28.08C78.7713 28.2933 79.2033 28.4 79.6833 28.4ZM90.955 30.112C90.2617 30.112 89.627 29.952 89.051 29.632C88.4857 29.312 88.0323 28.832 87.691 28.192C87.3603 27.5413 87.195 26.72 87.195 25.728C87.195 24.7253 87.355 23.904 87.675 23.264C88.0057 22.624 88.4537 22.1493 89.019 21.84C89.5843 21.52 90.2297 21.36 90.955 21.36C91.7977 21.36 92.539 21.5413 93.179 21.904C93.8297 22.2667 94.3417 22.7733 94.715 23.424C95.099 24.0747 95.291 24.8427 95.291 25.728C95.291 26.6133 95.099 27.3867 94.715 28.048C94.3417 28.6987 93.8297 29.2053 93.179 29.568C92.539 29.9307 91.7977 30.112 90.955 30.112ZM86.219 33.104V21.456H88.123V23.472L88.059 25.744L88.219 28.016V33.104H86.219ZM90.731 28.4C91.211 28.4 91.6377 28.2933 92.011 28.08C92.395 27.8667 92.699 27.5573 92.923 27.152C93.147 26.7467 93.259 26.272 93.259 25.728C93.259 25.1733 93.147 24.6987 92.923 24.304C92.699 23.8987 92.395 23.5893 92.011 23.376C91.6377 23.1627 91.211 23.056 90.731 23.056C90.251 23.056 89.819 23.1627 89.435 23.376C89.051 23.5893 88.747 23.8987 88.523 24.304C88.299 24.6987 88.187 25.1733 88.187 25.728C88.187 26.272 88.299 26.7467 88.523 27.152C88.747 27.5573 89.051 27.8667 89.435 28.08C89.819 28.2933 90.251 28.4 90.731 28.4Z" fill="white"/>
</svg>
