<svg width="48" height="48" viewBox="0 0 48 48" fill="none" xmlns="http://www.w3.org/2000/svg">
<path d="M0 0H24C31.4551 0 35.1826 0 38.1229 1.21793C42.0434 2.84183 45.1582 5.95662 46.7821 9.87706C48 12.8174 48 16.5449 48 24C48 31.4551 48 35.1826 46.7821 38.1229C45.1582 42.0434 42.0434 45.1582 38.1229 46.7821C35.1826 48 31.4551 48 24 48H0V0Z" fill="#D9D9D9" fill-opacity="0.05"/>
<path d="M0 0H24C31.4551 0 35.1826 0 38.1229 1.21793C42.0434 2.84183 45.1582 5.95662 46.7821 9.87706C48 12.8174 48 16.5449 48 24C48 31.4551 48 35.1826 46.7821 38.1229C45.1582 42.0434 42.0434 45.1582 38.1229 46.7821C35.1826 48 31.4551 48 24 48H0V0Z" fill="#E7D692" fill-opacity="0.15"/>
<path d="M32.5085 16.1752C32.9641 15.7196 33.7026 15.7196 34.1582 16.1752C34.6138 16.6308 34.6138 17.3693 34.1582 17.8249L21.3249 30.6583C20.8693 31.1139 20.1308 31.1139 19.6752 30.6583L13.8418 24.8249C13.3862 24.3693 13.3862 23.6308 13.8418 23.1752C14.2974 22.7196 15.036 22.7196 15.4916 23.1752L20.5 28.1837L32.5085 16.1752Z" fill="#E7D692"/>
</svg>
