<svg width="560" height="106" viewBox="0 0 560 106" fill="none" xmlns="http://www.w3.org/2000/svg">
<path d="M24.66 43.92C21.3 43.92 18.18 43.4 15.3 42.36C12.46 41.28 9.98 39.76 7.86 37.8C5.78 35.84 4.16 33.52 3 30.84C1.84 28.16 1.26 25.2 1.26 21.96C1.26 18.72 1.84 15.76 3 13.08C4.16 10.4 5.78 8.07996 7.86 6.11996C9.98 4.15996 12.46 2.65996 15.3 1.61996C18.18 0.53996 21.3 -4.02927e-05 24.66 -4.02927e-05C28.78 -4.02927e-05 32.42 0.71996 35.58 2.15996C38.78 3.59996 41.42 5.67996 43.5 8.39996L34.56 16.38C33.32 14.82 31.94 13.62 30.42 12.78C28.94 11.9 27.26 11.46 25.38 11.46C23.9 11.46 22.56 11.7 21.36 12.18C20.16 12.66 19.12 13.36 18.24 14.28C17.4 15.2 16.74 16.32 16.26 17.64C15.78 18.92 15.54 20.36 15.54 21.96C15.54 23.56 15.78 25.02 16.26 26.34C16.74 27.62 17.4 28.72 18.24 29.64C19.12 30.56 20.16 31.26 21.36 31.74C22.56 32.22 23.9 32.46 25.38 32.46C27.26 32.46 28.94 32.04 30.42 31.2C31.94 30.32 33.32 29.1 34.56 27.54L43.5 35.52C41.42 38.2 38.78 40.28 35.58 41.76C32.42 43.2 28.78 43.92 24.66 43.92ZM57.0253 42.96V8.87996L60.0853 11.94H44.7253V0.959958H83.2453V11.94H67.8853L70.9453 8.87996V42.96H57.0253ZM87.915 42.96V0.959958H108.135C112.055 0.959958 115.435 1.59996 118.275 2.87996C121.155 4.15996 123.375 5.99996 124.935 8.39996C126.495 10.76 127.275 13.56 127.275 16.8C127.275 20.04 126.495 22.84 124.935 25.2C123.375 27.56 121.155 29.4 118.275 30.72C115.435 32 112.055 32.64 108.135 32.64H95.775L102.075 26.58V42.96H87.915ZM102.075 28.14L95.775 21.72H107.235C109.195 21.72 110.635 21.28 111.555 20.4C112.515 19.52 112.995 18.32 112.995 16.8C112.995 15.28 112.515 14.08 111.555 13.2C110.635 12.32 109.195 11.88 107.235 11.88H95.775L102.075 5.45996V28.14ZM125.918 42.96L144.278 0.959958H158.198L176.558 42.96H161.918L148.358 7.67996H153.878L140.318 42.96H125.918ZM136.838 35.64L140.438 25.44H159.758L163.358 35.64H136.838ZM207.675 42.96V0.959958H221.835V42.96H207.675ZM180.435 42.96V0.959958H194.595V42.96H180.435ZM193.635 27.48V15.84H208.635V27.48H193.635ZM229.302 42.96V0.959958H243.222V22.8L257.682 0.959958H271.002V42.96H257.082V21.18L242.682 42.96H229.302ZM278.462 42.96V0.959958H292.382V31.98H305.702V0.959958H319.622V42.96H278.462ZM312.182 51.18V39.9L315.122 42.96H305.702V31.98H325.142V51.18H312.182ZM326.953 42.96L345.313 0.959958H359.233L377.593 42.96H362.953L349.393 7.67996H354.913L341.353 42.96H326.953ZM337.873 35.64L341.473 25.44H360.793L364.393 35.64H337.873ZM5.40167e-08 96.96L18.36 54.96H32.28L50.64 96.96H36L22.44 61.68H27.96L14.4 96.96H5.40167e-08ZM10.92 89.64L14.52 79.44H33.84L37.44 89.64H10.92ZM68.5425 87.66L53.6025 85.98C54.9225 85.98 56.0025 85.54 56.8425 84.66C57.7225 83.74 58.4225 82.48 58.9425 80.88C59.4625 79.24 59.8425 77.32 60.0825 75.12C60.3625 72.88 60.5625 70.42 60.6825 67.74L61.1625 54.96H96.6825V90.96H82.7625V65.94H73.1025L72.9825 68.94C72.9025 71.14 72.7625 73.2 72.5625 75.12C72.3625 77.04 72.0825 78.8 71.7225 80.4C71.4025 82 70.9825 83.42 70.4625 84.66C69.9425 85.86 69.3025 86.86 68.5425 87.66ZM52.4025 105.18V85.98H102.203V105.18H89.2425V96.96H65.3625V105.18H52.4025ZM106.958 96.96V54.96H118.598L135.398 82.38H129.278L145.598 54.96H157.238L157.358 96.96H144.458L144.338 74.4H146.378L135.218 93.18H128.978L117.338 74.4H119.858V96.96H106.958ZM164.731 96.96V54.96H178.651V76.8L193.111 54.96H206.431V96.96H192.511V75.18L178.111 96.96H164.731ZM241.132 96.96V54.96H255.292V96.96H241.132ZM213.892 96.96V54.96H228.052V96.96H213.892ZM227.092 81.48V69.84H242.092V81.48H227.092ZM280.747 96.96V54.96H321.367V96.96H307.447V62.94L310.507 65.94H291.607L294.667 62.94V96.96H280.747ZM325.254 96.96L343.614 54.96H357.534L375.894 96.96H361.254L347.694 61.68H353.214L339.654 96.96H325.254ZM336.174 89.64L339.774 79.44H359.094L362.694 89.64H336.174ZM407.01 96.96V54.96H421.17V96.96H407.01ZM379.77 96.96V54.96H393.93V96.96H379.77ZM392.97 81.48V69.84H407.97V81.48H392.97ZM428.638 96.96V54.96H462.778V65.64H442.558V86.28H463.558V96.96H428.638ZM441.598 80.76V70.56H460.318V80.76H441.598ZM472.422 97.74C471.542 97.74 470.602 97.68 469.602 97.56C468.602 97.44 467.542 97.24 466.422 96.96L467.142 85.62C467.702 85.74 468.222 85.8 468.702 85.8C470.262 85.8 471.422 85.16 472.182 83.88C472.942 82.6 473.462 80.88 473.742 78.72C474.022 76.52 474.202 74.06 474.282 71.34L474.822 54.96H510.282V96.96H496.362V62.94L499.422 65.94H484.122L486.882 62.76L486.642 70.8C486.522 74.84 486.242 78.52 485.802 81.84C485.402 85.12 484.702 87.96 483.702 90.36C482.702 92.72 481.282 94.54 479.442 95.82C477.642 97.1 475.302 97.74 472.422 97.74ZM517.7 96.96V54.96H531.62V76.8L546.08 54.96H559.4V96.96H545.48V75.18L531.08 96.96H517.7Z" fill="white"/>
</svg>
